M48
;Layer_Color=9474304
;FILE_FORMAT=2:5
INCH,LZ
;TYPE=PLATED
T1F00S00C0.01200
T2F00S00C0.01500
T3F00S00C0.01575
T4F00S00C0.02000
%
T01
X-0009843Y-0066929
X-0003062Y-0044882
X0Y-0047944
X0003062Y-0044882
X0Y-004182
X-0001969Y-0030709
X-0006209Y-0033078
X-0011035Y-0032526
X-0018504Y-003401
X-0018799Y-0027987
X-0028543Y-0026791
X-0030603Y-0024591
X-0034941Y-0031004
X-0025197Y-0033858
X-0002471Y-0022704
X0003252Y-0022605
X0016339Y-0025591
X0019685Y-003937
X0025253Y-0039391
X0033858Y-0030315
X0034151Y-0025197
X0062008Y-003937
Y-0051181
X0067913
X0056102
X0050197Y-0062992
X0044291
X-0044291
X-0050197
Y-0051181
X-0056103
X-0062008
X-0067914
X-0059055Y-0045276
X-005315
X-0062008Y-003937
Y-0027559
Y0031496
X-0059055Y0037402
X-0056103Y0043307
X-0062008
X-0064961Y0049213
X-0059055
X-005315
X-0050197Y0055118
X-0044291
X-0047244Y0061023
X-0050197Y0066929
X-0041339Y0061023
X-0035433
X-0014764Y0066929
X-0002953
X0002953
X0014764
X0007087Y0053937
X0011811Y0040157
X0014764Y0031496
X0020669
X0023228Y0036614
X0027559Y0034252
X003248Y0031496
Y0019685
X0026575
X0023622Y002559
X0017716
X0015344Y0016915
X0010656Y00202
X0005297Y0022215
X-0000394Y0022835
X-000606Y0022019
X-0011346Y001982
X-0015918Y0016376
X-0019491Y0011903
X-0021839Y0006682
X-0022814Y0001041
X-0022356Y-0004665
X-0020494Y-0010079
X-0017344Y-0014859
X-0013103Y-0018705
X-000804Y-0021376
X0008772Y-0021086
X001374Y-0018242
X0017845Y-0014252
X0020829Y-0009366
X0022504Y-0003892
X0022765Y0001827
X0021595Y0007431
X0019069Y0012568
X0029527Y0013779
X0035433
X0042126Y001378
X003937Y0003937
X0035433Y0001968
X0029527
X003248Y0007874
Y-0003937
X0035827Y-0006693
X0029527Y-0009843
X0027559Y-0015748
X0033465
X0040062Y-0021654
X0023622Y-0019685
X0046457Y-0005118
X0062008Y0031496
X0059055Y0037402
X0062008Y0043307
X0056102
X0053149Y0049213
X0059055
X006496
X0050197Y0055118
X0044291
X0041339Y0061023
X0047244
X0050197Y0066929
X0035433Y0061023
X0008858Y0031496
X-0001969Y0040157
X-0009843Y0042913
X-0014567Y0040551
X-0022441Y0033465
X-0025591Y0022047
X-0031496Y0015354
X-0040157Y0009055
X-0033465Y-0003937
X-0035433Y-0012598
X-0029528Y-0011811
X-0029528Y-0021654
T02
X-0014847Y-0064252
X-000555Y-0065745
X-0001726Y-0066177
X0002067Y-0067129
X0006398Y-0057284
X0020165Y-0052408
X0014469Y-003013
X001063Y-0029968
X0005689Y-0029914
X0001575Y-003002
X-0019422Y-0052164
X-0022726Y-0051627
X-0021063Y-0055315
X-0035208Y-0043553
X0045856Y-0037008
X0057869Y-0035428
X0058122Y-0031553
X0058849Y-0038583
X0051181Y-0022736
X-004523Y-0033097
X-0062992Y-0019193
X-0057284Y-0008957
X-0053248
X-0055641Y-0006041
X-005527Y0008574
X-005113Y0022596
X-0046919Y0034846
X-0052615Y0039754
X-0036795Y0045407
X-0032905Y004514
X-002126Y0049625
X-0005318Y0053933
X0022047Y0049606
X0035208Y0043553
X0045332Y0032816
X0056015Y00348
X0058268Y0030709
X006063Y0025197
X0056822Y0008603
X0056299Y-0009449
T03
X0059118Y-0069799
X0063905Y-0070685
X0068298Y-006859
X0070621Y-0064311
X0069986Y-0059485
X0066634Y-0055954
X0061848Y-0055067
X0057454Y-0057163
X0055131Y-0061441
X0055767Y-0066268
X-0055954Y-0066634
X-0055067Y-0061848
X-0057163Y-0057454
X-0061441Y-0055131
X-0066268Y-0055767
X-0069799Y-0059118
X-0070685Y-0063905
X-006859Y-0068298
X-0064311Y-0070621
X-0059485Y-0069986
X-0061848Y0055067
X-0066634Y0055954
X-0069986Y0059485
X-0070621Y0064311
X-0068298Y006859
X-0063905Y0070685
X-0059118Y0069799
X-0055767Y0066268
X-0055131Y0061441
X-0057454Y0057163
X0057163Y0057454
X0055067Y0061848
X0055954Y0066634
X0059485Y0069986
X0064311Y0070621
X006859Y0068298
X0070685Y0063905
X0069799Y0059118
X0066268Y0055767
X0061441Y0055131
T04
X0020472Y-0025984
X0022933Y-0023819
X-0044094Y0014173
X-0040866Y0014177
X-004122Y-0001438
X-0025984Y0016535
X-0018504Y0038189
X0018504
M30
