G04*
G04 #@! TF.GenerationSoftware,Altium Limited,Altium Designer,21.8.1 (53)*
G04*
G04 Layer_Physical_Order=3*
G04 Layer_Color=16440176*
%FSLAX25Y25*%
%MOIN*%
G70*
G04*
G04 #@! TF.SameCoordinates,509546C8-056D-42BE-A314-9817B2043C00*
G04*
G04*
G04 #@! TF.FilePolarity,Positive*
G04*
G01*
G75*
%ADD41C,0.01200*%
%ADD44C,0.01500*%
%ADD45C,0.00800*%
%ADD48C,0.02400*%
%ADD49C,0.03200*%
%ADD50C,0.02700*%
%ADD52C,0.01260*%
G36*
X65012Y75743D02*
X66981Y75270D01*
X68853Y74495D01*
X70580Y73436D01*
X72121Y72121D01*
X73436Y70580D01*
X74495Y68853D01*
X75270Y66981D01*
X75743Y65012D01*
X75902Y62992D01*
X75743Y60973D01*
X75270Y59003D01*
X74495Y57131D01*
X73436Y55404D01*
X72447Y54246D01*
X72120Y53884D01*
X71841Y53635D01*
X71759Y53543D01*
X69769Y51316D01*
X67970Y48780D01*
X66466Y46059D01*
X65276Y43186D01*
X64415Y40198D01*
X63894Y37132D01*
X63720Y34027D01*
X63894Y30923D01*
X64415Y27857D01*
X65276Y24869D01*
X65494Y24342D01*
X65494Y24342D01*
X65504Y24313D01*
X65505Y24307D01*
X65507Y24305D01*
X65659Y23874D01*
X67053Y19688D01*
X68286Y14855D01*
X69172Y9945D01*
X69705Y4985D01*
X69883Y0D01*
X69705Y-4985D01*
X69172Y-9945D01*
X68286Y-14855D01*
X67053Y-19688D01*
X65659Y-23874D01*
X65507Y-24305D01*
X65505Y-24307D01*
X65494Y-24342D01*
X65494Y-24342D01*
X65276Y-24869D01*
X64415Y-27857D01*
X63894Y-30923D01*
X63720Y-34027D01*
X63894Y-37132D01*
X64415Y-40198D01*
X65276Y-43186D01*
X66466Y-46059D01*
X67970Y-48780D01*
X69769Y-51316D01*
X71759Y-53543D01*
X71841Y-53635D01*
X72120Y-53884D01*
X72447Y-54246D01*
X73436Y-55404D01*
X74495Y-57131D01*
X75270Y-59003D01*
X75743Y-60973D01*
X75902Y-62992D01*
X75743Y-65012D01*
X75270Y-66981D01*
X74495Y-68853D01*
X73436Y-70580D01*
X72121Y-72121D01*
X70580Y-73436D01*
X68853Y-74495D01*
X66981Y-75270D01*
X65012Y-75743D01*
X62992Y-75902D01*
X60973Y-75743D01*
X59003Y-75270D01*
X57131Y-74495D01*
X55404Y-73436D01*
X54246Y-72447D01*
X53884Y-72120D01*
X53635Y-71841D01*
X53543Y-71759D01*
X51316Y-69769D01*
X48780Y-67970D01*
X46059Y-66466D01*
X43186Y-65276D01*
X40198Y-64415D01*
X37132Y-63894D01*
X34027Y-63720D01*
X30923Y-63894D01*
X27857Y-64415D01*
X24869Y-65276D01*
X24342Y-65494D01*
X24342Y-65494D01*
X24313Y-65504D01*
X24307Y-65505D01*
X24305Y-65507D01*
X23874Y-65659D01*
X19688Y-67053D01*
X14855Y-68286D01*
X9945Y-69172D01*
X4985Y-69705D01*
X0Y-69883D01*
X-4985Y-69705D01*
X-9945Y-69172D01*
X-14855Y-68286D01*
X-19688Y-67053D01*
X-23874Y-65659D01*
X-24305Y-65507D01*
X-24307Y-65505D01*
X-24342Y-65494D01*
X-24342Y-65494D01*
X-24869Y-65276D01*
X-27857Y-64415D01*
X-30923Y-63894D01*
X-34027Y-63720D01*
X-37132Y-63894D01*
X-40198Y-64415D01*
X-43186Y-65276D01*
X-46059Y-66466D01*
X-48780Y-67970D01*
X-51316Y-69769D01*
X-53543Y-71759D01*
X-53635Y-71841D01*
X-53884Y-72120D01*
X-54246Y-72447D01*
X-55404Y-73436D01*
X-57131Y-74495D01*
X-59003Y-75270D01*
X-60973Y-75743D01*
X-62992Y-75902D01*
X-65012Y-75743D01*
X-66981Y-75270D01*
X-68853Y-74495D01*
X-70580Y-73436D01*
X-72121Y-72121D01*
X-73436Y-70580D01*
X-74495Y-68853D01*
X-75270Y-66981D01*
X-75743Y-65012D01*
X-75902Y-62992D01*
X-75743Y-60973D01*
X-75270Y-59003D01*
X-74495Y-57131D01*
X-73436Y-55404D01*
X-72447Y-54246D01*
X-72120Y-53884D01*
X-71841Y-53635D01*
X-71759Y-53543D01*
X-69769Y-51316D01*
X-67970Y-48780D01*
X-66466Y-46059D01*
X-65276Y-43186D01*
X-64415Y-40198D01*
X-63894Y-37132D01*
X-63720Y-34027D01*
X-63894Y-30923D01*
X-64415Y-27857D01*
X-65276Y-24869D01*
X-65494Y-24342D01*
X-65494Y-24342D01*
X-65504Y-24313D01*
X-65505Y-24307D01*
X-65507Y-24305D01*
X-65659Y-23874D01*
X-67053Y-19688D01*
X-68286Y-14855D01*
X-69172Y-9945D01*
X-69705Y-4985D01*
X-69883Y0D01*
X-69705Y4985D01*
X-69172Y9945D01*
X-68286Y14855D01*
X-67053Y19688D01*
X-65659Y23874D01*
X-65507Y24305D01*
X-65505Y24307D01*
X-65494Y24342D01*
X-65494Y24342D01*
X-65276Y24869D01*
X-64415Y27857D01*
X-63894Y30923D01*
X-63720Y34027D01*
X-63894Y37132D01*
X-64415Y40198D01*
X-65276Y43186D01*
X-66466Y46059D01*
X-67970Y48780D01*
X-69769Y51316D01*
X-71759Y53543D01*
X-71841Y53635D01*
X-72120Y53884D01*
X-72447Y54246D01*
X-73436Y55404D01*
X-74495Y57131D01*
X-75270Y59003D01*
X-75743Y60973D01*
X-75902Y62992D01*
X-75743Y65012D01*
X-75270Y66981D01*
X-74495Y68853D01*
X-73436Y70580D01*
X-72121Y72121D01*
X-70580Y73436D01*
X-68853Y74495D01*
X-66981Y75270D01*
X-65012Y75743D01*
X-62992Y75902D01*
X-60973Y75743D01*
X-59003Y75270D01*
X-57131Y74495D01*
X-55404Y73436D01*
X-54246Y72447D01*
X-53884Y72120D01*
X-53635Y71841D01*
X-53543Y71759D01*
X-51316Y69769D01*
X-48780Y67970D01*
X-46059Y66466D01*
X-43186Y65276D01*
X-40198Y64415D01*
X-37132Y63894D01*
X-34027Y63720D01*
X-30923Y63894D01*
X-27857Y64415D01*
X-24869Y65276D01*
X-24342Y65494D01*
X-24342Y65494D01*
X-24313Y65504D01*
X-24307Y65505D01*
X-24305Y65507D01*
X-23874Y65659D01*
X-19688Y67053D01*
X-14855Y68286D01*
X-9945Y69172D01*
X-4985Y69705D01*
X0Y69883D01*
X4985Y69705D01*
X9945Y69172D01*
X14855Y68286D01*
X19688Y67053D01*
X23874Y65659D01*
X24305Y65507D01*
X24307Y65505D01*
X24342Y65494D01*
X24342Y65494D01*
X24869Y65276D01*
X27857Y64415D01*
X30923Y63894D01*
X34027Y63720D01*
X37132Y63894D01*
X40198Y64415D01*
X43186Y65276D01*
X46059Y66466D01*
X48780Y67970D01*
X51316Y69769D01*
X53543Y71759D01*
X53635Y71841D01*
X53884Y72120D01*
X54246Y72447D01*
X55404Y73436D01*
X57131Y74495D01*
X59003Y75270D01*
X60973Y75743D01*
X62992Y75902D01*
X65012Y75743D01*
D02*
G37*
%LPC*%
G36*
X63814Y73435D02*
X62170D01*
X60547Y73177D01*
X58984Y72670D01*
X57519Y71923D01*
X56189Y70957D01*
X55027Y69795D01*
X54061Y68465D01*
X53315Y67001D01*
X52807Y65437D01*
X52550Y63814D01*
Y62170D01*
X52807Y60547D01*
X53315Y58984D01*
X54061Y57519D01*
X55027Y56189D01*
X56189Y55027D01*
X57519Y54061D01*
X58984Y53315D01*
X60547Y52807D01*
X62170Y52550D01*
X63814D01*
X65437Y52807D01*
X67001Y53315D01*
X68465Y54061D01*
X69795Y55027D01*
X70957Y56189D01*
X71923Y57519D01*
X72670Y58984D01*
X73177Y60547D01*
X73435Y62170D01*
Y63814D01*
X73177Y65437D01*
X72670Y67001D01*
X71923Y68465D01*
X70957Y69795D01*
X69795Y70957D01*
X68465Y71923D01*
X67001Y72670D01*
X65437Y73177D01*
X63814Y73435D01*
D02*
G37*
G36*
X-62170D02*
X-63814D01*
X-65437Y73177D01*
X-67001Y72670D01*
X-68465Y71923D01*
X-69795Y70957D01*
X-70957Y69795D01*
X-71923Y68465D01*
X-72670Y67001D01*
X-73177Y65437D01*
X-73435Y63814D01*
Y62170D01*
X-73177Y60547D01*
X-72670Y58984D01*
X-71923Y57519D01*
X-70957Y56189D01*
X-69795Y55027D01*
X-68465Y54061D01*
X-67001Y53315D01*
X-65437Y52807D01*
X-63814Y52550D01*
X-62170D01*
X-60547Y52807D01*
X-58984Y53315D01*
X-57519Y54061D01*
X-56189Y55027D01*
X-55027Y56189D01*
X-54061Y57519D01*
X-53315Y58984D01*
X-52807Y60547D01*
X-52550Y62170D01*
Y63814D01*
X-52807Y65437D01*
X-53315Y67001D01*
X-54061Y68465D01*
X-55027Y69795D01*
X-56189Y70957D01*
X-57519Y71923D01*
X-58984Y72670D01*
X-60547Y73177D01*
X-62170Y73435D01*
D02*
G37*
G36*
X0Y64272D02*
X-5043Y64073D01*
X-10054Y63480D01*
X-15004Y62496D01*
X-19861Y61126D01*
X-23220Y59887D01*
X-23306Y59870D01*
X-23354Y59837D01*
X-24596Y59379D01*
X-29179Y57266D01*
X-33582Y54800D01*
X-37778Y51997D01*
X-41741Y48873D01*
X-45447Y45447D01*
X-48873Y41741D01*
X-50203Y40053D01*
X-50701Y40229D01*
X-50962Y40858D01*
X-51511Y41407D01*
X-52227Y41704D01*
X-53003D01*
X-53720Y41407D01*
X-54268Y40858D01*
X-54565Y40142D01*
Y39366D01*
X-54268Y38649D01*
X-53720Y38101D01*
X-53003Y37804D01*
X-52581D01*
X-52314Y37304D01*
X-54800Y33582D01*
X-57266Y29179D01*
X-59379Y24596D01*
X-61126Y19861D01*
X-62496Y15004D01*
X-63480Y10054D01*
X-64073Y5043D01*
X-64272Y0D01*
X-64073Y-5043D01*
X-63480Y-10054D01*
X-62496Y-15004D01*
X-61939Y-16977D01*
X-62355Y-17346D01*
X-62604Y-17243D01*
X-63380D01*
X-64097Y-17540D01*
X-64645Y-18088D01*
X-64942Y-18805D01*
Y-19581D01*
X-64645Y-20298D01*
X-64097Y-20846D01*
X-63380Y-21143D01*
X-62604D01*
X-61888Y-20846D01*
X-61455Y-20414D01*
X-61002Y-20450D01*
X-60890Y-20501D01*
X-59379Y-24596D01*
X-57266Y-29179D01*
X-54800Y-33582D01*
X-51997Y-37778D01*
X-48873Y-41741D01*
X-45447Y-45447D01*
X-41741Y-48873D01*
X-40336Y-49980D01*
X-40312Y-50015D01*
X-40174Y-50108D01*
X-37778Y-51997D01*
X-33582Y-54800D01*
X-29179Y-57266D01*
X-24596Y-59379D01*
X-19861Y-61126D01*
X-16138Y-62176D01*
X-16068Y-62715D01*
X-16500Y-63147D01*
X-16797Y-63864D01*
Y-64640D01*
X-16500Y-65356D01*
X-15951Y-65905D01*
X-15235Y-66202D01*
X-14459D01*
X-13742Y-65905D01*
X-13194Y-65356D01*
X-12897Y-64640D01*
Y-63864D01*
X-13095Y-63385D01*
X-12742Y-62946D01*
X-10054Y-63480D01*
X-7100Y-63830D01*
X-6918Y-64355D01*
X-7203Y-64640D01*
X-7500Y-65357D01*
Y-66132D01*
X-7203Y-66849D01*
X-6655Y-67398D01*
X-5938Y-67694D01*
X-5162D01*
X-4446Y-67398D01*
X-4040Y-66992D01*
X-3529Y-67039D01*
X-3466Y-67071D01*
X-3379Y-67281D01*
X-2831Y-67830D01*
X-2114Y-68127D01*
X-1338D01*
X-622Y-67830D01*
X-361Y-67570D01*
X-309Y-67564D01*
X200Y-67716D01*
X414Y-68234D01*
X962Y-68782D01*
X1679Y-69079D01*
X2455D01*
X3172Y-68782D01*
X3720Y-68234D01*
X4017Y-67517D01*
Y-66741D01*
X3720Y-66025D01*
X3172Y-65476D01*
X2455Y-65179D01*
X1679D01*
X962Y-65476D01*
X702Y-65736D01*
X650Y-65742D01*
X141Y-65590D01*
X-73Y-65072D01*
X-389Y-64757D01*
X-173Y-64265D01*
X0Y-64272D01*
X5043Y-64073D01*
X10054Y-63480D01*
X15004Y-62496D01*
X19861Y-61126D01*
X22989Y-59972D01*
X23097Y-59951D01*
X23158Y-59910D01*
X24596Y-59379D01*
X29179Y-57266D01*
X33582Y-54800D01*
X37778Y-51997D01*
X41741Y-48873D01*
X45447Y-45447D01*
X48873Y-41741D01*
X51997Y-37778D01*
X54800Y-33582D01*
X55692Y-31990D01*
X55808Y-31978D01*
X56223Y-32065D01*
X56469Y-32658D01*
X56963Y-33152D01*
X56969Y-33466D01*
X56924Y-33709D01*
X56765Y-33775D01*
X56216Y-34323D01*
X55919Y-35040D01*
Y-35816D01*
X56216Y-36533D01*
X56765Y-37081D01*
X56888Y-37132D01*
X57082Y-37754D01*
X56899Y-38195D01*
Y-38971D01*
X57196Y-39687D01*
X57745Y-40236D01*
X58461Y-40533D01*
X59237D01*
X59954Y-40236D01*
X60502Y-39687D01*
X60799Y-38971D01*
Y-38195D01*
X60502Y-37478D01*
X59954Y-36930D01*
X59830Y-36878D01*
X59636Y-36257D01*
X59819Y-35816D01*
Y-35040D01*
X59522Y-34323D01*
X59028Y-33830D01*
X59022Y-33515D01*
X59067Y-33272D01*
X59227Y-33206D01*
X59775Y-32658D01*
X60072Y-31941D01*
Y-31166D01*
X59775Y-30449D01*
X59227Y-29900D01*
X58510Y-29603D01*
X57734D01*
X57562Y-29675D01*
X57210Y-29279D01*
X57266Y-29179D01*
X59379Y-24596D01*
X61126Y-19861D01*
X62496Y-15004D01*
X63480Y-10054D01*
X64073Y-5043D01*
X64272Y0D01*
X64073Y5043D01*
X63480Y10054D01*
X62496Y15004D01*
X61126Y19861D01*
X60029Y22835D01*
X60410Y23247D01*
X61018D01*
X61734Y23544D01*
X62283Y24092D01*
X62580Y24809D01*
Y25585D01*
X62283Y26301D01*
X61734Y26850D01*
X61018Y27147D01*
X60242D01*
X59525Y26850D01*
X59091Y26416D01*
X58532Y26434D01*
X57646Y28356D01*
X58011Y28759D01*
X58656D01*
X59372Y29056D01*
X59921Y29604D01*
X60218Y30321D01*
Y31097D01*
X59921Y31813D01*
X59372Y32362D01*
X58656Y32659D01*
X57880D01*
X57163Y32362D01*
X56615Y31813D01*
X56508Y31556D01*
X55953Y31523D01*
X55449Y32423D01*
X55784Y32850D01*
X56403D01*
X57120Y33147D01*
X57668Y33695D01*
X57965Y34412D01*
Y35188D01*
X57668Y35904D01*
X57120Y36453D01*
X56403Y36750D01*
X55627D01*
X54911Y36453D01*
X54362Y35904D01*
X54166Y35431D01*
X53603Y35374D01*
X51997Y37778D01*
X48873Y41741D01*
X45447Y45447D01*
X41741Y48873D01*
X40897Y49538D01*
X40894Y49543D01*
X40871Y49558D01*
X37778Y51997D01*
X33582Y54800D01*
X29179Y57266D01*
X24596Y59379D01*
X19861Y61126D01*
X15004Y62496D01*
X10054Y63480D01*
X5043Y64073D01*
X0Y64272D01*
D02*
G37*
G36*
X63814Y-52550D02*
X62170D01*
X60547Y-52807D01*
X58984Y-53315D01*
X57519Y-54061D01*
X56189Y-55027D01*
X55027Y-56189D01*
X54061Y-57519D01*
X53315Y-58984D01*
X52807Y-60547D01*
X52550Y-62170D01*
Y-63814D01*
X52807Y-65437D01*
X53315Y-67001D01*
X54061Y-68465D01*
X55027Y-69795D01*
X56189Y-70957D01*
X57519Y-71923D01*
X58984Y-72670D01*
X60547Y-73177D01*
X62170Y-73435D01*
X63814D01*
X65437Y-73177D01*
X67001Y-72670D01*
X68465Y-71923D01*
X69795Y-70957D01*
X70957Y-69795D01*
X71923Y-68465D01*
X72670Y-67001D01*
X73177Y-65437D01*
X73435Y-63814D01*
Y-62170D01*
X73177Y-60547D01*
X72670Y-58984D01*
X71923Y-57519D01*
X70957Y-56189D01*
X69795Y-55027D01*
X68465Y-54061D01*
X67001Y-53315D01*
X65437Y-52807D01*
X63814Y-52550D01*
D02*
G37*
G36*
X-62170D02*
X-63814D01*
X-65437Y-52807D01*
X-67001Y-53315D01*
X-68465Y-54061D01*
X-69795Y-55027D01*
X-70957Y-56189D01*
X-71923Y-57519D01*
X-72670Y-58984D01*
X-73177Y-60547D01*
X-73435Y-62170D01*
Y-63814D01*
X-73177Y-65437D01*
X-72670Y-67001D01*
X-71923Y-68465D01*
X-70957Y-69795D01*
X-69795Y-70957D01*
X-68465Y-71923D01*
X-67001Y-72670D01*
X-65437Y-73177D01*
X-63814Y-73435D01*
X-62170D01*
X-60547Y-73177D01*
X-58984Y-72670D01*
X-57519Y-71923D01*
X-56189Y-70957D01*
X-55027Y-69795D01*
X-54061Y-68465D01*
X-53315Y-67001D01*
X-52807Y-65437D01*
X-52550Y-63814D01*
Y-62170D01*
X-52807Y-60547D01*
X-53315Y-58984D01*
X-54061Y-57519D01*
X-55027Y-56189D01*
X-56189Y-55027D01*
X-57519Y-54061D01*
X-58984Y-53315D01*
X-60547Y-52807D01*
X-62170Y-52550D01*
D02*
G37*
%LPD*%
G36*
X4846Y61569D02*
X9661Y61000D01*
X14417Y60053D01*
X19085Y58737D01*
X23634Y57059D01*
X28038Y55028D01*
X32269Y52659D01*
X36301Y49965D01*
X37881Y48720D01*
X37918Y48221D01*
X35362Y45503D01*
X34820D01*
X34104Y45206D01*
X33555Y44657D01*
X33258Y43940D01*
Y43165D01*
X33555Y42448D01*
X34104Y41899D01*
X34820Y41603D01*
X35596D01*
X36313Y41899D01*
X36861Y42448D01*
X37158Y43165D01*
Y43841D01*
X40100Y46970D01*
X40110Y46962D01*
X43671Y43671D01*
X46962Y40110D01*
X49965Y36301D01*
X52659Y32269D01*
X55028Y28038D01*
X57059Y23634D01*
X58737Y19085D01*
X60053Y14417D01*
X61000Y9661D01*
X61569Y4846D01*
X61756Y91D01*
X61738Y0D01*
X61756Y-91D01*
X61569Y-4846D01*
X61103Y-8789D01*
X60698Y-9083D01*
X58037Y-8550D01*
X57952Y-8344D01*
X57404Y-7796D01*
X56687Y-7499D01*
X55911D01*
X55195Y-7796D01*
X54646Y-8344D01*
X54349Y-9061D01*
Y-9837D01*
X54646Y-10553D01*
X55195Y-11102D01*
X55911Y-11399D01*
X56687D01*
X57404Y-11102D01*
X57557Y-10949D01*
X60621Y-11563D01*
X60053Y-14417D01*
X58737Y-19085D01*
X57059Y-23634D01*
X55028Y-28038D01*
X52659Y-32269D01*
X49965Y-36301D01*
X46962Y-40110D01*
X43671Y-43671D01*
X40110Y-46962D01*
X36301Y-49965D01*
X32269Y-52659D01*
X28038Y-55028D01*
X23773Y-56995D01*
X23187Y-56863D01*
X21860Y-53410D01*
X22115Y-52796D01*
Y-52020D01*
X21818Y-51303D01*
X21269Y-50755D01*
X20553Y-50458D01*
X19777D01*
X19060Y-50755D01*
X18512Y-51303D01*
X18215Y-52020D01*
Y-52796D01*
X18512Y-53513D01*
X19060Y-54061D01*
X19570Y-54272D01*
X20884Y-57694D01*
X20678Y-58149D01*
X19085Y-58737D01*
X14417Y-60053D01*
X9661Y-61000D01*
X4846Y-61569D01*
X0Y-61760D01*
X-4846Y-61569D01*
X-9661Y-61000D01*
X-14417Y-60053D01*
X-19085Y-58737D01*
X-23634Y-57059D01*
X-28038Y-55028D01*
X-32269Y-52659D01*
X-36301Y-49965D01*
X-37694Y-48867D01*
X-35149Y-45503D01*
X-34820D01*
X-34104Y-45206D01*
X-33555Y-44657D01*
X-33258Y-43940D01*
Y-43165D01*
X-33555Y-42448D01*
X-34104Y-41899D01*
X-34820Y-41603D01*
X-35596D01*
X-36313Y-41899D01*
X-36861Y-42448D01*
X-37158Y-43165D01*
Y-43940D01*
X-37115Y-44045D01*
X-39400Y-47067D01*
X-39896Y-47131D01*
X-40110Y-46962D01*
X-43671Y-43671D01*
X-46962Y-40110D01*
X-49965Y-36301D01*
X-52659Y-32269D01*
X-55028Y-28038D01*
X-57059Y-23634D01*
X-58737Y-19085D01*
X-60053Y-14417D01*
X-61000Y-9661D01*
X-61569Y-4846D01*
X-61760Y0D01*
X-61569Y4846D01*
X-61225Y7752D01*
X-60831Y8059D01*
X-56961Y7559D01*
X-56924Y7470D01*
X-56375Y6921D01*
X-55658Y6624D01*
X-54883D01*
X-54166Y6921D01*
X-53617Y7470D01*
X-53320Y8186D01*
Y8962D01*
X-53617Y9679D01*
X-54166Y10227D01*
X-54883Y10524D01*
X-55658D01*
X-56375Y10227D01*
X-56620Y9983D01*
X-60464Y10479D01*
X-60756Y10885D01*
X-60053Y14417D01*
X-58737Y19085D01*
X-57059Y23634D01*
X-55028Y28038D01*
X-52659Y32269D01*
X-49965Y36301D01*
X-46962Y40110D01*
X-43671Y43671D01*
X-40110Y46962D01*
X-36301Y49965D01*
X-32269Y52659D01*
X-28038Y55028D01*
X-25878Y56024D01*
X-25410Y55849D01*
X-23003Y50513D01*
X-23210Y50013D01*
Y49237D01*
X-22913Y48520D01*
X-22364Y47972D01*
X-21648Y47675D01*
X-20872D01*
X-20155Y47972D01*
X-19607Y48520D01*
X-19310Y49237D01*
Y50013D01*
X-19607Y50729D01*
X-20155Y51278D01*
X-20780Y51537D01*
X-23172Y56840D01*
X-22978Y57301D01*
X-22366Y57527D01*
X-19085Y58737D01*
X-14417Y60053D01*
X-9661Y61000D01*
X-4846Y61569D01*
X0Y61760D01*
X4846Y61569D01*
D02*
G37*
%LPC*%
G36*
X-4930Y55883D02*
X-5706D01*
X-6423Y55586D01*
X-6971Y55038D01*
X-7268Y54321D01*
Y53545D01*
X-6971Y52829D01*
X-6423Y52280D01*
X-5706Y51983D01*
X-4930D01*
X-4213Y52280D01*
X-3665Y52829D01*
X-3368Y53545D01*
Y54321D01*
X-3665Y55038D01*
X-4213Y55586D01*
X-4930Y55883D01*
D02*
G37*
G36*
X22435Y51556D02*
X21659D01*
X20943Y51259D01*
X20394Y50711D01*
X20097Y49994D01*
Y49218D01*
X20394Y48502D01*
X20943Y47953D01*
X21659Y47656D01*
X22435D01*
X23152Y47953D01*
X23700Y48502D01*
X23997Y49218D01*
Y49994D01*
X23700Y50711D01*
X23152Y51259D01*
X22435Y51556D01*
D02*
G37*
G36*
X20342Y45114D02*
X-7350D01*
X-7740Y45037D01*
X-8071Y44815D01*
X-8635Y44251D01*
X-8823Y44439D01*
X-9484Y44713D01*
X-10201D01*
X-10862Y44439D01*
X-11368Y43933D01*
X-11643Y43271D01*
Y42555D01*
X-11442Y42071D01*
X-11699Y41571D01*
X-13041D01*
X-13041Y41571D01*
X-13547Y42077D01*
X-14209Y42351D01*
X-14925D01*
X-15586Y42077D01*
X-16093Y41571D01*
X-16367Y40909D01*
Y40193D01*
X-16093Y39532D01*
X-16313Y39045D01*
X-16477D01*
X-16639Y39435D01*
X-17258Y40054D01*
X-18066Y40389D01*
X-18942D01*
X-19750Y40054D01*
X-20369Y39435D01*
X-20704Y38627D01*
Y37751D01*
X-20369Y36943D01*
X-19880Y36454D01*
Y24586D01*
X-25731Y18735D01*
X-26422D01*
X-27231Y18401D01*
X-27849Y17782D01*
X-28184Y16973D01*
Y16098D01*
X-27849Y15289D01*
X-27231Y14670D01*
X-26422Y14335D01*
X-25547D01*
X-24738Y14670D01*
X-24119Y15289D01*
X-23784Y16098D01*
Y16789D01*
X-17531Y23042D01*
X-17531Y23042D01*
X-17232Y23489D01*
X-17128Y24016D01*
X-17128Y24016D01*
Y36025D01*
X17473D01*
X17815Y36093D01*
X18066Y35989D01*
X18942D01*
X19750Y36324D01*
X20369Y36943D01*
X20704Y37751D01*
Y38627D01*
X20369Y39435D01*
X19750Y40054D01*
X18942Y40389D01*
X18066D01*
X17258Y40054D01*
X16639Y39435D01*
X16367Y38778D01*
X-12869D01*
X-13093Y39276D01*
X-12895Y39532D01*
X-8760D01*
X-8370Y39609D01*
X-8039Y39830D01*
X-6303Y41566D01*
X19295D01*
X22209Y38653D01*
Y38140D01*
X22209Y38140D01*
X21702Y37634D01*
X21428Y36972D01*
Y36256D01*
X21702Y35594D01*
X22209Y35088D01*
X22318Y35043D01*
Y34930D01*
X22396Y34539D01*
X22617Y34209D01*
X38350Y18475D01*
Y5463D01*
X38350Y5463D01*
X37844Y4957D01*
X37570Y4295D01*
Y3579D01*
X37844Y2917D01*
X38350Y2411D01*
X38350Y2411D01*
Y-7156D01*
X37964Y-7542D01*
X37541Y-7259D01*
X37627Y-7051D01*
Y-6335D01*
X37353Y-5673D01*
X36846Y-5167D01*
X36185Y-4893D01*
X35469D01*
X34807Y-5167D01*
X34301Y-5673D01*
X34027Y-6335D01*
Y-7051D01*
X34301Y-7712D01*
X34807Y-8219D01*
X35331Y-8436D01*
Y-23196D01*
X34832Y-23530D01*
X34509Y-23397D01*
X33793D01*
X33132Y-23671D01*
X32625Y-24177D01*
X32351Y-24839D01*
Y-25164D01*
X31686Y-25828D01*
X31601Y-25885D01*
X26026Y-31461D01*
X20898D01*
X20707Y-30999D01*
X25157Y-26549D01*
X25347Y-26090D01*
Y-21729D01*
X25321Y-21668D01*
X25334Y-21602D01*
X25229Y-21445D01*
X25157Y-21270D01*
X25095Y-21244D01*
X25058Y-21189D01*
X24558Y-20855D01*
X24493Y-20842D01*
X24446Y-20795D01*
X24257Y-20795D01*
X24071Y-20758D01*
X24015Y-20795D01*
X23949D01*
X23851Y-20836D01*
X23393D01*
X22970Y-20660D01*
X22647Y-20337D01*
X22471Y-19914D01*
Y-19456D01*
X22647Y-19033D01*
X22887Y-18792D01*
X22979Y-18572D01*
X23077Y-18354D01*
X23097Y-17744D01*
X23093Y-17733D01*
X23097Y-17723D01*
X23006Y-17502D01*
X22921Y-17279D01*
X22911Y-17274D01*
X22907Y-17264D01*
X20439Y-14797D01*
X19980Y-14606D01*
X19645D01*
Y-13894D01*
X19371Y-13232D01*
X18865Y-12726D01*
X18203Y-12452D01*
X17487D01*
X16826Y-12726D01*
X16319Y-13232D01*
X16045Y-13894D01*
Y-14606D01*
X11830D01*
X11670Y-14133D01*
X12103Y-13801D01*
X13801Y-12103D01*
X15262Y-10198D01*
X16463Y-8119D01*
X17382Y-5900D01*
X18003Y-3581D01*
X18316Y-1201D01*
Y1201D01*
X18003Y3581D01*
X17382Y5900D01*
X16463Y8119D01*
X15262Y10198D01*
X13801Y12103D01*
X12103Y13801D01*
X10198Y15262D01*
X8119Y16463D01*
X5900Y17382D01*
X3581Y18003D01*
X1201Y18316D01*
X-1201D01*
X-3581Y18003D01*
X-5900Y17382D01*
X-8119Y16463D01*
X-10198Y15262D01*
X-12103Y13801D01*
X-13801Y12103D01*
X-15262Y10198D01*
X-16463Y8119D01*
X-17382Y5900D01*
X-18003Y3581D01*
X-18091Y2912D01*
X-18565Y2751D01*
X-20572Y4758D01*
X-20541Y5434D01*
X-20313Y5662D01*
X-20039Y6324D01*
Y7040D01*
X-20313Y7701D01*
X-20819Y8208D01*
X-21481Y8482D01*
X-22197D01*
X-22858Y8208D01*
X-23107Y7959D01*
X-23762Y7948D01*
X-30077Y14263D01*
X-30196Y14312D01*
X-30288Y14404D01*
X-30417D01*
X-30536Y14453D01*
X-30655Y14404D01*
X-30784D01*
X-31267Y14204D01*
X-31725D01*
X-32148Y14379D01*
X-32471Y14703D01*
X-32647Y15125D01*
Y15712D01*
X-32690Y15818D01*
X-32690Y15975D01*
X-32737Y16022D01*
X-32750Y16087D01*
X-33028Y16502D01*
X-33084Y16540D01*
X-33109Y16601D01*
X-33284Y16673D01*
X-33441Y16779D01*
X-33507Y16766D01*
X-33568Y16791D01*
X-45669D01*
X-46128Y16601D01*
X-49672Y13058D01*
X-49862Y12598D01*
Y1181D01*
X-49672Y722D01*
X-37165Y-11785D01*
X-37105Y-11931D01*
X-37233Y-12240D01*
Y-12957D01*
X-36959Y-13618D01*
X-36453Y-14124D01*
X-35791Y-14398D01*
X-35075D01*
X-34765Y-14270D01*
X-34620Y-14331D01*
X-26153Y-22797D01*
X-26344Y-23259D01*
X-27824D01*
X-28214Y-23337D01*
X-28545Y-23558D01*
X-28558Y-23571D01*
X-29077D01*
X-29077Y-23571D01*
X-29584Y-23065D01*
X-30245Y-22791D01*
X-30961D01*
X-31623Y-23065D01*
X-32129Y-23571D01*
X-32403Y-24233D01*
Y-24949D01*
X-32129Y-25610D01*
X-31623Y-26117D01*
X-30961Y-26391D01*
X-30371D01*
X-30343Y-26433D01*
Y-27149D01*
X-30069Y-27810D01*
X-29563Y-28317D01*
X-28901Y-28591D01*
X-28185D01*
X-27524Y-28317D01*
X-27017Y-27810D01*
X-26743Y-27149D01*
Y-26807D01*
X-18139D01*
X-16865Y-28081D01*
Y-32397D01*
X-17365Y-32604D01*
X-17484Y-32484D01*
X-18146Y-32210D01*
X-18862D01*
X-19524Y-32484D01*
X-20030Y-32991D01*
X-20304Y-33652D01*
Y-34368D01*
X-20030Y-35030D01*
X-19524Y-35536D01*
X-19523Y-35536D01*
Y-40551D01*
X-19446Y-40941D01*
X-19225Y-41272D01*
X-9382Y-51115D01*
X-9052Y-51336D01*
X-8661Y-51413D01*
X14862D01*
X15252Y-51336D01*
X15583Y-51115D01*
X25383Y-41315D01*
X25465Y-41192D01*
X25611D01*
X26273Y-40917D01*
X26388Y-40803D01*
X26522Y-40830D01*
X35387D01*
X35777Y-40752D01*
X36108Y-40531D01*
X47178Y-29461D01*
X47399Y-29130D01*
X47476Y-28740D01*
Y-6644D01*
X47476Y-6644D01*
X47983Y-6138D01*
X48257Y-5476D01*
Y-4760D01*
X47983Y-4098D01*
X47476Y-3592D01*
X46815Y-3318D01*
X46099D01*
X45437Y-3592D01*
X44931Y-4098D01*
X44657Y-4760D01*
Y-5476D01*
X44931Y-6138D01*
X45437Y-6644D01*
X45437Y-6644D01*
Y-28318D01*
X34965Y-38790D01*
X27241D01*
X27091Y-38526D01*
X27370Y-38026D01*
X30316D01*
X30707Y-37948D01*
X31038Y-37727D01*
X40485Y-28280D01*
X40706Y-27949D01*
X40783Y-27559D01*
Y-23303D01*
X41082Y-23179D01*
X41588Y-22673D01*
X41862Y-22012D01*
Y-21295D01*
X41588Y-20634D01*
X41082Y-20128D01*
X41082Y-20128D01*
Y-10459D01*
X42847Y-8693D01*
X43068Y-8363D01*
X43146Y-7972D01*
Y12254D01*
X43146Y12254D01*
X43652Y12760D01*
X43926Y13421D01*
Y14138D01*
X43652Y14799D01*
X43146Y15305D01*
X43146Y15305D01*
Y18307D01*
X43068Y18697D01*
X42847Y19028D01*
X28864Y33011D01*
X29085Y33232D01*
X29359Y33894D01*
Y34610D01*
X29085Y35272D01*
X28579Y35778D01*
X28579Y35778D01*
Y36878D01*
X28501Y37268D01*
X28280Y37599D01*
X21063Y44815D01*
X20732Y45037D01*
X20342Y45114D01*
D02*
G37*
G36*
X-36407Y47357D02*
X-37183D01*
X-37900Y47060D01*
X-38448Y46511D01*
X-38745Y45795D01*
Y45019D01*
X-38448Y44302D01*
X-37900Y43754D01*
X-37183Y43457D01*
X-36407D01*
X-35691Y43754D01*
X-35190Y44254D01*
X-34899Y44263D01*
X-34635Y44221D01*
X-34558Y44036D01*
X-34009Y43487D01*
X-33293Y43190D01*
X-32517D01*
X-31800Y43487D01*
X-31252Y44036D01*
X-30955Y44752D01*
Y45528D01*
X-31252Y46245D01*
X-31800Y46793D01*
X-32517Y47090D01*
X-33293D01*
X-34009Y46793D01*
X-34510Y46292D01*
X-34801Y46284D01*
X-35065Y46326D01*
X-35142Y46511D01*
X-35691Y47060D01*
X-36407Y47357D01*
D02*
G37*
G36*
X-46532Y36796D02*
X-47307D01*
X-48024Y36499D01*
X-48572Y35950D01*
X-48869Y35234D01*
Y34458D01*
X-48572Y33741D01*
X-48024Y33193D01*
X-47307Y32896D01*
X-46532D01*
X-45815Y33193D01*
X-45266Y33741D01*
X-44969Y34458D01*
Y35234D01*
X-45266Y35950D01*
X-45815Y36499D01*
X-46532Y36796D01*
D02*
G37*
G36*
X45720Y34765D02*
X44944D01*
X44227Y34469D01*
X43679Y33920D01*
X43382Y33203D01*
Y32428D01*
X43679Y31711D01*
X44227Y31162D01*
X44944Y30865D01*
X45720D01*
X46437Y31162D01*
X46985Y31711D01*
X47282Y32428D01*
Y33203D01*
X46985Y33920D01*
X46437Y34469D01*
X45720Y34765D01*
D02*
G37*
G36*
X-36Y24635D02*
X-752D01*
X-1413Y24361D01*
X-1920Y23854D01*
X-2194Y23193D01*
Y22477D01*
X-1920Y21815D01*
X-1413Y21309D01*
X-752Y21035D01*
X-36D01*
X626Y21309D01*
X1132Y21815D01*
X1406Y22477D01*
Y23193D01*
X1132Y23854D01*
X626Y24361D01*
X-36Y24635D01*
D02*
G37*
G36*
X-50742Y24546D02*
X-51518D01*
X-52234Y24249D01*
X-52783Y23700D01*
X-53080Y22984D01*
Y22208D01*
X-52783Y21491D01*
X-52234Y20943D01*
X-51518Y20646D01*
X-50742D01*
X-50025Y20943D01*
X-49477Y21491D01*
X-49180Y22208D01*
Y22984D01*
X-49477Y23700D01*
X-50025Y24249D01*
X-50742Y24546D01*
D02*
G37*
G36*
X5655Y24015D02*
X4939D01*
X4278Y23741D01*
X3771Y23235D01*
X3497Y22573D01*
Y21857D01*
X3771Y21196D01*
X4278Y20689D01*
X4939Y20415D01*
X5655D01*
X6317Y20689D01*
X6823Y21196D01*
X7097Y21857D01*
Y22573D01*
X6823Y23235D01*
X6317Y23741D01*
X5655Y24015D01*
D02*
G37*
G36*
X-5702Y23819D02*
X-6418D01*
X-7080Y23545D01*
X-7586Y23039D01*
X-7860Y22377D01*
Y21661D01*
X-7586Y21000D01*
X-7080Y20493D01*
X-6418Y20219D01*
X-5702D01*
X-5040Y20493D01*
X-4534Y21000D01*
X-4260Y21661D01*
Y22377D01*
X-4534Y23039D01*
X-5040Y23545D01*
X-5702Y23819D01*
D02*
G37*
G36*
X11014Y22000D02*
X10298D01*
X9636Y21726D01*
X9130Y21219D01*
X8856Y20558D01*
Y19842D01*
X9130Y19180D01*
X9636Y18674D01*
X10298Y18400D01*
X11014D01*
X11675Y18674D01*
X12182Y19180D01*
X12456Y19842D01*
Y20558D01*
X12182Y21219D01*
X11675Y21726D01*
X11014Y22000D01*
D02*
G37*
G36*
X-10988Y21621D02*
X-11704D01*
X-12365Y21346D01*
X-12872Y20840D01*
X-13146Y20178D01*
Y19463D01*
X-12872Y18801D01*
X-12365Y18294D01*
X-11704Y18021D01*
X-10988D01*
X-10326Y18294D01*
X-9820Y18801D01*
X-9546Y19463D01*
Y20178D01*
X-9820Y20840D01*
X-10326Y21346D01*
X-10988Y21621D01*
D02*
G37*
G36*
X15702Y18715D02*
X14986D01*
X14325Y18441D01*
X13818Y17935D01*
X13544Y17273D01*
Y16557D01*
X13818Y15896D01*
X14325Y15389D01*
X14986Y15115D01*
X15702D01*
X16364Y15389D01*
X16870Y15896D01*
X17144Y16557D01*
Y17273D01*
X16870Y17935D01*
X16364Y18441D01*
X15702Y18715D01*
D02*
G37*
G36*
X-15560Y18176D02*
X-16276D01*
X-16938Y17902D01*
X-17444Y17396D01*
X-17718Y16734D01*
Y16018D01*
X-17444Y15357D01*
X-16938Y14850D01*
X-16276Y14576D01*
X-15560D01*
X-14899Y14850D01*
X-14392Y15357D01*
X-14118Y16018D01*
Y16734D01*
X-14392Y17396D01*
X-14899Y17902D01*
X-15560Y18176D01*
D02*
G37*
G36*
X19427Y14368D02*
X18711D01*
X18049Y14094D01*
X17543Y13588D01*
X17269Y12926D01*
Y12210D01*
X17543Y11548D01*
X18049Y11042D01*
X18711Y10768D01*
X19427D01*
X20089Y11042D01*
X20595Y11548D01*
X20869Y12210D01*
Y12926D01*
X20595Y13588D01*
X20089Y14094D01*
X19427Y14368D01*
D02*
G37*
G36*
X-19133Y13703D02*
X-19849D01*
X-20511Y13429D01*
X-21017Y12923D01*
X-21291Y12261D01*
Y11545D01*
X-21017Y10883D01*
X-20511Y10377D01*
X-19849Y10103D01*
X-19133D01*
X-18471Y10377D01*
X-17965Y10883D01*
X-17691Y11545D01*
Y12261D01*
X-17965Y12923D01*
X-18471Y13429D01*
X-19133Y13703D01*
D02*
G37*
G36*
X57210Y10553D02*
X56434D01*
X55717Y10256D01*
X55169Y9708D01*
X54872Y8991D01*
Y8215D01*
X55169Y7498D01*
X55717Y6950D01*
X56434Y6653D01*
X57210D01*
X57926Y6950D01*
X58475Y7498D01*
X58772Y8215D01*
Y8991D01*
X58475Y9708D01*
X57926Y10256D01*
X57210Y10553D01*
D02*
G37*
G36*
X21953Y9231D02*
X21237D01*
X20576Y8957D01*
X20069Y8450D01*
X19795Y7789D01*
Y7073D01*
X20069Y6411D01*
X20576Y5905D01*
X21237Y5631D01*
X21953D01*
X22615Y5905D01*
X23121Y6411D01*
X23395Y7073D01*
Y7789D01*
X23121Y8450D01*
X22615Y8957D01*
X21953Y9231D01*
D02*
G37*
G36*
X23123Y3627D02*
X22407D01*
X21745Y3353D01*
X21239Y2846D01*
X20965Y2185D01*
Y1469D01*
X21239Y807D01*
X21745Y301D01*
X22407Y27D01*
X23123D01*
X23785Y301D01*
X24291Y807D01*
X24565Y1469D01*
Y2185D01*
X24291Y2846D01*
X23785Y3353D01*
X23123Y3627D01*
D02*
G37*
G36*
X22862Y-2092D02*
X22146D01*
X21484Y-2366D01*
X20978Y-2872D01*
X20704Y-3534D01*
Y-4250D01*
X20978Y-4912D01*
X21484Y-5418D01*
X22146Y-5692D01*
X22862D01*
X23524Y-5418D01*
X24030Y-4912D01*
X24304Y-4250D01*
Y-3534D01*
X24030Y-2872D01*
X23524Y-2366D01*
X22862Y-2092D01*
D02*
G37*
G36*
X-55253Y-4091D02*
X-56029D01*
X-56746Y-4388D01*
X-57294Y-4936D01*
X-57591Y-5653D01*
Y-6429D01*
X-57543Y-6545D01*
X-57860Y-7085D01*
X-58388Y-7304D01*
X-58937Y-7852D01*
X-59233Y-8569D01*
Y-9345D01*
X-58937Y-10061D01*
X-58388Y-10610D01*
X-57671Y-10907D01*
X-56896D01*
X-56179Y-10610D01*
X-55630Y-10061D01*
X-55536Y-9834D01*
X-54995D01*
X-54901Y-10061D01*
X-54353Y-10610D01*
X-53636Y-10907D01*
X-52860D01*
X-52143Y-10610D01*
X-51595Y-10061D01*
X-51298Y-9345D01*
Y-8569D01*
X-51595Y-7852D01*
X-52143Y-7304D01*
X-52860Y-7007D01*
X-53389D01*
X-53736Y-6557D01*
X-53739Y-6545D01*
X-53691Y-6429D01*
Y-5653D01*
X-53988Y-4936D01*
X-54536Y-4388D01*
X-55253Y-4091D01*
D02*
G37*
G36*
X21187Y-7566D02*
X20471D01*
X19809Y-7840D01*
X19303Y-8347D01*
X19029Y-9008D01*
Y-9724D01*
X19303Y-10386D01*
X19809Y-10892D01*
X20471Y-11166D01*
X21187D01*
X21849Y-10892D01*
X22355Y-10386D01*
X22629Y-9724D01*
Y-9008D01*
X22355Y-8347D01*
X21849Y-7840D01*
X21187Y-7566D01*
D02*
G37*
G36*
X51569Y-20786D02*
X50793D01*
X50077Y-21083D01*
X49528Y-21632D01*
X49231Y-22348D01*
Y-23124D01*
X49528Y-23841D01*
X50077Y-24389D01*
X50793Y-24686D01*
X51569D01*
X52286Y-24389D01*
X52834Y-23841D01*
X53131Y-23124D01*
Y-22348D01*
X52834Y-21632D01*
X52286Y-21083D01*
X51569Y-20786D01*
D02*
G37*
G36*
X-44842Y-31146D02*
X-45617D01*
X-46334Y-31443D01*
X-46883Y-31992D01*
X-47179Y-32709D01*
Y-33484D01*
X-46883Y-34201D01*
X-46334Y-34750D01*
X-45617Y-35046D01*
X-44842D01*
X-44125Y-34750D01*
X-43576Y-34201D01*
X-43279Y-33484D01*
Y-32709D01*
X-43576Y-31992D01*
X-44125Y-31443D01*
X-44842Y-31146D01*
D02*
G37*
G36*
X-24839Y-32058D02*
X-25555D01*
X-26217Y-32332D01*
X-26723Y-32839D01*
X-26997Y-33500D01*
Y-34216D01*
X-26723Y-34878D01*
X-26217Y-35384D01*
X-25555Y-35658D01*
X-24839D01*
X-24177Y-35384D01*
X-23671Y-34878D01*
X-23397Y-34216D01*
Y-33500D01*
X-23671Y-32839D01*
X-24177Y-32332D01*
X-24839Y-32058D01*
D02*
G37*
G36*
X46244Y-35058D02*
X45468D01*
X44751Y-35355D01*
X44203Y-35903D01*
X43906Y-36620D01*
Y-37396D01*
X44203Y-38113D01*
X44751Y-38661D01*
X45468Y-38958D01*
X46244D01*
X46960Y-38661D01*
X47509Y-38113D01*
X47806Y-37396D01*
Y-36620D01*
X47509Y-35903D01*
X46960Y-35355D01*
X46244Y-35058D01*
D02*
G37*
G36*
X-22338Y-49677D02*
X-23114D01*
X-23831Y-49974D01*
X-24379Y-50522D01*
X-24676Y-51239D01*
Y-52015D01*
X-24379Y-52732D01*
X-23831Y-53280D01*
X-23114Y-53577D01*
X-22790D01*
X-22583Y-54077D01*
X-22716Y-54210D01*
X-23013Y-54927D01*
Y-55703D01*
X-22716Y-56419D01*
X-22168Y-56968D01*
X-21451Y-57265D01*
X-20675D01*
X-19958Y-56968D01*
X-19410Y-56419D01*
X-19113Y-55703D01*
Y-54927D01*
X-19243Y-54614D01*
X-19034Y-54114D01*
X-18318Y-53817D01*
X-17769Y-53268D01*
X-17472Y-52552D01*
Y-51776D01*
X-17769Y-51059D01*
X-18318Y-50511D01*
X-19034Y-50214D01*
X-19810D01*
X-20527Y-50511D01*
X-20627Y-50611D01*
X-21073Y-50522D01*
X-21621Y-49974D01*
X-22338Y-49677D01*
D02*
G37*
G36*
X6786Y-55334D02*
X6010D01*
X5293Y-55630D01*
X4744Y-56179D01*
X4448Y-56896D01*
Y-57671D01*
X4744Y-58388D01*
X5293Y-58937D01*
X6010Y-59233D01*
X6786D01*
X7502Y-58937D01*
X8051Y-58388D01*
X8348Y-57671D01*
Y-56896D01*
X8051Y-56179D01*
X7502Y-55630D01*
X6786Y-55334D01*
D02*
G37*
%LPD*%
G36*
X-33290Y15726D02*
X-33296Y15712D01*
Y14996D01*
X-33022Y14335D01*
X-32516Y13828D01*
X-31854Y13554D01*
X-31138D01*
X-30536Y13804D01*
X-23639Y6906D01*
Y6324D01*
X-23365Y5662D01*
X-22858Y5156D01*
X-22197Y4882D01*
X-21614D01*
X-18272Y1540D01*
X-18316Y1201D01*
Y-1201D01*
X-18003Y-3581D01*
X-17382Y-5900D01*
X-16463Y-8119D01*
X-15262Y-10198D01*
X-13801Y-12103D01*
X-12103Y-13801D01*
X-10198Y-15262D01*
X-8119Y-16463D01*
X-5900Y-17382D01*
X-3581Y-18003D01*
X-1201Y-18316D01*
X1201D01*
X3581Y-18003D01*
X5900Y-17382D01*
X8119Y-16463D01*
X10198Y-15262D01*
X10206Y-15256D01*
X16313D01*
X16319Y-15272D01*
X16826Y-15778D01*
X17487Y-16052D01*
X18203D01*
X18865Y-15778D01*
X19371Y-15272D01*
X19378Y-15256D01*
X19980D01*
X22448Y-17723D01*
X22428Y-18333D01*
X22096Y-18665D01*
X21822Y-19327D01*
Y-20043D01*
X22096Y-20705D01*
X22602Y-21211D01*
X23264Y-21485D01*
X23980D01*
X24197Y-21395D01*
X24698Y-21729D01*
Y-26090D01*
X19390Y-31398D01*
X16595D01*
X16261Y-30898D01*
X16419Y-30518D01*
Y-29742D01*
X16122Y-29026D01*
X15573Y-28477D01*
X14856Y-28180D01*
X14081D01*
X13364Y-28477D01*
X12869Y-28972D01*
X12558Y-28979D01*
X12312Y-28934D01*
X12283Y-28864D01*
X11734Y-28315D01*
X11018Y-28018D01*
X10242D01*
X9525Y-28315D01*
X8977Y-28864D01*
X8680Y-29580D01*
Y-30356D01*
X8904Y-30898D01*
X8648Y-31398D01*
X7617D01*
X7393Y-30898D01*
X7639Y-30302D01*
Y-29526D01*
X7343Y-28810D01*
X6794Y-28261D01*
X6077Y-27964D01*
X5302D01*
X4585Y-28261D01*
X4036Y-28810D01*
X3881Y-29185D01*
X3340D01*
X3228Y-28915D01*
X2679Y-28367D01*
X1963Y-28070D01*
X1187D01*
X470Y-28367D01*
X-78Y-28915D01*
X-205Y-29220D01*
X-794Y-29337D01*
X-949Y-29183D01*
X-1610Y-28909D01*
X-2327D01*
X-2988Y-29183D01*
X-3494Y-29689D01*
X-3768Y-30351D01*
Y-30898D01*
X-4131Y-31398D01*
X-5563D01*
X-5851Y-31278D01*
X-6567D01*
X-6855Y-31398D01*
X-9618D01*
X-10016Y-31000D01*
X-10678Y-30726D01*
X-11394D01*
X-12055Y-31000D01*
X-12453Y-31398D01*
X-13317D01*
Y-27034D01*
X-13395Y-26644D01*
X-13616Y-26313D01*
X-16371Y-23558D01*
X-16702Y-23337D01*
X-17092Y-23259D01*
X-24772D01*
X-34160Y-13871D01*
X-33907Y-13618D01*
X-33633Y-12957D01*
Y-12240D01*
X-33907Y-11579D01*
X-34413Y-11073D01*
X-35075Y-10798D01*
X-35791D01*
X-36453Y-11073D01*
X-36706Y-11326D01*
X-49213Y1181D01*
Y12598D01*
X-45669Y16142D01*
X-33568D01*
X-33290Y15726D01*
D02*
G37*
G36*
X-16228Y-34427D02*
X-12927Y-37727D01*
X-12596Y-37948D01*
X-12206Y-38026D01*
X23420D01*
X23664Y-38526D01*
X23453Y-39033D01*
Y-39750D01*
X23632Y-40182D01*
X14440Y-49374D01*
X-8239D01*
X-17484Y-40129D01*
Y-35536D01*
X-17484Y-35536D01*
X-16978Y-35030D01*
X-16789Y-34573D01*
X-16272Y-34421D01*
X-16228Y-34427D01*
D02*
G37*
%LPC*%
G36*
X-39799Y10855D02*
X-40516D01*
X-41177Y10581D01*
X-41683Y10075D01*
X-41958Y9413D01*
Y8697D01*
X-41683Y8036D01*
X-41177Y7529D01*
X-40516Y7255D01*
X-39799D01*
X-39138Y7529D01*
X-38631Y8036D01*
X-38357Y8697D01*
Y9413D01*
X-38631Y10075D01*
X-39138Y10581D01*
X-39799Y10855D01*
D02*
G37*
G36*
X-22456Y2841D02*
X-23172D01*
X-23834Y2567D01*
X-24340Y2060D01*
X-24614Y1399D01*
Y683D01*
X-24340Y21D01*
X-23834Y-485D01*
X-23172Y-759D01*
X-22456D01*
X-21795Y-485D01*
X-21288Y21D01*
X-21014Y683D01*
Y1399D01*
X-21288Y2060D01*
X-21795Y2567D01*
X-22456Y2841D01*
D02*
G37*
G36*
X-40782Y762D02*
X-41658D01*
X-42466Y427D01*
X-43085Y-192D01*
X-43420Y-1001D01*
Y-1876D01*
X-43085Y-2685D01*
X-42466Y-3303D01*
X-41658Y-3638D01*
X-40782D01*
X-39974Y-3303D01*
X-39355Y-2685D01*
X-39020Y-1876D01*
Y-1001D01*
X-39355Y-192D01*
X-39974Y427D01*
X-40782Y762D01*
D02*
G37*
G36*
X-33106Y-2137D02*
X-33823D01*
X-34484Y-2411D01*
X-34991Y-2917D01*
X-35265Y-3579D01*
Y-4295D01*
X-34991Y-4957D01*
X-34484Y-5463D01*
X-33823Y-5737D01*
X-33106D01*
X-32445Y-5463D01*
X-31939Y-4957D01*
X-31665Y-4295D01*
Y-3579D01*
X-31939Y-2917D01*
X-32445Y-2411D01*
X-33106Y-2137D01*
D02*
G37*
G36*
X-21998Y-2866D02*
X-22714D01*
X-23376Y-3139D01*
X-23882Y-3646D01*
X-24156Y-4307D01*
Y-5024D01*
X-23882Y-5685D01*
X-23376Y-6191D01*
X-22714Y-6465D01*
X-21998D01*
X-21337Y-6191D01*
X-20830Y-5685D01*
X-20556Y-5024D01*
Y-4307D01*
X-20830Y-3646D01*
X-21337Y-3139D01*
X-21998Y-2866D01*
D02*
G37*
G36*
X-20136Y-8279D02*
X-20852D01*
X-21513Y-8553D01*
X-22020Y-9059D01*
X-22294Y-9721D01*
Y-10437D01*
X-22020Y-11098D01*
X-21513Y-11605D01*
X-20852Y-11879D01*
X-20136D01*
X-19474Y-11605D01*
X-18968Y-11098D01*
X-18694Y-10437D01*
Y-9721D01*
X-18968Y-9059D01*
X-19474Y-8553D01*
X-20136Y-8279D01*
D02*
G37*
G36*
X-29169Y-10011D02*
X-29886D01*
X-30547Y-10285D01*
X-31054Y-10791D01*
X-31328Y-11453D01*
Y-12169D01*
X-31054Y-12831D01*
X-30547Y-13337D01*
X-29886Y-13611D01*
X-29169D01*
X-28508Y-13337D01*
X-28002Y-12831D01*
X-27728Y-12169D01*
Y-11453D01*
X-28002Y-10791D01*
X-28508Y-10285D01*
X-29169Y-10011D01*
D02*
G37*
G36*
X-16985Y-13059D02*
X-17702D01*
X-18363Y-13333D01*
X-18869Y-13839D01*
X-19143Y-14501D01*
Y-15217D01*
X-18869Y-15878D01*
X-18363Y-16385D01*
X-17702Y-16659D01*
X-16985D01*
X-16324Y-16385D01*
X-15818Y-15878D01*
X-15543Y-15217D01*
Y-14501D01*
X-15818Y-13839D01*
X-16324Y-13333D01*
X-16985Y-13059D01*
D02*
G37*
G36*
X14098Y-16442D02*
X13382D01*
X12721Y-16716D01*
X12214Y-17223D01*
X11940Y-17884D01*
Y-18600D01*
X12214Y-19262D01*
X12721Y-19768D01*
X13382Y-20042D01*
X14098D01*
X14760Y-19768D01*
X15266Y-19262D01*
X15540Y-18600D01*
Y-17884D01*
X15266Y-17223D01*
X14760Y-16716D01*
X14098Y-16442D01*
D02*
G37*
G36*
X-12745Y-16905D02*
X-13461D01*
X-14123Y-17179D01*
X-14629Y-17685D01*
X-14903Y-18347D01*
Y-19063D01*
X-14629Y-19725D01*
X-14123Y-20231D01*
X-13461Y-20505D01*
X-12745D01*
X-12084Y-20231D01*
X-11577Y-19725D01*
X-11303Y-19063D01*
Y-18347D01*
X-11577Y-17685D01*
X-12084Y-17179D01*
X-12745Y-16905D01*
D02*
G37*
G36*
X9130Y-19286D02*
X8414D01*
X7752Y-19560D01*
X7246Y-20067D01*
X6972Y-20728D01*
Y-21444D01*
X7246Y-22106D01*
X7752Y-22612D01*
X8414Y-22886D01*
X9130D01*
X9792Y-22612D01*
X10298Y-22106D01*
X10572Y-21444D01*
Y-20728D01*
X10298Y-20067D01*
X9792Y-19560D01*
X9130Y-19286D01*
D02*
G37*
G36*
X-7682Y-19576D02*
X-8398D01*
X-9060Y-19850D01*
X-9566Y-20356D01*
X-9840Y-21018D01*
Y-21734D01*
X-9566Y-22396D01*
X-9060Y-22902D01*
X-8398Y-23176D01*
X-7682D01*
X-7020Y-22902D01*
X-6514Y-22396D01*
X-6240Y-21734D01*
Y-21018D01*
X-6514Y-20356D01*
X-7020Y-19850D01*
X-7682Y-19576D01*
D02*
G37*
G36*
X3611Y-20805D02*
X2895D01*
X2233Y-21079D01*
X1727Y-21586D01*
X1453Y-22247D01*
Y-22963D01*
X1727Y-23625D01*
X2233Y-24131D01*
X2895Y-24405D01*
X3611D01*
X4272Y-24131D01*
X4778Y-23625D01*
X5052Y-22963D01*
Y-22247D01*
X4778Y-21586D01*
X4272Y-21079D01*
X3611Y-20805D01*
D02*
G37*
G36*
X-2113Y-20904D02*
X-2829D01*
X-3491Y-21178D01*
X-3997Y-21684D01*
X-4271Y-22346D01*
Y-23062D01*
X-3997Y-23724D01*
X-3491Y-24230D01*
X-2829Y-24504D01*
X-2113D01*
X-1452Y-24230D01*
X-945Y-23724D01*
X-671Y-23062D01*
Y-22346D01*
X-945Y-21684D01*
X-1452Y-21178D01*
X-2113Y-20904D01*
D02*
G37*
G36*
X16697Y-23790D02*
X15980D01*
X15319Y-24065D01*
X14813Y-24571D01*
X14539Y-25232D01*
Y-25949D01*
X14813Y-26610D01*
X15319Y-27117D01*
X15980Y-27391D01*
X16697D01*
X17358Y-27117D01*
X17864Y-26610D01*
X18139Y-25949D01*
Y-25232D01*
X17864Y-24571D01*
X17358Y-24065D01*
X16697Y-23790D01*
D02*
G37*
%LPD*%
D41*
X56299Y-9449D02*
X62092Y-10610D01*
X35208Y43553D02*
X40007Y48657D01*
X20165Y-52408D02*
X22617Y-58792D01*
X-24963Y57835D02*
X-21260Y49625D01*
X-62275Y9480D02*
X-55270Y8574D01*
X-39426Y-49129D02*
X-35208Y-43553D01*
D44*
X-18504Y24016D02*
Y38189D01*
X-25984Y16535D02*
X-18504Y24016D01*
Y38189D02*
X-18179D01*
X-17392Y37402D01*
X18260Y38189D02*
X18504D01*
X-17392Y37402D02*
X17473D01*
X18260Y38189D01*
D45*
X38096Y-8852D02*
G03*
X37862Y-9418I566J-566D01*
G01*
X29692Y-35498D02*
X33552Y-31637D01*
X-11581Y-35498D02*
X29692D01*
X33552Y-30621D02*
X33858Y-30315D01*
X33552Y-31637D02*
Y-30621D01*
X34164Y-30009D02*
X35149D01*
X37860Y-27298D02*
Y-25466D01*
X35149Y-30009D02*
X37860Y-27298D01*
X37862Y-25463D02*
Y-9418D01*
X37860Y-25466D02*
X37862Y-25463D01*
X14862Y-50394D02*
X24662Y-40594D01*
Y-40416D02*
X25314Y-39764D01*
X25492D02*
X25558Y-39698D01*
X25253Y-39525D02*
Y-39391D01*
X24662Y-40594D02*
Y-40416D01*
X25558Y-39698D02*
X26410D01*
X-8661Y-50394D02*
X14862D01*
X25314Y-39764D02*
X25492D01*
X26410Y-39698D02*
X26522Y-39810D01*
X25253Y-39525D02*
X25492Y-39764D01*
X26522Y-39810D02*
X35387D01*
X46457Y-28740D01*
X32350Y-26606D02*
X33760Y-25197D01*
X26448Y-32480D02*
X32322Y-26606D01*
X34445Y-28115D02*
X36351Y-26209D01*
X33760Y-25197D02*
X34151D01*
X36351Y-26209D02*
Y-7961D01*
X32947Y-28115D02*
X34445D01*
X27073Y-33989D02*
X32947Y-28115D01*
X36133Y-7743D02*
X36351Y-7961D01*
X35827Y-6693D02*
X36133Y-6999D01*
Y-7743D02*
Y-6999D01*
X-8225Y43220D02*
X-7350Y44094D01*
X20342D01*
X27559Y36878D01*
Y34252D02*
Y36878D01*
X23228Y36614D02*
Y39075D01*
X19717Y42586D02*
X23228Y39075D01*
X-6725Y42586D02*
X19717D01*
X-9536Y43220D02*
X-8225D01*
X-1969Y-31142D02*
X-630Y-32480D01*
X26448D01*
X-1969Y-31142D02*
Y-30709D01*
X-14336Y-32743D02*
Y-27034D01*
X-17092Y-24279D02*
X-14336Y-27034D01*
X-28543Y-26791D02*
X-28203D01*
X-30603Y-24591D02*
X-28136D01*
X-27824Y-24279D01*
X-28203Y-26791D02*
X-27199Y-25787D01*
X-27824Y-24279D02*
X-17092D01*
X-27199Y-25787D02*
X-17717D01*
X-15845Y-33367D02*
X-12206Y-37006D01*
X-15845Y-33367D02*
Y-27659D01*
X-17717Y-25787D02*
X-15845Y-27659D01*
X-14336Y-32743D02*
X-11581Y-35498D01*
X-18504Y-40551D02*
Y-34010D01*
X-12206Y-37006D02*
X30316D01*
X38096Y-8852D02*
X39370Y-7579D01*
X42126Y13780D02*
Y18307D01*
Y-7972D02*
Y13780D01*
X39370Y3937D02*
Y18898D01*
Y-7579D02*
Y3937D01*
X-6209Y-33084D02*
Y-33078D01*
Y-33084D02*
X-5450Y-33843D01*
X-5305D01*
X30316Y-37006D02*
X39764Y-27559D01*
Y-21952D01*
X32322Y-26606D02*
X32350D01*
X-5160Y-33989D02*
X27073D01*
X40062Y-21654D02*
Y-10036D01*
X42126Y-7972D01*
X23338Y34930D02*
X39370Y18898D01*
X-8760Y40551D02*
X-6725Y42586D01*
X-14567Y40551D02*
X-8760D01*
X-9843Y42913D02*
X-9536Y43220D01*
X27767Y32666D02*
Y34044D01*
X27559Y34252D02*
X27767Y34044D01*
Y32666D02*
X42126Y18307D01*
X23338Y34930D02*
Y36505D01*
X-5305Y-33843D02*
X-5160Y-33989D01*
X-18504Y-40551D02*
X-8661Y-50394D01*
X39764Y-21952D02*
X40062Y-21654D01*
X23228Y36614D02*
X23338Y36505D01*
X46457Y-28740D02*
Y-5118D01*
D48*
X-3062Y-44882D02*
D03*
X0Y-47944D02*
D03*
X0Y-41820D02*
D03*
X3062Y-44882D02*
D03*
X64960Y49213D02*
D03*
X67913Y-51181D02*
D03*
X59055Y49213D02*
D03*
X62008Y43307D02*
D03*
X59055Y37402D02*
D03*
X62008Y31496D02*
D03*
Y-39370D02*
D03*
Y-51181D02*
D03*
X53149Y49213D02*
D03*
X56102Y43307D02*
D03*
Y-51181D02*
D03*
X50197Y66929D02*
D03*
X47244Y61023D02*
D03*
X50197Y55118D02*
D03*
Y-62992D02*
D03*
X41339Y61023D02*
D03*
X44291Y55118D02*
D03*
Y-62992D02*
D03*
X35433Y61023D02*
D03*
Y13779D02*
D03*
Y1968D02*
D03*
X32480Y31496D02*
D03*
Y19685D02*
D03*
X29527Y13779D02*
D03*
X32480Y7874D02*
D03*
X29527Y1968D02*
D03*
X32480Y-3937D02*
D03*
X29527Y-9843D02*
D03*
X23622Y25590D02*
D03*
X26575Y19685D02*
D03*
X20669Y31496D02*
D03*
X17716Y25590D02*
D03*
X14764Y66929D02*
D03*
Y31496D02*
D03*
X8858D02*
D03*
X2953Y66929D02*
D03*
X-2953D02*
D03*
X-14764D02*
D03*
X-29528Y-21654D02*
D03*
X-35433Y61023D02*
D03*
X-41339D02*
D03*
X-47244D02*
D03*
X-44291Y55118D02*
D03*
Y-62992D02*
D03*
X-50197Y66929D02*
D03*
Y55118D02*
D03*
X-53150Y49213D02*
D03*
Y-45276D02*
D03*
X-50197Y-51181D02*
D03*
Y-62992D02*
D03*
X-59055Y49213D02*
D03*
X-56103Y43307D02*
D03*
X-59055Y37402D02*
D03*
Y-45276D02*
D03*
X-56103Y-51181D02*
D03*
X-64961Y49213D02*
D03*
X-62008Y43307D02*
D03*
Y31496D02*
D03*
Y-27559D02*
D03*
Y-39370D02*
D03*
Y-51181D02*
D03*
X-67914D02*
D03*
X25253Y-39391D02*
D03*
X34151Y-25197D02*
D03*
X-18799Y-27987D02*
D03*
X-28543Y-26791D02*
D03*
X-18504Y-34010D02*
D03*
X-30603Y-24591D02*
D03*
X-34941Y-31004D02*
D03*
X-9843Y-66929D02*
D03*
X-1969Y-30709D02*
D03*
X-6209Y-33078D02*
D03*
X7087Y53937D02*
D03*
X19685Y-39370D02*
D03*
X23622Y-19685D02*
D03*
X27559Y-15748D02*
D03*
X33465D02*
D03*
X-1969Y40157D02*
D03*
X11811D02*
D03*
X-22441Y33465D02*
D03*
X-25591Y22047D02*
D03*
X-31496Y15354D02*
D03*
X33858Y-30315D02*
D03*
X39370Y3937D02*
D03*
X-9843Y42913D02*
D03*
X40062Y-21654D02*
D03*
X46457Y-5118D02*
D03*
X35827Y-6693D02*
D03*
X42126Y13780D02*
D03*
X27559Y34252D02*
D03*
X23228Y36614D02*
D03*
X-14567Y40551D02*
D03*
D49*
X20472Y-25984D02*
D03*
X-40866Y14177D02*
D03*
X-44094Y14173D02*
D03*
X-25984Y16535D02*
D03*
X18504Y38189D02*
D03*
X-18504D02*
D03*
X22933Y-23819D02*
D03*
D50*
X56299Y-9449D02*
D03*
X-21260Y49625D02*
D03*
X20165Y-52408D02*
D03*
X-35208Y-43553D02*
D03*
X-55270Y8574D02*
D03*
X35208Y43553D02*
D03*
D52*
X62992Y0D02*
G03*
X40007Y48657I-62992J0D01*
G01*
X22617Y-58792D02*
G03*
X62254Y-9616I-22617J58792D01*
G01*
X40007Y48657D02*
G03*
X-22826Y58711I-40007J-48657D01*
G01*
D02*
G03*
X-62275Y9480I22826J-58711D01*
G01*
X-39426Y-49129D02*
G03*
X22617Y-58792I39426J49129D01*
G01*
X-62275Y9480D02*
G03*
X-39426Y-49129I62275J-9480D01*
G01*
X62254Y-9616D02*
G03*
X62992Y0I-62254J9616D01*
G01*
M02*
