G04*
G04 #@! TF.GenerationSoftware,Altium Limited,Altium Designer,21.8.1 (53)*
G04*
G04 Layer_Physical_Order=1*
G04 Layer_Color=255*
%FSLAX25Y25*%
%MOIN*%
G70*
G04*
G04 #@! TF.SameCoordinates,509546C8-056D-42BE-A314-9817B2043C00*
G04*
G04*
G04 #@! TF.FilePolarity,Positive*
G04*
G01*
G75*
G04:AMPARAMS|DCode=13|XSize=33.47mil|YSize=31.5mil|CornerRadius=3.94mil|HoleSize=0mil|Usage=FLASHONLY|Rotation=75.000|XOffset=0mil|YOffset=0mil|HoleType=Round|Shape=RoundedRectangle|*
%AMROUNDEDRECTD13*
21,1,0.03347,0.02362,0,0,75.0*
21,1,0.02559,0.03150,0,0,75.0*
1,1,0.00787,0.01472,0.00930*
1,1,0.00787,0.00810,-0.01542*
1,1,0.00787,-0.01472,-0.00930*
1,1,0.00787,-0.00810,0.01542*
%
%ADD13ROUNDEDRECTD13*%
G04:AMPARAMS|DCode=14|XSize=33.47mil|YSize=31.5mil|CornerRadius=3.94mil|HoleSize=0mil|Usage=FLASHONLY|Rotation=90.000|XOffset=0mil|YOffset=0mil|HoleType=Round|Shape=RoundedRectangle|*
%AMROUNDEDRECTD14*
21,1,0.03347,0.02362,0,0,90.0*
21,1,0.02559,0.03150,0,0,90.0*
1,1,0.00787,0.01181,0.01280*
1,1,0.00787,0.01181,-0.01280*
1,1,0.00787,-0.01181,-0.01280*
1,1,0.00787,-0.01181,0.01280*
%
%ADD14ROUNDEDRECTD14*%
G04:AMPARAMS|DCode=15|XSize=33.47mil|YSize=31.5mil|CornerRadius=3.94mil|HoleSize=0mil|Usage=FLASHONLY|Rotation=105.000|XOffset=0mil|YOffset=0mil|HoleType=Round|Shape=RoundedRectangle|*
%AMROUNDEDRECTD15*
21,1,0.03347,0.02362,0,0,105.0*
21,1,0.02559,0.03150,0,0,105.0*
1,1,0.00787,0.00810,0.01542*
1,1,0.00787,0.01472,-0.00930*
1,1,0.00787,-0.00810,-0.01542*
1,1,0.00787,-0.01472,0.00930*
%
%ADD15ROUNDEDRECTD15*%
G04:AMPARAMS|DCode=16|XSize=33.47mil|YSize=31.5mil|CornerRadius=3.94mil|HoleSize=0mil|Usage=FLASHONLY|Rotation=120.000|XOffset=0mil|YOffset=0mil|HoleType=Round|Shape=RoundedRectangle|*
%AMROUNDEDRECTD16*
21,1,0.03347,0.02362,0,0,120.0*
21,1,0.02559,0.03150,0,0,120.0*
1,1,0.00787,0.00383,0.01699*
1,1,0.00787,0.01663,-0.00518*
1,1,0.00787,-0.00383,-0.01699*
1,1,0.00787,-0.01663,0.00518*
%
%ADD16ROUNDEDRECTD16*%
G04:AMPARAMS|DCode=17|XSize=33.47mil|YSize=31.5mil|CornerRadius=3.94mil|HoleSize=0mil|Usage=FLASHONLY|Rotation=135.000|XOffset=0mil|YOffset=0mil|HoleType=Round|Shape=RoundedRectangle|*
%AMROUNDEDRECTD17*
21,1,0.03347,0.02362,0,0,135.0*
21,1,0.02559,0.03150,0,0,135.0*
1,1,0.00787,-0.00070,0.01740*
1,1,0.00787,0.01740,-0.00070*
1,1,0.00787,0.00070,-0.01740*
1,1,0.00787,-0.01740,0.00070*
%
%ADD17ROUNDEDRECTD17*%
G04:AMPARAMS|DCode=18|XSize=33.47mil|YSize=31.5mil|CornerRadius=3.94mil|HoleSize=0mil|Usage=FLASHONLY|Rotation=150.000|XOffset=0mil|YOffset=0mil|HoleType=Round|Shape=RoundedRectangle|*
%AMROUNDEDRECTD18*
21,1,0.03347,0.02362,0,0,150.0*
21,1,0.02559,0.03150,0,0,150.0*
1,1,0.00787,-0.00518,0.01663*
1,1,0.00787,0.01699,0.00383*
1,1,0.00787,0.00518,-0.01663*
1,1,0.00787,-0.01699,-0.00383*
%
%ADD18ROUNDEDRECTD18*%
G04:AMPARAMS|DCode=19|XSize=33.47mil|YSize=31.5mil|CornerRadius=3.94mil|HoleSize=0mil|Usage=FLASHONLY|Rotation=165.000|XOffset=0mil|YOffset=0mil|HoleType=Round|Shape=RoundedRectangle|*
%AMROUNDEDRECTD19*
21,1,0.03347,0.02362,0,0,165.0*
21,1,0.02559,0.03150,0,0,165.0*
1,1,0.00787,-0.00930,0.01472*
1,1,0.00787,0.01542,0.00810*
1,1,0.00787,0.00930,-0.01472*
1,1,0.00787,-0.01542,-0.00810*
%
%ADD19ROUNDEDRECTD19*%
G04:AMPARAMS|DCode=20|XSize=33.47mil|YSize=31.5mil|CornerRadius=3.94mil|HoleSize=0mil|Usage=FLASHONLY|Rotation=180.000|XOffset=0mil|YOffset=0mil|HoleType=Round|Shape=RoundedRectangle|*
%AMROUNDEDRECTD20*
21,1,0.03347,0.02362,0,0,180.0*
21,1,0.02559,0.03150,0,0,180.0*
1,1,0.00787,-0.01280,0.01181*
1,1,0.00787,0.01280,0.01181*
1,1,0.00787,0.01280,-0.01181*
1,1,0.00787,-0.01280,-0.01181*
%
%ADD20ROUNDEDRECTD20*%
G04:AMPARAMS|DCode=21|XSize=33.47mil|YSize=31.5mil|CornerRadius=3.94mil|HoleSize=0mil|Usage=FLASHONLY|Rotation=195.000|XOffset=0mil|YOffset=0mil|HoleType=Round|Shape=RoundedRectangle|*
%AMROUNDEDRECTD21*
21,1,0.03347,0.02362,0,0,195.0*
21,1,0.02559,0.03150,0,0,195.0*
1,1,0.00787,-0.01542,0.00810*
1,1,0.00787,0.00930,0.01472*
1,1,0.00787,0.01542,-0.00810*
1,1,0.00787,-0.00930,-0.01472*
%
%ADD21ROUNDEDRECTD21*%
G04:AMPARAMS|DCode=22|XSize=33.47mil|YSize=31.5mil|CornerRadius=3.94mil|HoleSize=0mil|Usage=FLASHONLY|Rotation=210.000|XOffset=0mil|YOffset=0mil|HoleType=Round|Shape=RoundedRectangle|*
%AMROUNDEDRECTD22*
21,1,0.03347,0.02362,0,0,210.0*
21,1,0.02559,0.03150,0,0,210.0*
1,1,0.00787,-0.01699,0.00383*
1,1,0.00787,0.00518,0.01663*
1,1,0.00787,0.01699,-0.00383*
1,1,0.00787,-0.00518,-0.01663*
%
%ADD22ROUNDEDRECTD22*%
G04:AMPARAMS|DCode=23|XSize=33.47mil|YSize=31.5mil|CornerRadius=3.94mil|HoleSize=0mil|Usage=FLASHONLY|Rotation=225.000|XOffset=0mil|YOffset=0mil|HoleType=Round|Shape=RoundedRectangle|*
%AMROUNDEDRECTD23*
21,1,0.03347,0.02362,0,0,225.0*
21,1,0.02559,0.03150,0,0,225.0*
1,1,0.00787,-0.01740,-0.00070*
1,1,0.00787,0.00070,0.01740*
1,1,0.00787,0.01740,0.00070*
1,1,0.00787,-0.00070,-0.01740*
%
%ADD23ROUNDEDRECTD23*%
G04:AMPARAMS|DCode=24|XSize=33.47mil|YSize=31.5mil|CornerRadius=3.94mil|HoleSize=0mil|Usage=FLASHONLY|Rotation=240.000|XOffset=0mil|YOffset=0mil|HoleType=Round|Shape=RoundedRectangle|*
%AMROUNDEDRECTD24*
21,1,0.03347,0.02362,0,0,240.0*
21,1,0.02559,0.03150,0,0,240.0*
1,1,0.00787,-0.01663,-0.00518*
1,1,0.00787,-0.00383,0.01699*
1,1,0.00787,0.01663,0.00518*
1,1,0.00787,0.00383,-0.01699*
%
%ADD24ROUNDEDRECTD24*%
%ADD39C,0.01221*%
%ADD40C,0.01200*%
%ADD41C,0.01200*%
%ADD42C,0.01378*%
%ADD43C,0.01221*%
%ADD44C,0.01500*%
%ADD45C,0.00800*%
%ADD46C,0.55118*%
%ADD47C,0.19685*%
%ADD48C,0.02400*%
%ADD49C,0.03200*%
%ADD50C,0.02700*%
%ADD51C,0.02559*%
G36*
X65012Y75743D02*
X66981Y75270D01*
X68853Y74495D01*
X70580Y73436D01*
X72121Y72121D01*
X73436Y70580D01*
X74495Y68853D01*
X75270Y66981D01*
X75743Y65012D01*
X75902Y62992D01*
X75743Y60973D01*
X75270Y59003D01*
X74495Y57131D01*
X73436Y55404D01*
X72447Y54246D01*
X72120Y53884D01*
X71841Y53635D01*
X71759Y53543D01*
X69769Y51316D01*
X67970Y48780D01*
X66466Y46059D01*
X65276Y43186D01*
X64415Y40198D01*
X63894Y37132D01*
X63720Y34027D01*
X63894Y30923D01*
X64415Y27857D01*
X65276Y24869D01*
X65494Y24342D01*
X65494Y24342D01*
X65504Y24313D01*
X65505Y24307D01*
X65507Y24305D01*
X65659Y23874D01*
X67053Y19688D01*
X68286Y14855D01*
X69172Y9945D01*
X69705Y4985D01*
X69883Y0D01*
X69705Y-4985D01*
X69172Y-9945D01*
X68286Y-14855D01*
X67053Y-19688D01*
X65659Y-23874D01*
X65507Y-24305D01*
X65505Y-24307D01*
X65494Y-24342D01*
X65494Y-24342D01*
X65276Y-24869D01*
X64415Y-27857D01*
X63894Y-30923D01*
X63720Y-34027D01*
X63894Y-37132D01*
X64415Y-40198D01*
X65276Y-43186D01*
X66466Y-46059D01*
X67970Y-48780D01*
X69769Y-51316D01*
X71759Y-53543D01*
X71841Y-53635D01*
X72120Y-53884D01*
X72447Y-54246D01*
X73436Y-55404D01*
X74495Y-57131D01*
X75270Y-59003D01*
X75743Y-60973D01*
X75902Y-62992D01*
X75743Y-65012D01*
X75270Y-66981D01*
X74495Y-68853D01*
X73436Y-70580D01*
X72121Y-72121D01*
X70580Y-73436D01*
X68853Y-74495D01*
X66981Y-75270D01*
X65012Y-75743D01*
X62992Y-75902D01*
X60973Y-75743D01*
X59003Y-75270D01*
X57131Y-74495D01*
X55404Y-73436D01*
X54246Y-72447D01*
X53884Y-72120D01*
X53635Y-71841D01*
X53543Y-71759D01*
X51316Y-69769D01*
X48780Y-67970D01*
X46059Y-66466D01*
X43186Y-65276D01*
X40198Y-64415D01*
X37132Y-63894D01*
X34027Y-63720D01*
X30923Y-63894D01*
X27857Y-64415D01*
X24869Y-65276D01*
X24342Y-65494D01*
X24342Y-65494D01*
X24313Y-65504D01*
X24307Y-65505D01*
X24305Y-65507D01*
X23874Y-65659D01*
X19688Y-67053D01*
X14855Y-68286D01*
X9945Y-69172D01*
X4985Y-69705D01*
X0Y-69883D01*
X-4985Y-69705D01*
X-9945Y-69172D01*
X-14855Y-68286D01*
X-19688Y-67053D01*
X-23874Y-65659D01*
X-24305Y-65507D01*
X-24307Y-65505D01*
X-24342Y-65494D01*
X-24342Y-65494D01*
X-24869Y-65276D01*
X-27857Y-64415D01*
X-30923Y-63894D01*
X-34027Y-63720D01*
X-37132Y-63894D01*
X-40198Y-64415D01*
X-43186Y-65276D01*
X-46059Y-66466D01*
X-48780Y-67970D01*
X-51316Y-69769D01*
X-53543Y-71759D01*
X-53635Y-71841D01*
X-53884Y-72120D01*
X-54246Y-72447D01*
X-55404Y-73436D01*
X-57131Y-74495D01*
X-59003Y-75270D01*
X-60973Y-75743D01*
X-62992Y-75902D01*
X-65012Y-75743D01*
X-66981Y-75270D01*
X-68853Y-74495D01*
X-70580Y-73436D01*
X-72121Y-72121D01*
X-73436Y-70580D01*
X-74495Y-68853D01*
X-75270Y-66981D01*
X-75743Y-65012D01*
X-75902Y-62992D01*
X-75743Y-60973D01*
X-75270Y-59003D01*
X-74495Y-57131D01*
X-73436Y-55404D01*
X-72447Y-54246D01*
X-72120Y-53884D01*
X-71841Y-53635D01*
X-71759Y-53543D01*
X-69769Y-51316D01*
X-67970Y-48780D01*
X-66466Y-46059D01*
X-65276Y-43186D01*
X-64415Y-40198D01*
X-63894Y-37132D01*
X-63720Y-34027D01*
X-63894Y-30923D01*
X-64415Y-27857D01*
X-65276Y-24869D01*
X-65494Y-24342D01*
X-65494Y-24342D01*
X-65504Y-24313D01*
X-65505Y-24307D01*
X-65507Y-24305D01*
X-65659Y-23874D01*
X-67053Y-19688D01*
X-68286Y-14855D01*
X-69172Y-9945D01*
X-69705Y-4985D01*
X-69883Y0D01*
X-69705Y4985D01*
X-69172Y9945D01*
X-68286Y14855D01*
X-67053Y19688D01*
X-65659Y23874D01*
X-65507Y24305D01*
X-65505Y24307D01*
X-65494Y24342D01*
X-65494Y24342D01*
X-65276Y24869D01*
X-64415Y27857D01*
X-63894Y30923D01*
X-63720Y34027D01*
X-63894Y37132D01*
X-64415Y40198D01*
X-65276Y43186D01*
X-66466Y46059D01*
X-67970Y48780D01*
X-69769Y51316D01*
X-71759Y53543D01*
X-71841Y53635D01*
X-72120Y53884D01*
X-72447Y54246D01*
X-73436Y55404D01*
X-74495Y57131D01*
X-75270Y59003D01*
X-75743Y60973D01*
X-75902Y62992D01*
X-75743Y65012D01*
X-75270Y66981D01*
X-74495Y68853D01*
X-73436Y70580D01*
X-72121Y72121D01*
X-70580Y73436D01*
X-68853Y74495D01*
X-66981Y75270D01*
X-65012Y75743D01*
X-62992Y75902D01*
X-60973Y75743D01*
X-59003Y75270D01*
X-57131Y74495D01*
X-55404Y73436D01*
X-54246Y72447D01*
X-53884Y72120D01*
X-53635Y71841D01*
X-53543Y71759D01*
X-51316Y69769D01*
X-48780Y67970D01*
X-46059Y66466D01*
X-43186Y65276D01*
X-40198Y64415D01*
X-37132Y63894D01*
X-34027Y63720D01*
X-30923Y63894D01*
X-27857Y64415D01*
X-24869Y65276D01*
X-24342Y65494D01*
X-24342Y65494D01*
X-24313Y65504D01*
X-24307Y65505D01*
X-24305Y65507D01*
X-23874Y65659D01*
X-19688Y67053D01*
X-14855Y68286D01*
X-9945Y69172D01*
X-4985Y69705D01*
X0Y69883D01*
X4985Y69705D01*
X9945Y69172D01*
X14855Y68286D01*
X19688Y67053D01*
X23874Y65659D01*
X24305Y65507D01*
X24307Y65505D01*
X24342Y65494D01*
X24342Y65494D01*
X24869Y65276D01*
X27857Y64415D01*
X30923Y63894D01*
X34027Y63720D01*
X37132Y63894D01*
X40198Y64415D01*
X43186Y65276D01*
X46059Y66466D01*
X48780Y67970D01*
X51316Y69769D01*
X53543Y71759D01*
X53635Y71841D01*
X53884Y72120D01*
X54246Y72447D01*
X55404Y73436D01*
X57131Y74495D01*
X59003Y75270D01*
X60973Y75743D01*
X62992Y75902D01*
X65012Y75743D01*
D02*
G37*
%LPC*%
G36*
X-11642Y65949D02*
X-13425Y65809D01*
X-14270Y65606D01*
X-14764Y65529D01*
X-14766Y65529D01*
X-15245Y65386D01*
X-16296Y65177D01*
X-18989Y64417D01*
X-19464Y64299D01*
X-19465Y64299D01*
Y64299D01*
X-23483Y62961D01*
X-27915Y61125D01*
X-32204Y58978D01*
X-35484Y57033D01*
X-35484Y57033D01*
X-35910Y56780D01*
X-36330Y56530D01*
X-40270Y53795D01*
X-44005Y50785D01*
X-47516Y47516D01*
X-48834Y46101D01*
X-48914Y46047D01*
X-48991Y45932D01*
X-50785Y44005D01*
X-52640Y41704D01*
X-53003D01*
X-53720Y41407D01*
X-54268Y40858D01*
X-54565Y40142D01*
Y39366D01*
X-54268Y38649D01*
X-53720Y38101D01*
X-53003Y37804D01*
X-52227D01*
X-51511Y38101D01*
X-50962Y38649D01*
X-50665Y39366D01*
Y40142D01*
X-50685Y40189D01*
X-49224Y42042D01*
X-48825Y42474D01*
X-48285Y42321D01*
X-48262Y42206D01*
X-48043Y41877D01*
X-46233Y40067D01*
X-45904Y39848D01*
X-45701Y39807D01*
X-45505Y39320D01*
X-45504Y39297D01*
X-47497Y37304D01*
X-47763Y36907D01*
X-47828Y36580D01*
X-48024Y36499D01*
X-48572Y35950D01*
X-48869Y35234D01*
Y34458D01*
X-48572Y33741D01*
X-48024Y33193D01*
X-47307Y32896D01*
X-46532D01*
X-45815Y33193D01*
X-45266Y33741D01*
X-44969Y34458D01*
Y35234D01*
X-45266Y35950D01*
X-45328Y36012D01*
X-44053Y37288D01*
X-43449Y37284D01*
X-41640Y35474D01*
X-41311Y35254D01*
X-40923Y35177D01*
X-40535Y35254D01*
X-40207Y35474D01*
X-40198Y35482D01*
X-37998Y33384D01*
X-38775Y32536D01*
X-41463Y29033D01*
X-43253Y26224D01*
X-43715Y26377D01*
X-43604Y27218D01*
X-43651Y27575D01*
X-43682Y27813D01*
X-43680Y27828D01*
X-43715Y28060D01*
X-43770Y28210D01*
X-43781Y28227D01*
X-43806Y28289D01*
X-43814Y28298D01*
X-43902Y28510D01*
X-44039Y28842D01*
X-44554Y29514D01*
X-44692Y29620D01*
X-44672Y29655D01*
X-44545Y30030D01*
X-44570Y30424D01*
X-44745Y30779D01*
X-45042Y31039D01*
X-47259Y32319D01*
X-47633Y32446D01*
X-48028Y32420D01*
X-48382Y32245D01*
X-48643Y31948D01*
X-49078Y31194D01*
X-49596Y31297D01*
X-49662Y31801D01*
X-49994Y32603D01*
X-50275Y32969D01*
X-50170Y33278D01*
X-50196Y33672D01*
X-50371Y34027D01*
X-50668Y34287D01*
X-52884Y35567D01*
X-53259Y35694D01*
X-53653Y35668D01*
X-54008Y35493D01*
X-54268Y35196D01*
X-55449Y33150D01*
X-55577Y32776D01*
X-55554Y32436D01*
X-55572Y32344D01*
X-55819Y31918D01*
X-56173Y31743D01*
X-56434Y31446D01*
X-57615Y29400D01*
X-57742Y29026D01*
X-57716Y28631D01*
X-57541Y28276D01*
X-57558Y27777D01*
X-57718Y27654D01*
X-57722Y27653D01*
X-59364Y26704D01*
X-59426Y26650D01*
X-59899Y26397D01*
X-61328Y25225D01*
X-62501Y23796D01*
X-63372Y22165D01*
X-63561Y21542D01*
X-63696Y21341D01*
X-63713Y21255D01*
X-63704Y21252D01*
X-64476Y18932D01*
X-65405Y15290D01*
X-65405Y15290D01*
X-65662Y14284D01*
X-66514Y9563D01*
X-67027Y4794D01*
X-67198Y0D01*
X-67124Y-2076D01*
X-67143Y-2173D01*
X-67135Y-2214D01*
X-67135D01*
X-67115Y-2312D01*
X-67027Y-4794D01*
X-66514Y-9563D01*
X-65662Y-14284D01*
X-64674Y-18157D01*
X-64942Y-18805D01*
Y-19581D01*
X-64645Y-20298D01*
X-64097Y-20846D01*
X-63380Y-21143D01*
X-62604D01*
X-61888Y-20846D01*
X-61350Y-20309D01*
X-61057Y-20566D01*
X-60682Y-20693D01*
X-60288Y-20667D01*
X-57816Y-20005D01*
X-57461Y-19830D01*
X-57201Y-19533D01*
X-57074Y-19159D01*
X-57099Y-18764D01*
X-57711Y-16483D01*
X-57886Y-16128D01*
X-58183Y-15867D01*
X-58311Y-15391D01*
X-58304Y-15298D01*
X-58195Y-14976D01*
X-58220Y-14581D01*
X-58513Y-13488D01*
X-57753Y-12065D01*
X-57575Y-11478D01*
X-57509Y-11468D01*
X-56986Y-11805D01*
X-56375Y-14087D01*
X-56200Y-14441D01*
X-55903Y-14702D01*
X-55775Y-15178D01*
X-55782Y-15271D01*
X-55891Y-15594D01*
X-55865Y-15988D01*
X-55254Y-18270D01*
X-55079Y-18624D01*
X-54782Y-18885D01*
X-54408Y-19012D01*
X-54013Y-18986D01*
X-51541Y-18324D01*
X-51187Y-18149D01*
X-50926Y-17852D01*
X-50799Y-17477D01*
X-50825Y-17083D01*
X-50849Y-16993D01*
X-48307Y-16145D01*
X-47861Y-16372D01*
X-47565Y-17312D01*
X-45875Y-21392D01*
X-43836Y-25309D01*
X-41463Y-29033D01*
X-41199Y-29378D01*
X-41592Y-29687D01*
X-42481Y-28584D01*
X-44177Y-26141D01*
X-44451Y-25747D01*
X-44617Y-25582D01*
X-44617Y-25582D01*
X-44641Y-25566D01*
X-44918Y-25205D01*
X-45713Y-24595D01*
X-46640Y-24211D01*
X-47634Y-24080D01*
X-47872Y-24112D01*
X-48018Y-23859D01*
X-48279Y-23562D01*
X-48633Y-23387D01*
X-49028Y-23361D01*
X-49402Y-23488D01*
X-51618Y-24768D01*
X-51916Y-25028D01*
X-52090Y-25383D01*
X-52116Y-25777D01*
X-51989Y-26152D01*
X-50833Y-28155D01*
X-50854Y-28209D01*
X-51312Y-28498D01*
X-52030Y-28200D01*
X-53094Y-28060D01*
X-53644Y-27107D01*
X-53904Y-26810D01*
X-54259Y-26635D01*
X-54654Y-26609D01*
X-55028Y-26736D01*
X-57244Y-28016D01*
X-57541Y-28276D01*
X-57716Y-28631D01*
X-57742Y-29026D01*
X-57615Y-29400D01*
X-56434Y-31446D01*
X-56173Y-31743D01*
X-55819Y-31918D01*
X-55572Y-32344D01*
X-55554Y-32436D01*
X-55577Y-32776D01*
X-55449Y-33150D01*
X-54268Y-35196D01*
X-54008Y-35493D01*
X-53653Y-35668D01*
X-53259Y-35694D01*
X-52834Y-35958D01*
X-52808Y-36159D01*
X-52809Y-36162D01*
Y-38059D01*
X-52830D01*
X-52649Y-39899D01*
X-52113Y-41668D01*
X-51241Y-43298D01*
X-50433Y-44283D01*
X-50198Y-44571D01*
X-50140Y-44660D01*
X-50139Y-44662D01*
X-50134Y-44666D01*
X-49795Y-45017D01*
X-47227Y-47795D01*
X-46302Y-48650D01*
X-46000Y-48947D01*
X-45980Y-48978D01*
X-45946Y-49000D01*
X-45946Y-49000D01*
X-45895Y-49034D01*
X-45572Y-49326D01*
X-44005Y-50785D01*
X-40270Y-53795D01*
X-36330Y-56530D01*
X-32204Y-58978D01*
X-31654Y-59254D01*
X-31654Y-59254D01*
X-27915Y-61125D01*
X-23483Y-62961D01*
X-18932Y-64476D01*
X-16620Y-65066D01*
X-16500Y-65356D01*
X-15951Y-65905D01*
X-15235Y-66202D01*
X-14459D01*
X-13742Y-65905D01*
X-13194Y-65356D01*
X-12897Y-64640D01*
Y-63864D01*
X-12940Y-63760D01*
X-12717Y-63160D01*
X-12420Y-62899D01*
X-12245Y-62545D01*
X-11583Y-60073D01*
X-11557Y-59678D01*
X-11684Y-59304D01*
X-11945Y-59007D01*
X-12299Y-58832D01*
X-14581Y-58220D01*
X-14976Y-58195D01*
X-15298Y-58304D01*
X-15391Y-58311D01*
X-15867Y-58183D01*
X-16128Y-57886D01*
X-16483Y-57711D01*
X-18764Y-57099D01*
X-19024Y-57082D01*
X-19166Y-56940D01*
X-19205Y-56914D01*
X-19485Y-56495D01*
X-19410Y-56419D01*
X-19113Y-55703D01*
Y-55280D01*
X-18624Y-55079D01*
X-18270Y-55254D01*
X-15988Y-55865D01*
X-15594Y-55891D01*
X-15271Y-55782D01*
X-15178Y-55775D01*
X-14702Y-55903D01*
X-14441Y-56200D01*
X-14087Y-56375D01*
X-11805Y-56986D01*
X-11411Y-57012D01*
X-11036Y-56885D01*
X-10739Y-56624D01*
X-10564Y-56270D01*
X-9902Y-53798D01*
X-9876Y-53404D01*
X-10003Y-53029D01*
X-10264Y-52732D01*
X-10618Y-52557D01*
X-10622Y-52556D01*
X-9900Y-49628D01*
X-4789Y-50472D01*
X-3125Y-50636D01*
X-2633Y-50732D01*
X-2609Y-50742D01*
X-2589Y-50720D01*
X-2146Y-51060D01*
X-2143Y-51659D01*
X-2152Y-51665D01*
X-2197Y-51684D01*
X-2348Y-51796D01*
X-2443Y-51888D01*
X-2959Y-52560D01*
X-3283Y-53342D01*
X-3305Y-53514D01*
X-3347D01*
X-3734Y-53592D01*
X-4063Y-53811D01*
X-4282Y-54140D01*
X-4360Y-54528D01*
Y-57087D01*
X-4282Y-57474D01*
X-4232Y-57550D01*
Y-57925D01*
X-5805Y-59498D01*
X-6071Y-59895D01*
X-6164Y-60364D01*
Y-63888D01*
X-6655Y-64091D01*
X-7203Y-64640D01*
X-7500Y-65357D01*
Y-66132D01*
X-7203Y-66849D01*
X-6655Y-67398D01*
X-5938Y-67694D01*
X-5162D01*
X-4446Y-67398D01*
X-4040Y-66992D01*
X-3529Y-67039D01*
X-3466Y-67071D01*
X-3379Y-67281D01*
X-2831Y-67830D01*
X-2114Y-68127D01*
X-1338D01*
X-622Y-67830D01*
X-361Y-67570D01*
X-309Y-67564D01*
X200Y-67716D01*
X414Y-68234D01*
X962Y-68782D01*
X1679Y-69079D01*
X2455D01*
X3172Y-68782D01*
X3720Y-68234D01*
X4017Y-67517D01*
Y-67054D01*
X4794Y-67027D01*
X9563Y-66514D01*
X14284Y-65662D01*
X18932Y-64476D01*
X23483Y-62961D01*
X27915Y-61125D01*
X32204Y-58978D01*
X35484Y-57033D01*
X36330Y-56530D01*
X40270Y-53795D01*
X44005Y-50785D01*
X45807Y-49107D01*
X45836Y-49088D01*
X45843Y-49095D01*
X45879Y-49072D01*
X45904Y-49035D01*
X46193Y-48743D01*
X46193Y-48743D01*
X47686Y-47250D01*
X47689Y-47250D01*
X47690Y-47251D01*
X48208Y-46576D01*
X48537Y-45782D01*
X48649Y-44930D01*
X48610Y-44637D01*
X48585Y-44444D01*
X48586Y-44441D01*
X48547Y-44152D01*
X48457Y-43790D01*
X48457Y-43790D01*
X48388Y-43687D01*
X48089Y-43240D01*
X48262Y-42981D01*
X48339Y-42594D01*
X48262Y-42206D01*
X48043Y-41877D01*
X46233Y-40067D01*
X45994Y-39908D01*
X45879Y-39521D01*
X45865Y-39337D01*
X45915Y-39280D01*
X45994Y-39201D01*
X46030Y-39147D01*
X46194Y-38958D01*
X46244D01*
X46960Y-38661D01*
X47509Y-38113D01*
X47806Y-37396D01*
Y-37137D01*
X48306Y-36996D01*
X48408Y-37163D01*
X49689Y-38662D01*
X49953Y-38910D01*
X50675Y-39392D01*
X51595Y-39575D01*
X51595Y-39575D01*
X51595Y-39575D01*
Y-39575D01*
X52085Y-39555D01*
X57141D01*
X57196Y-39687D01*
X57745Y-40236D01*
X58461Y-40533D01*
X59237D01*
X59954Y-40236D01*
X60502Y-39687D01*
X60799Y-38971D01*
Y-38195D01*
X60502Y-37478D01*
X59954Y-36930D01*
X59830Y-36878D01*
X59636Y-36257D01*
X59819Y-35816D01*
Y-35040D01*
X59522Y-34323D01*
X59028Y-33830D01*
X59022Y-33515D01*
X59067Y-33272D01*
X59227Y-33206D01*
X59775Y-32658D01*
X60072Y-31941D01*
Y-31166D01*
X59812Y-30538D01*
X61125Y-27915D01*
X62961Y-23483D01*
X64476Y-18932D01*
X65405Y-15290D01*
X65405D01*
X65528Y-14809D01*
X65662Y-14284D01*
X66514Y-9563D01*
X67027Y-4794D01*
X67198Y0D01*
X67124Y2076D01*
X67143Y2173D01*
X67135Y2214D01*
X67135D01*
X67115Y2312D01*
X67027Y4794D01*
X66514Y9563D01*
X65662Y14284D01*
X64995Y16899D01*
X64989Y16981D01*
X64973Y17042D01*
X64848Y17526D01*
X64848D01*
X64523Y18310D01*
X64007Y18983D01*
X63334Y19499D01*
X63334Y19499D01*
X63188Y19567D01*
X63157Y19573D01*
X62891Y19682D01*
X62551Y19823D01*
X61712Y19934D01*
X61539Y19911D01*
X61529Y19951D01*
X61354Y20306D01*
X61057Y20566D01*
X60682Y20693D01*
X60288Y20667D01*
X57816Y20005D01*
X57461Y19830D01*
X57201Y19533D01*
X57074Y19159D01*
X57099Y18764D01*
X57711Y16483D01*
X57886Y16128D01*
X58183Y15867D01*
X58311Y15391D01*
X58304Y15298D01*
X58195Y14976D01*
X58220Y14581D01*
X58757Y12577D01*
X58758Y12566D01*
X58765Y12548D01*
X58770Y12529D01*
X58772Y12507D01*
X58781Y12488D01*
X58832Y12299D01*
X59007Y11945D01*
X59304Y11684D01*
X59678Y11557D01*
X59895Y11571D01*
X60172Y11151D01*
X60183Y11102D01*
X60183Y10634D01*
X60183Y8878D01*
X60183Y8634D01*
X60162Y8624D01*
X60161D01*
X60177Y8374D01*
X60196Y8277D01*
X60153Y7920D01*
X60091Y7605D01*
X59878Y7287D01*
X59680Y7049D01*
X59557Y6967D01*
X59283Y6730D01*
X59283Y6730D01*
X59251Y6681D01*
X59252Y6673D01*
X59205Y6612D01*
X58443Y5619D01*
X57995Y4536D01*
X57505Y4297D01*
X57031Y4469D01*
Y6153D01*
X57022Y6196D01*
X57113Y6653D01*
X57210D01*
X57926Y6950D01*
X58475Y7498D01*
X58772Y8215D01*
Y8991D01*
X58475Y9708D01*
X57926Y10256D01*
X57210Y10553D01*
X57126D01*
X56885Y11036D01*
X57012Y11410D01*
X56986Y11805D01*
X56375Y14087D01*
X56200Y14441D01*
X55903Y14702D01*
X55775Y15178D01*
X55782Y15271D01*
X55891Y15594D01*
X55865Y15988D01*
X55254Y18270D01*
X55079Y18624D01*
X54782Y18885D01*
X54408Y19012D01*
X54013Y18986D01*
X51541Y18324D01*
X51187Y18149D01*
X50926Y17852D01*
X50799Y17477D01*
X50825Y17083D01*
X50841Y17022D01*
X48284Y16209D01*
X47840Y16439D01*
X47565Y17312D01*
X45875Y21392D01*
X43836Y25309D01*
X42238Y27817D01*
X42556Y28249D01*
X42606Y28235D01*
X44001Y26226D01*
X44270Y25839D01*
X44270Y25839D01*
X44272Y25837D01*
X44563Y25550D01*
X44585Y25528D01*
X44572Y25541D01*
X44605Y25508D01*
X44741Y25372D01*
X44585Y25528D01*
X44787Y25325D01*
X45094Y25009D01*
X45094Y25009D01*
X45839Y24438D01*
X46707Y24079D01*
X47638Y23956D01*
Y23956D01*
X48072Y23797D01*
X48279Y23562D01*
X48633Y23387D01*
X49028Y23361D01*
X49402Y23488D01*
X49922Y23789D01*
X50352Y23359D01*
X50352Y23359D01*
X50349Y23356D01*
X51029Y22834D01*
X51821Y22506D01*
X52671Y22394D01*
X52671Y22394D01*
Y22399D01*
X52671Y22399D01*
X56572D01*
X56572Y22399D01*
X59055D01*
X59523Y22492D01*
X59920Y22757D01*
X60410Y23247D01*
X61018D01*
X61734Y23544D01*
X62283Y24092D01*
X62580Y24809D01*
Y25585D01*
X62283Y26301D01*
X61734Y26850D01*
X61018Y27147D01*
X60242D01*
X59525Y26850D01*
X58977Y26301D01*
X58680Y25585D01*
Y24977D01*
X58548Y24846D01*
X56572D01*
X56572Y24846D01*
X52671D01*
X52671Y24846D01*
Y24856D01*
X52386Y24913D01*
X52093Y25205D01*
X52104Y25591D01*
X52116Y25777D01*
X51989Y26152D01*
X51582Y26856D01*
X51930Y27253D01*
X52044Y27206D01*
X52756Y27113D01*
X52757Y27113D01*
X52758Y27112D01*
X53603Y27112D01*
X53603Y27089D01*
X53652Y27098D01*
X53904Y26810D01*
X54259Y26635D01*
X54654Y26609D01*
X55028Y26736D01*
X57244Y28016D01*
X57541Y28276D01*
X57716Y28631D01*
X57718Y28658D01*
X57880Y28759D01*
X58656D01*
X59372Y29056D01*
X59921Y29604D01*
X60218Y30321D01*
Y31097D01*
X59921Y31813D01*
X59372Y32362D01*
X58656Y32659D01*
X57880D01*
X57163Y32362D01*
X56701Y31899D01*
X56386Y31806D01*
X56066Y31796D01*
X55819Y31918D01*
X55590Y32313D01*
X55628Y32440D01*
X55849Y32819D01*
X56044Y32850D01*
X56403D01*
X57120Y33147D01*
X57668Y33695D01*
X57965Y34412D01*
Y35188D01*
X57668Y35904D01*
X57120Y36453D01*
X56403Y36750D01*
X56239D01*
X53795Y40270D01*
X50785Y44005D01*
X47516Y47516D01*
X46034Y48896D01*
X45980Y48978D01*
X45946Y49000D01*
X45946Y49000D01*
X45863Y49056D01*
X44005Y50785D01*
X40270Y53795D01*
X36330Y56530D01*
X32204Y58978D01*
X31654Y59254D01*
X31652Y59254D01*
X31652Y59254D01*
X27918Y61124D01*
X23492Y62957D01*
X18946Y64470D01*
X18175Y64667D01*
X18175Y64667D01*
Y64667D01*
X17706Y64791D01*
X17246Y64923D01*
Y64923D01*
X16405Y65034D01*
X15564Y64923D01*
X15224Y64782D01*
X15222Y64781D01*
X14957Y64672D01*
X14926Y64665D01*
X14780Y64598D01*
X14780Y64598D01*
X14108Y64083D01*
X13592Y63411D01*
X13526Y63250D01*
X13486Y63261D01*
X13092Y63287D01*
X12717Y63160D01*
X12420Y62899D01*
X12245Y62545D01*
X11583Y60073D01*
X11557Y59678D01*
X11684Y59304D01*
X11945Y59007D01*
X12299Y58832D01*
X14581Y58220D01*
X14976Y58195D01*
X15298Y58304D01*
X15391Y58311D01*
X15867Y58183D01*
X16128Y57886D01*
X16483Y57711D01*
X16753Y57639D01*
X16729Y57520D01*
X16918Y56572D01*
X17275Y56038D01*
X16963Y55604D01*
X15988Y55865D01*
X15594Y55891D01*
X15271Y55782D01*
X15178Y55775D01*
X14702Y55903D01*
X14441Y56200D01*
X14087Y56375D01*
X11805Y56986D01*
X11411Y57012D01*
X11036Y56885D01*
X10739Y56624D01*
X10564Y56270D01*
X9902Y53798D01*
X9876Y53404D01*
X10003Y53029D01*
X10264Y52732D01*
X10587Y52572D01*
X9809Y49622D01*
X8790Y49848D01*
X4412Y50425D01*
X1643Y50546D01*
X1554Y51050D01*
X1919Y51201D01*
X2427Y51591D01*
X2592Y51718D01*
X2592Y51718D01*
X2627Y51762D01*
X2627Y51763D01*
X2685Y51836D01*
X2708Y51851D01*
X2836Y52025D01*
X2973Y52212D01*
X3061Y52329D01*
X3108Y52390D01*
X3260Y52758D01*
X3432Y53172D01*
X3480Y53541D01*
X3734Y53592D01*
X4063Y53811D01*
X4282Y54140D01*
X4360Y54528D01*
Y57087D01*
X4282Y57474D01*
X4063Y57803D01*
X3734Y58023D01*
X3347Y58100D01*
X1697D01*
X1527Y58600D01*
X2047Y58998D01*
X2789Y59966D01*
X2808Y60010D01*
X3347D01*
X3734Y60088D01*
X4063Y60307D01*
X4282Y60636D01*
X4360Y61024D01*
Y63583D01*
X4282Y63970D01*
X4063Y64299D01*
X3734Y64519D01*
X3347Y64596D01*
X984D01*
X597Y64519D01*
X268Y64299D01*
X-268Y64299D01*
X-597Y64519D01*
X-984Y64596D01*
X-3347D01*
X-3734Y64519D01*
X-4063Y64299D01*
X-4282Y63970D01*
X-4723Y63735D01*
X-4910Y63812D01*
X-4913Y63815D01*
X-5932Y64403D01*
X-5938Y64405D01*
X-5943Y64409D01*
X-5944Y64410D01*
X-6026Y64437D01*
X-6466Y64707D01*
X-8119Y65391D01*
X-9858Y65809D01*
X-11642Y65949D01*
D02*
G37*
G36*
X63814Y73435D02*
X62170D01*
X60547Y73177D01*
X58984Y72670D01*
X57519Y71923D01*
X56189Y70957D01*
X55027Y69795D01*
X54061Y68465D01*
X53315Y67001D01*
X52807Y65437D01*
X52550Y63814D01*
Y62170D01*
X52807Y60547D01*
X53315Y58984D01*
X54061Y57519D01*
X55027Y56189D01*
X56189Y55027D01*
X57519Y54061D01*
X58984Y53315D01*
X60547Y52807D01*
X62170Y52550D01*
X63814D01*
X65437Y52807D01*
X67001Y53315D01*
X68465Y54061D01*
X69795Y55027D01*
X70957Y56189D01*
X71923Y57519D01*
X72670Y58984D01*
X73177Y60547D01*
X73435Y62170D01*
Y63814D01*
X73177Y65437D01*
X72670Y67001D01*
X71923Y68465D01*
X70957Y69795D01*
X69795Y70957D01*
X68465Y71923D01*
X67001Y72670D01*
X65437Y73177D01*
X63814Y73435D01*
D02*
G37*
G36*
X-62170D02*
X-63814D01*
X-65437Y73177D01*
X-67001Y72670D01*
X-68465Y71923D01*
X-69795Y70957D01*
X-70957Y69795D01*
X-71923Y68465D01*
X-72670Y67001D01*
X-73177Y65437D01*
X-73435Y63814D01*
Y62170D01*
X-73177Y60547D01*
X-72670Y58984D01*
X-71923Y57519D01*
X-70957Y56189D01*
X-69795Y55027D01*
X-68465Y54061D01*
X-67001Y53315D01*
X-65437Y52807D01*
X-63814Y52550D01*
X-62170D01*
X-60547Y52807D01*
X-58984Y53315D01*
X-57519Y54061D01*
X-56189Y55027D01*
X-55027Y56189D01*
X-54061Y57519D01*
X-53315Y58984D01*
X-52807Y60547D01*
X-52550Y62170D01*
Y63814D01*
X-52807Y65437D01*
X-53315Y67001D01*
X-54061Y68465D01*
X-55027Y69795D01*
X-56189Y70957D01*
X-57519Y71923D01*
X-58984Y72670D01*
X-60547Y73177D01*
X-62170Y73435D01*
D02*
G37*
G36*
X63814Y-52550D02*
X62170D01*
X60547Y-52807D01*
X58984Y-53315D01*
X57519Y-54061D01*
X56189Y-55027D01*
X55027Y-56189D01*
X54061Y-57519D01*
X53315Y-58984D01*
X52807Y-60547D01*
X52550Y-62170D01*
Y-63814D01*
X52807Y-65437D01*
X53315Y-67001D01*
X54061Y-68465D01*
X55027Y-69795D01*
X56189Y-70957D01*
X57519Y-71923D01*
X58984Y-72670D01*
X60547Y-73177D01*
X62170Y-73435D01*
X63814D01*
X65437Y-73177D01*
X67001Y-72670D01*
X68465Y-71923D01*
X69795Y-70957D01*
X70957Y-69795D01*
X71923Y-68465D01*
X72670Y-67001D01*
X73177Y-65437D01*
X73435Y-63814D01*
Y-62170D01*
X73177Y-60547D01*
X72670Y-58984D01*
X71923Y-57519D01*
X70957Y-56189D01*
X69795Y-55027D01*
X68465Y-54061D01*
X67001Y-53315D01*
X65437Y-52807D01*
X63814Y-52550D01*
D02*
G37*
G36*
X-62170D02*
X-63814D01*
X-65437Y-52807D01*
X-67001Y-53315D01*
X-68465Y-54061D01*
X-69795Y-55027D01*
X-70957Y-56189D01*
X-71923Y-57519D01*
X-72670Y-58984D01*
X-73177Y-60547D01*
X-73435Y-62170D01*
Y-63814D01*
X-73177Y-65437D01*
X-72670Y-67001D01*
X-71923Y-68465D01*
X-70957Y-69795D01*
X-69795Y-70957D01*
X-68465Y-71923D01*
X-67001Y-72670D01*
X-65437Y-73177D01*
X-63814Y-73435D01*
X-62170D01*
X-60547Y-73177D01*
X-58984Y-72670D01*
X-57519Y-71923D01*
X-56189Y-70957D01*
X-55027Y-69795D01*
X-54061Y-68465D01*
X-53315Y-67001D01*
X-52807Y-65437D01*
X-52550Y-63814D01*
Y-62170D01*
X-52807Y-60547D01*
X-53315Y-58984D01*
X-54061Y-57519D01*
X-55027Y-56189D01*
X-56189Y-55027D01*
X-57519Y-54061D01*
X-58984Y-53315D01*
X-60547Y-52807D01*
X-62170Y-52550D01*
D02*
G37*
%LPD*%
G36*
X4182Y47804D02*
X8333Y47258D01*
X12420Y46352D01*
X16412Y45093D01*
X20280Y43491D01*
X23993Y41558D01*
X27524Y39309D01*
X30845Y36760D01*
X33932Y33932D01*
X36760Y30845D01*
X39309Y27524D01*
X41558Y23993D01*
X43491Y20280D01*
X45093Y16412D01*
X45807Y14148D01*
X46352Y12420D01*
X47258Y8333D01*
X47804Y4182D01*
X47983Y86D01*
X47966Y0D01*
X47983Y-86D01*
X47843Y-3305D01*
X47332Y-3532D01*
X46815Y-3318D01*
X46099D01*
X45437Y-3592D01*
X44931Y-4098D01*
X44657Y-4760D01*
Y-5476D01*
X44931Y-6138D01*
X45437Y-6644D01*
X46099Y-6918D01*
X46815D01*
X46947Y-6863D01*
X47405Y-7215D01*
X47258Y-8333D01*
X46352Y-12420D01*
X45093Y-16412D01*
X43491Y-20280D01*
X41558Y-23993D01*
X39309Y-27524D01*
X36760Y-30845D01*
X35331Y-32405D01*
X33932Y-33932D01*
X30845Y-36760D01*
X27553Y-39286D01*
X27349Y-39251D01*
X27092Y-39110D01*
X27048Y-39019D01*
X26779Y-38372D01*
X26273Y-37865D01*
X25611Y-37591D01*
X24895D01*
X24234Y-37865D01*
X23728Y-38372D01*
X23453Y-39033D01*
Y-39750D01*
X23728Y-40411D01*
X24169Y-40853D01*
X24222Y-41412D01*
X23993Y-41558D01*
X20280Y-43491D01*
X16412Y-45093D01*
X16095Y-45193D01*
X15692Y-44897D01*
Y-31664D01*
X16122Y-31235D01*
X16419Y-30518D01*
Y-29742D01*
X16122Y-29026D01*
X15573Y-28477D01*
X14856Y-28180D01*
X14081D01*
X13364Y-28477D01*
X12869Y-28972D01*
X12558Y-28979D01*
X12312Y-28934D01*
X12283Y-28864D01*
X11734Y-28315D01*
X11018Y-28018D01*
X10242D01*
X9525Y-28315D01*
X8977Y-28864D01*
X8680Y-29580D01*
Y-30356D01*
X8977Y-31073D01*
X9525Y-31621D01*
X10242Y-31918D01*
X11018D01*
X11734Y-31621D01*
X12229Y-31127D01*
X12540Y-31120D01*
X12786Y-31165D01*
X12815Y-31235D01*
X13245Y-31664D01*
Y-46092D01*
X12420Y-46352D01*
X9589Y-46979D01*
X9589Y-46979D01*
Y-46979D01*
X9575Y-47001D01*
X1519Y-48607D01*
X1449Y-48636D01*
X1343Y-48650D01*
X1110Y-48746D01*
X667Y-48906D01*
X666Y-48907D01*
X222Y-49072D01*
X0Y-49117D01*
X-449Y-49027D01*
X-795Y-48796D01*
X-807Y-48809D01*
X-870Y-48767D01*
X-1292Y-48443D01*
X-1941Y-48174D01*
X-2287Y-48128D01*
X-2357Y-48114D01*
X-2353Y-48071D01*
X-5350Y-47748D01*
X-10457Y-46827D01*
X-10488Y-46780D01*
Y-46780D01*
X-12420Y-46352D01*
X-16412Y-45093D01*
X-20280Y-43491D01*
X-23993Y-41558D01*
X-27524Y-39309D01*
X-30845Y-36760D01*
X-33932Y-33932D01*
X-36760Y-30845D01*
X-39309Y-27524D01*
X-41558Y-23993D01*
X-43491Y-20280D01*
X-45093Y-16412D01*
X-45833Y-14065D01*
X-46352Y-12420D01*
X-47258Y-8333D01*
X-47804Y-4182D01*
X-47987Y0D01*
X-47804Y4182D01*
X-47258Y8333D01*
X-46352Y12420D01*
X-46306Y12566D01*
X-45738Y12705D01*
X-45341Y12308D01*
X-44532Y11973D01*
X-43657D01*
X-42848Y12308D01*
X-42478Y12678D01*
X-42112Y12312D01*
X-41303Y11977D01*
X-40428D01*
X-39619Y12312D01*
X-39001Y12931D01*
X-38666Y13739D01*
Y14615D01*
X-39001Y15423D01*
X-39619Y16042D01*
X-40428Y16377D01*
X-41303D01*
X-42112Y16042D01*
X-42482Y15672D01*
X-42848Y16038D01*
X-43657Y16373D01*
X-44532D01*
X-44576Y16355D01*
X-44958Y16738D01*
X-43491Y20280D01*
X-41558Y23993D01*
X-39309Y27524D01*
X-36760Y30845D01*
X-35254Y32489D01*
X-33932Y33932D01*
X-30845Y36760D01*
X-27524Y39309D01*
X-23993Y41558D01*
X-20280Y43491D01*
X-16412Y45093D01*
X-12420Y46352D01*
X-8333Y47258D01*
X-4182Y47804D01*
X0Y47987D01*
X4182Y47804D01*
D02*
G37*
%LPC*%
G36*
X-9484Y44713D02*
X-10201D01*
X-10862Y44439D01*
X-11368Y43933D01*
X-11643Y43271D01*
Y42555D01*
X-11368Y41894D01*
X-10862Y41387D01*
X-10201Y41113D01*
X-9484D01*
X-8823Y41387D01*
X-8317Y41894D01*
X-8043Y42555D01*
Y43271D01*
X-8317Y43933D01*
X-8823Y44439D01*
X-9484Y44713D01*
D02*
G37*
G36*
X-14209Y42351D02*
X-14925D01*
X-15586Y42077D01*
X-16093Y41571D01*
X-16367Y40909D01*
Y40193D01*
X-16093Y39532D01*
X-15586Y39025D01*
X-14925Y38751D01*
X-14209D01*
X-13547Y39025D01*
X-13041Y39532D01*
X-12767Y40193D01*
Y40909D01*
X-13041Y41571D01*
X-13547Y42077D01*
X-14209Y42351D01*
D02*
G37*
G36*
X18942Y40389D02*
X18066D01*
X17258Y40054D01*
X16639Y39435D01*
X16304Y38627D01*
Y37751D01*
X16639Y36943D01*
X17258Y36324D01*
X18066Y35989D01*
X18942D01*
X19750Y36324D01*
X20369Y36943D01*
X20704Y37751D01*
Y38627D01*
X20369Y39435D01*
X19750Y40054D01*
X18942Y40389D01*
D02*
G37*
G36*
X-18066D02*
X-18942D01*
X-19750Y40054D01*
X-20369Y39435D01*
X-20704Y38627D01*
Y37751D01*
X-20369Y36943D01*
X-19750Y36324D01*
X-18942Y35989D01*
X-18066D01*
X-17258Y36324D01*
X-16639Y36943D01*
X-16304Y37751D01*
Y38627D01*
X-16639Y39435D01*
X-17258Y40054D01*
X-18066Y40389D01*
D02*
G37*
G36*
X23586Y38414D02*
X22870D01*
X22209Y38140D01*
X21702Y37634D01*
X21428Y36972D01*
Y36256D01*
X21702Y35594D01*
X22209Y35088D01*
X22870Y34814D01*
X23586D01*
X24248Y35088D01*
X24754Y35594D01*
X25028Y36256D01*
Y36972D01*
X24754Y37634D01*
X24248Y38140D01*
X23586Y38414D01*
D02*
G37*
G36*
X27917Y36052D02*
X27201D01*
X26539Y35778D01*
X26033Y35272D01*
X25759Y34610D01*
Y33894D01*
X26033Y33232D01*
X26539Y32726D01*
X27201Y32452D01*
X27917D01*
X28579Y32726D01*
X29085Y33232D01*
X29359Y33894D01*
Y34610D01*
X29085Y35272D01*
X28579Y35778D01*
X27917Y36052D01*
D02*
G37*
G36*
X1581Y28159D02*
X-1581D01*
X-4724Y27805D01*
X-7808Y27101D01*
X-10793Y26057D01*
X-13643Y24684D01*
X-16320Y23002D01*
X-18793Y21030D01*
X-21030Y18793D01*
X-23002Y16320D01*
X-23439Y15624D01*
X-23885Y15854D01*
X-23784Y16098D01*
Y16973D01*
X-24119Y17782D01*
X-24738Y18401D01*
X-25547Y18735D01*
X-26422D01*
X-27231Y18401D01*
X-27849Y17782D01*
X-28184Y16973D01*
Y16098D01*
X-27849Y15289D01*
X-27231Y14670D01*
X-26422Y14335D01*
X-25547D01*
X-24738Y14670D01*
X-24445Y14964D01*
X-24051Y14650D01*
X-24684Y13643D01*
X-26057Y10793D01*
X-27101Y7808D01*
X-27805Y4724D01*
X-28159Y1581D01*
Y-1581D01*
X-27805Y-4724D01*
X-27101Y-7808D01*
X-26057Y-10793D01*
X-24684Y-13643D01*
X-23002Y-16320D01*
X-21030Y-18793D01*
X-18793Y-21030D01*
X-16320Y-23002D01*
X-13643Y-24684D01*
X-10793Y-26057D01*
X-7808Y-27101D01*
X-4724Y-27805D01*
X-1581Y-28159D01*
X-29D01*
X178Y-28659D01*
X-78Y-28915D01*
X-205Y-29220D01*
X-794Y-29337D01*
X-949Y-29183D01*
X-1610Y-28909D01*
X-2327D01*
X-2988Y-29183D01*
X-3494Y-29689D01*
X-3768Y-30351D01*
Y-31067D01*
X-3494Y-31728D01*
X-2988Y-32235D01*
X-2327Y-32509D01*
X-1610D01*
X-949Y-32235D01*
X-442Y-31728D01*
X-366Y-31544D01*
X224Y-31426D01*
X470Y-31673D01*
X1187Y-31970D01*
X1963D01*
X2679Y-31673D01*
X3228Y-31124D01*
X3383Y-30749D01*
X3925D01*
X4036Y-31019D01*
X4585Y-31567D01*
X5302Y-31864D01*
X6077D01*
X6794Y-31567D01*
X7343Y-31019D01*
X7639Y-30302D01*
Y-29526D01*
X7343Y-28810D01*
X6794Y-28261D01*
X6147Y-27993D01*
X6099Y-27753D01*
X6127Y-27485D01*
X7808Y-27101D01*
X10793Y-26057D01*
X13643Y-24684D01*
X16320Y-23002D01*
X18793Y-21030D01*
X21030Y-18793D01*
X23002Y-16320D01*
X24684Y-13643D01*
X26057Y-10793D01*
X27101Y-7808D01*
X27805Y-4724D01*
X28159Y-1581D01*
Y1581D01*
X27805Y4724D01*
X27101Y7808D01*
X26057Y10793D01*
X24684Y13643D01*
X23002Y16320D01*
X21030Y18793D01*
X18793Y21030D01*
X16320Y23002D01*
X13643Y24684D01*
X10793Y26057D01*
X7808Y27101D01*
X4724Y27805D01*
X1581Y28159D01*
D02*
G37*
G36*
X42484Y15579D02*
X41768D01*
X41106Y15305D01*
X40600Y14799D01*
X40326Y14138D01*
Y13421D01*
X40600Y12760D01*
X41106Y12254D01*
X41768Y11980D01*
X42484D01*
X43146Y12254D01*
X43652Y12760D01*
X43926Y13421D01*
Y14138D01*
X43652Y14799D01*
X43146Y15305D01*
X42484Y15579D01*
D02*
G37*
G36*
X39728Y5737D02*
X39012D01*
X38350Y5463D01*
X37844Y4957D01*
X37570Y4295D01*
Y3579D01*
X37844Y2917D01*
X38350Y2411D01*
X39012Y2137D01*
X39728D01*
X40390Y2411D01*
X40896Y2917D01*
X41170Y3579D01*
Y4295D01*
X40896Y4957D01*
X40390Y5463D01*
X39728Y5737D01*
D02*
G37*
G36*
X-40782Y762D02*
X-41658D01*
X-42466Y427D01*
X-43085Y-192D01*
X-43420Y-1001D01*
Y-1876D01*
X-43085Y-2685D01*
X-42466Y-3303D01*
X-41658Y-3638D01*
X-40782D01*
X-39974Y-3303D01*
X-39355Y-2685D01*
X-39020Y-1876D01*
Y-1001D01*
X-39355Y-192D01*
X-39974Y427D01*
X-40782Y762D01*
D02*
G37*
G36*
X36185Y-4893D02*
X35469D01*
X34807Y-5167D01*
X34301Y-5673D01*
X34027Y-6335D01*
Y-7051D01*
X34301Y-7712D01*
X34807Y-8219D01*
X35469Y-8493D01*
X36185D01*
X36846Y-8219D01*
X37353Y-7712D01*
X37627Y-7051D01*
Y-6335D01*
X37353Y-5673D01*
X36846Y-5167D01*
X36185Y-4893D01*
D02*
G37*
G36*
X-35075Y-10798D02*
X-35791D01*
X-36453Y-11073D01*
X-36959Y-11579D01*
X-37233Y-12240D01*
Y-12957D01*
X-36959Y-13618D01*
X-36453Y-14124D01*
X-35791Y-14398D01*
X-35075D01*
X-34413Y-14124D01*
X-33907Y-13618D01*
X-33633Y-12957D01*
Y-12240D01*
X-33907Y-11579D01*
X-34413Y-11073D01*
X-35075Y-10798D01*
D02*
G37*
G36*
X40420Y-19853D02*
X39704D01*
X39043Y-20128D01*
X38536Y-20634D01*
X38262Y-21295D01*
Y-22012D01*
X38536Y-22673D01*
X39043Y-23179D01*
X39704Y-23453D01*
X40420D01*
X41082Y-23179D01*
X41588Y-22673D01*
X41862Y-22012D01*
Y-21295D01*
X41588Y-20634D01*
X41082Y-20128D01*
X40420Y-19853D01*
D02*
G37*
G36*
X34509Y-23397D02*
X33793D01*
X33132Y-23671D01*
X32625Y-24177D01*
X32351Y-24839D01*
Y-25555D01*
X32625Y-26216D01*
X33132Y-26723D01*
X33793Y-26997D01*
X34509D01*
X35171Y-26723D01*
X35677Y-26216D01*
X35951Y-25555D01*
Y-24839D01*
X35677Y-24177D01*
X35171Y-23671D01*
X34509Y-23397D01*
D02*
G37*
G36*
X23371Y-21619D02*
X22496D01*
X21687Y-21954D01*
X21068Y-22573D01*
X20733Y-23381D01*
Y-23784D01*
X20035D01*
X19226Y-24119D01*
X18607Y-24738D01*
X18272Y-25547D01*
Y-26422D01*
X18607Y-27231D01*
X19226Y-27849D01*
X20035Y-28184D01*
X20910D01*
X21719Y-27849D01*
X22337Y-27231D01*
X22672Y-26422D01*
Y-26019D01*
X23371D01*
X24179Y-25684D01*
X24798Y-25065D01*
X25133Y-24257D01*
Y-23381D01*
X24798Y-22573D01*
X24179Y-21954D01*
X23371Y-21619D01*
D02*
G37*
G36*
X-30245Y-22791D02*
X-30961D01*
X-31623Y-23065D01*
X-32129Y-23571D01*
X-32403Y-24233D01*
Y-24949D01*
X-32129Y-25610D01*
X-31623Y-26117D01*
X-30961Y-26391D01*
X-30371D01*
X-30343Y-26433D01*
Y-27149D01*
X-30069Y-27810D01*
X-29563Y-28317D01*
X-28901Y-28591D01*
X-28185D01*
X-27524Y-28317D01*
X-27017Y-27810D01*
X-26743Y-27149D01*
Y-26433D01*
X-27017Y-25771D01*
X-27524Y-25265D01*
X-28185Y-24991D01*
X-28775D01*
X-28803Y-24949D01*
Y-24233D01*
X-29077Y-23571D01*
X-29584Y-23065D01*
X-30245Y-22791D01*
D02*
G37*
G36*
X34216Y-28515D02*
X33500D01*
X32839Y-28789D01*
X32332Y-29295D01*
X32058Y-29957D01*
Y-30673D01*
X32332Y-31335D01*
X32839Y-31841D01*
X33500Y-32115D01*
X34216D01*
X34878Y-31841D01*
X35384Y-31335D01*
X35658Y-30673D01*
Y-29957D01*
X35384Y-29295D01*
X34878Y-28789D01*
X34216Y-28515D01*
D02*
G37*
G36*
X-10678Y-30726D02*
X-11394D01*
X-12055Y-31000D01*
X-12562Y-31506D01*
X-12835Y-32168D01*
Y-32884D01*
X-12562Y-33546D01*
X-12055Y-34052D01*
X-11394Y-34326D01*
X-10678D01*
X-10016Y-34052D01*
X-9510Y-33546D01*
X-9235Y-32884D01*
Y-32168D01*
X-9510Y-31506D01*
X-10016Y-31000D01*
X-10678Y-30726D01*
D02*
G37*
G36*
X-5851Y-31278D02*
X-6567D01*
X-7229Y-31552D01*
X-7735Y-32059D01*
X-8009Y-32720D01*
Y-33436D01*
X-7735Y-34098D01*
X-7229Y-34604D01*
X-6567Y-34878D01*
X-5851D01*
X-5189Y-34604D01*
X-4683Y-34098D01*
X-4409Y-33436D01*
Y-32720D01*
X-4683Y-32059D01*
X-5189Y-31552D01*
X-5851Y-31278D01*
D02*
G37*
G36*
X-24839Y-32058D02*
X-25555D01*
X-26217Y-32332D01*
X-26723Y-32839D01*
X-26997Y-33500D01*
Y-34216D01*
X-26723Y-34878D01*
X-26217Y-35384D01*
X-25555Y-35658D01*
X-24839D01*
X-24177Y-35384D01*
X-23671Y-34878D01*
X-23397Y-34216D01*
Y-33500D01*
X-23671Y-32839D01*
X-24177Y-32332D01*
X-24839Y-32058D01*
D02*
G37*
G36*
X-18146Y-32210D02*
X-18862D01*
X-19524Y-32484D01*
X-20030Y-32991D01*
X-20304Y-33652D01*
Y-34368D01*
X-20030Y-35030D01*
X-19524Y-35536D01*
X-18862Y-35810D01*
X-18146D01*
X-17484Y-35536D01*
X-16978Y-35030D01*
X-16704Y-34368D01*
Y-33652D01*
X-16978Y-32991D01*
X-17484Y-32484D01*
X-18146Y-32210D01*
D02*
G37*
%LPD*%
D13*
X14034Y60741D02*
D03*
X18217Y59620D02*
D03*
X12352Y54466D02*
D03*
X16535Y53345D02*
D03*
X-14034Y-60741D02*
D03*
X-18217Y-59620D02*
D03*
X-12352Y-54466D02*
D03*
X-16535Y-53345D02*
D03*
D14*
X-2165Y62303D02*
D03*
X2165Y62303D02*
D03*
X-2165Y55807D02*
D03*
X2165D02*
D03*
Y-62303D02*
D03*
X-2165Y-62303D02*
D03*
X2165Y-55807D02*
D03*
X-2165D02*
D03*
D15*
X-18217Y59620D02*
D03*
X-14034Y60741D02*
D03*
X-16535Y53345D02*
D03*
X-12352Y54466D02*
D03*
X18217Y-59620D02*
D03*
X14034Y-60741D02*
D03*
X16535Y-53345D02*
D03*
X12352Y-54466D02*
D03*
D16*
X-33027Y52873D02*
D03*
X-29276Y55039D02*
D03*
X-29779Y47248D02*
D03*
X-26028Y49413D02*
D03*
X33027Y-52873D02*
D03*
X29276Y-55039D02*
D03*
X29779Y-47248D02*
D03*
X26028Y-49413D02*
D03*
D17*
X-45586Y42524D02*
D03*
X-42524Y45586D02*
D03*
X-40993Y37930D02*
D03*
X-37930Y40993D02*
D03*
X45586Y-42524D02*
D03*
X42524Y-45586D02*
D03*
X40993Y-37931D02*
D03*
X37930Y-40993D02*
D03*
D18*
X-55039Y29276D02*
D03*
X-52873Y33027D02*
D03*
X-49413Y26028D02*
D03*
X-47248Y29779D02*
D03*
X55039Y-29276D02*
D03*
X52873Y-33027D02*
D03*
X49413Y-26028D02*
D03*
X47248Y-29779D02*
D03*
D19*
X-60741Y14034D02*
D03*
X-59620Y18217D02*
D03*
X-54466Y12352D02*
D03*
X-53345Y16535D02*
D03*
X60741Y-14034D02*
D03*
X59620Y-18217D02*
D03*
X54466Y-12352D02*
D03*
X53345Y-16535D02*
D03*
D20*
X-62303Y-2165D02*
D03*
X-62303Y2165D02*
D03*
X-55807Y-2165D02*
D03*
Y2165D02*
D03*
X62303Y2165D02*
D03*
X62303Y-2165D02*
D03*
X55807Y2165D02*
D03*
Y-2165D02*
D03*
D21*
X-59620Y-18217D02*
D03*
X-60741Y-14034D02*
D03*
X-53345Y-16535D02*
D03*
X-54466Y-12352D02*
D03*
X59620Y18217D02*
D03*
X60741Y14034D02*
D03*
X53345Y16535D02*
D03*
X54466Y12352D02*
D03*
D22*
X-52873Y-33027D02*
D03*
X-55039Y-29276D02*
D03*
X-47248Y-29779D02*
D03*
X-49413Y-26028D02*
D03*
X52873Y33027D02*
D03*
X55039Y29276D02*
D03*
X47248Y29779D02*
D03*
X49413Y26028D02*
D03*
D23*
X-42524Y-45586D02*
D03*
X-45586Y-42524D02*
D03*
X-37931Y-40993D02*
D03*
X-40993Y-37930D02*
D03*
X42524Y45586D02*
D03*
X45586Y42524D02*
D03*
X37931Y40993D02*
D03*
X40993Y37930D02*
D03*
D24*
X-29276Y-55039D02*
D03*
X-33027Y-52873D02*
D03*
X-26028Y-49413D02*
D03*
X-29779Y-47248D02*
D03*
X29276Y55039D02*
D03*
X33027Y52873D02*
D03*
X26028Y49413D02*
D03*
X29779Y47248D02*
D03*
D39*
X2130Y-65911D02*
G03*
X19106Y-63116I-2130J65911D01*
G01*
X453Y-59053D02*
G03*
X3853Y-58929I-453J59053D01*
G01*
X4721Y-59218D02*
G03*
X3853Y-58929I-791J-929D01*
G01*
X34372Y-48648D02*
G03*
X34357Y-48652I341J-1172D01*
G01*
X34607Y-48604D02*
G03*
X34595Y-48605I105J-1216D01*
G01*
X4721Y-59218D02*
G03*
X8458Y-58803I1677J1935D01*
G01*
X34595Y-48605D02*
G03*
X34372Y-48648I119J-1215D01*
G01*
X9243Y-58327D02*
G03*
X13216Y-57557I-9243J58328D01*
G01*
X33540Y-48869D02*
G03*
X34357Y-48652I-2647J11621D01*
G01*
X453Y-59053D02*
G03*
X435Y-59053I-6J-1221D01*
G01*
X9243Y-58327D02*
G03*
X8458Y-58803I194J-1205D01*
G01*
X35255Y-48589D02*
G03*
X34608Y-48604I-216J-4625D01*
G01*
X435Y-59053D02*
G03*
X-2095Y-62287I28J-2629D01*
G01*
X35255Y-48589D02*
G03*
X35299Y-48590I46J1220D01*
G01*
X1698Y-52172D02*
G03*
X1376Y-52227I42J-1220D01*
G01*
X869Y-52356D02*
G03*
X1376Y-52227I-921J4674D01*
G01*
X1702Y-52172D02*
G03*
X5291Y-51896I-1757J46354D01*
G01*
X443Y-52419D02*
G03*
X869Y-52356I-443J4475D01*
G01*
X5291Y-51896D02*
G03*
X11465Y-50890I-5291J51896D01*
G01*
X36931Y-39993D02*
G03*
X35433Y-39370I-1497J-1489D01*
G01*
X35016D02*
G03*
X33474Y-40009I0J-2180D01*
G01*
X-90Y52025D02*
G03*
X-3468Y51906I142J-52165D01*
G01*
Y51906D02*
G03*
X-4007Y51734I92J-1217D01*
G01*
X-6180Y51522D02*
G03*
X-6742Y51581I-404J-1152D01*
G01*
X-6180Y51522D02*
G03*
X-4007Y51734I862J2411D01*
G01*
X-6742Y51581D02*
G03*
X-11413Y50749I6794J-51721D01*
G01*
D02*
G03*
X-18618Y48570I11465J-50890D01*
G01*
X-21624Y47091D02*
G03*
X-19173Y48142I365J2534D01*
G01*
X-21634Y47092D02*
G03*
X-21624Y47091I160J1210D01*
G01*
X-21635Y47092D02*
G03*
X-22312Y46988I-161J-1210D01*
G01*
X-22314Y46987D02*
G03*
X-24183Y46054I22365J-47128D01*
G01*
D02*
G03*
X-31843Y41087I23045J-43928D01*
G01*
X-35239Y40047D02*
G03*
X-37930Y40993I-2692J-3357D01*
G01*
X-35234Y40043D02*
G03*
X-34271Y39796I759J956D01*
G01*
X-6550Y63335D02*
G03*
X-14427Y64314I-5091J-8787D01*
G01*
X-14497Y64297D02*
G03*
X-14427Y64314I-258J1193D01*
G01*
X-14504Y64296D02*
G03*
X-19106Y63116I11368J-53939D01*
G01*
X-5530Y62746D02*
G03*
X-2165Y62303I2217J3840D01*
G01*
X-19106Y63116D02*
G03*
X-34837Y55992I19106J-63116D01*
G01*
X-34837Y55992D02*
G03*
X-48041Y45175I34837J-55992D01*
G01*
D02*
G03*
X-52615Y39754I48041J-45175D01*
G01*
X-1258Y58879D02*
G03*
X2165Y62303I0J3424D01*
G01*
X-1989Y58879D02*
G03*
X-13096Y57433I2040J-59020D01*
G01*
X-13096D02*
G03*
X-27575Y52055I13147J-57573D01*
G01*
X-27575Y52055D02*
G03*
X-30488Y50335I17064J-32241D01*
G01*
X-30489Y50335D02*
G03*
X-30663Y50195I669J-1020D01*
G01*
X-31174Y49771D02*
G03*
X-31001Y49892I-606J1059D01*
G01*
X-31175Y49771D02*
G03*
X-31174Y49771I-606J1059D01*
G01*
X-32237Y49158D02*
G03*
X-32421Y49036I795J-1393D01*
G01*
X-32236Y49158D02*
G03*
X-32237Y49158I795J-1393D01*
G01*
X-35046Y48425D02*
G03*
X-32702Y48875I7J6293D01*
G01*
X-37070Y48425D02*
G03*
X-41534Y46576I0J-6312D01*
G01*
X54466Y12352D02*
G03*
X51468Y9355I0J-2998D01*
G01*
X52123Y-2110D02*
G03*
X51468Y8499I-52123J2110D01*
G01*
X49804Y-15516D02*
G03*
X52123Y-2110I-49804J15516D01*
G01*
X45384Y-25720D02*
G03*
X49804Y-15516I-45384J25720D01*
G01*
X56015Y34800D02*
G03*
X45107Y48105I-56015J-34800D01*
G01*
X45107Y48105D02*
G03*
X31073Y58166I-45107J-48105D01*
G01*
X31071Y58166D02*
G03*
X17842Y63483I-31033J-58091D01*
G01*
X-50787Y30941D02*
G03*
X-52873Y33027I-2086J0D01*
G01*
X-51817Y28094D02*
G03*
X-56382Y17260I51868J-28234D01*
G01*
D02*
G03*
X-58964Y2032I56433J-17401D01*
G01*
Y2032D02*
G03*
X-58490Y-7915I59015J-2173D01*
G01*
D02*
G03*
X-58361Y-8833I58541J7774D01*
G01*
X-60278Y-13723D02*
G03*
X-58361Y-8833I-5278J4890D01*
G01*
X-60698Y-14016D02*
G03*
X-60278Y-13723I-472J1125D01*
G01*
X-45489Y-26455D02*
G03*
X-38288Y-35514I65054J44317D01*
G01*
X-27837Y-44225D02*
G03*
X-21289Y-47639I23674J37423D01*
G01*
X-38288Y-35514D02*
G03*
X-27837Y-44225I38340J35374D01*
G01*
X-31073Y-58166D02*
G03*
X-14847Y-64252I31073J58166D01*
G01*
X-49311Y-43705D02*
G03*
X-49262Y-43752I11219J11641D01*
G01*
X-51575Y-38059D02*
G03*
X-49311Y-43705I8174J0D01*
G01*
X-51575Y-36162D02*
G03*
X-52873Y-33027I-4434J0D01*
G01*
X-45107Y-48105D02*
G03*
X-31073Y-58166I45107J48105D01*
G01*
X-49311Y-43705D02*
G03*
X-49181Y-43839I5911J5647D01*
G01*
X-49181Y-43839D02*
G03*
X-45107Y-48105I40622J34711D01*
G01*
X-31338Y-50163D02*
G03*
X-21055Y-55295I31389J50022D01*
G01*
X-43235Y-40313D02*
G03*
X-31338Y-50163I43286J40172D01*
G01*
X-50735Y-30333D02*
G03*
X-43235Y-40313I51723J31061D01*
G01*
X33437Y-40040D02*
G03*
X33474Y-40009I-33437J40040D01*
G01*
X24234Y-46194D02*
G03*
X33437Y-40040I-24234J46194D01*
G01*
X11465Y-50890D02*
G03*
X24234Y-46194I-11465J50890D01*
G01*
X34837Y-55992D02*
G03*
X45006Y-48199I-34837J55992D01*
G01*
X19106Y-63116D02*
G03*
X34837Y-55992I-19106J63116D01*
G01*
X35305Y-48589D02*
G03*
X42520Y-45590I-32J10255D01*
G01*
X33174Y-49017D02*
G03*
X33173Y-49018I636J-1042D01*
G01*
X33540Y-48869D02*
G03*
X33174Y-49017I270J-1190D01*
G01*
X27626Y-52195D02*
G03*
X33173Y-49018I-44913J84856D01*
G01*
X13216Y-57557D02*
G03*
X27626Y-52195I-13216J57557D01*
G01*
X-45285Y25664D02*
G03*
X-49753Y15376I45336J-25804D01*
G01*
D02*
G03*
X-52071Y1969I49804J-15516D01*
G01*
D02*
G03*
X-51889Y-4976I52123J-2110D01*
G01*
X-53248Y-8957D02*
G03*
X-51889Y-7598I0J1359D01*
G01*
X-58748Y25636D02*
G03*
X-62506Y20852I4087J-7079D01*
G01*
X-62556Y20869D02*
G03*
X-64214Y15011I62556J-20869D01*
G01*
Y15011D02*
G03*
X-65909Y-2173I64214J-15011D01*
G01*
Y-2173D02*
G03*
X-63067Y-19268I65909J2173D01*
G01*
X65909Y2173D02*
G03*
X63805Y16664I-65909J-2173D01*
G01*
X64214Y-15011D02*
G03*
X65909Y2173I-64214J15011D01*
G01*
X58122Y-31154D02*
G03*
X64214Y-15011I-58122J31154D01*
G01*
X57955Y-31463D02*
G03*
X58122Y-31154I-57955J31463D01*
G01*
X61417Y11131D02*
G03*
X60873Y13071I-3703J7D01*
G01*
X61417Y8629D02*
G03*
X61424Y8510I1221J5D01*
G01*
X60305Y5955D02*
G03*
X61424Y8510I-1665J2251D01*
G01*
X58941Y2821D02*
G03*
X58943Y2734I1221J-6D01*
G01*
X59015Y-2173D02*
G03*
X58943Y2734I-47704J1756D01*
G01*
X58543Y-7758D02*
G03*
X59015Y-2173I-58543J7758D01*
G01*
X56433Y-17401D02*
G03*
X57868Y-11779I-56433J17401D01*
G01*
X50944Y-30133D02*
G03*
X56433Y-17401I-55982J31686D01*
G01*
X50944Y-30133D02*
G03*
X50787Y-30726I1064J-598D01*
G01*
X20165Y47870D02*
G03*
X22025Y47046I1882J1736D01*
G01*
X16535Y51507D02*
G03*
X17169Y49773I2688J0D01*
G01*
X17169Y49773D02*
G03*
X17460Y49522I933J787D01*
G01*
X45309Y26550D02*
G03*
X38391Y35233I-63263J-43301D01*
G01*
X47638Y25197D02*
G03*
X49249Y25864I0J2279D01*
G01*
X45971Y25887D02*
G03*
X47638Y25197I1667J1667D01*
G01*
X27940Y43944D02*
G03*
X22538Y46929I-27889J-44085D01*
G01*
X38391Y35233D02*
G03*
X27940Y43944I-38340J-35374D01*
G01*
X51577Y28972D02*
G03*
X50616Y30550I-55225J-32545D01*
G01*
X53603Y28346D02*
G03*
X54466Y28704I-0J1221D01*
G01*
X51578Y28971D02*
G03*
X52075Y28508I1048J626D01*
G01*
X51577Y28972D02*
G03*
X51578Y28971I1048J625D01*
G01*
X52075Y28508D02*
G03*
X52758Y28346I681J1354D01*
G01*
X17995Y57654D02*
G03*
X18742Y56392I1213J-134D01*
G01*
X18081Y58297D02*
G03*
X18048Y58126I1179J-316D01*
G01*
X43337Y40032D02*
G03*
X31440Y49882I-43286J-40172D01*
G01*
X50616Y30550D02*
G03*
X43338Y40031I-54264J-34123D01*
G01*
X31440Y49882D02*
G03*
X18914Y56322I-43824J-69839D01*
G01*
X-34271Y39796D02*
G03*
X-31942Y40999I-755J4315D01*
G01*
X-31843Y41087D02*
G03*
X-31942Y40999I756J-959D01*
G01*
X-57105Y26584D02*
G03*
X-55039Y29276I-2217J3840D01*
G01*
X-49213Y-25984D02*
G03*
X-49113Y-25974I0J475D01*
G01*
X-49413Y-26028D02*
G03*
X-49113Y-25974I0J852D01*
G01*
X-45489Y-26455D02*
G03*
X-48506Y-25474I-2144J-1466D01*
G01*
X-49181Y-43839D02*
G03*
X-49262Y-43752I-928J-793D01*
G01*
X-31001Y49892D02*
G03*
X-30663Y50195I-4039J4826D01*
G01*
X-32702Y48875D02*
G03*
X-32421Y49036I-458J1131D01*
G01*
X58168Y-11198D02*
G03*
X58637Y-8404I-1869J1750D01*
G01*
X58168Y-11198D02*
G03*
X57868Y-11779I895J-830D01*
G01*
X58543Y-7758D02*
G03*
X58637Y-8404I1211J-155D01*
G01*
X60305Y5955D02*
G03*
X60153Y5820I730J-978D01*
G01*
D02*
G03*
X58941Y2821I3212J-3043D01*
G01*
X-18618Y48570D02*
G03*
X-19173Y48142I437J-1140D01*
G01*
X34607Y-48604D02*
X34608Y-48604D01*
X34357Y-48652D02*
Y-48652D01*
X453Y-59053D02*
X453Y-59053D01*
X4721Y-59218D02*
X4721Y-59218D01*
X34372Y-48648D02*
Y-48648D01*
X9243Y-58327D02*
Y-58327D01*
X3853Y-58929D02*
X3853Y-58929D01*
X35255Y-48589D02*
Y-48589D01*
X1698Y-52172D02*
X1702Y-52172D01*
X36931Y-39993D02*
X36934Y-39996D01*
X37930Y-40993D01*
X35016Y-39370D02*
X35433D01*
X5291Y-51896D02*
Y-51896D01*
X-3468Y51906D02*
Y51906D01*
X-4007Y51734D02*
X-4007Y51734D01*
X-6180Y51522D02*
X-6180Y51522D01*
X-6742Y51581D02*
X-6742Y51581D01*
X-21635Y47092D02*
X-21634Y47092D01*
X-21624Y47091D02*
X-21624Y47091D01*
X-22314Y46987D02*
X-22312Y46988D01*
X-35239Y40047D02*
X-35234Y40043D01*
X-6550Y63335D02*
X-6549Y63335D01*
X-14504Y64296D02*
X-14497Y64297D01*
X-5530Y62746D02*
X-5530Y62746D01*
X-1989Y58879D02*
X-1989D01*
X-1258D01*
X-30489Y50335D02*
X-30488Y50335D01*
X-31175Y49771D02*
X-31174Y49771D01*
X-32236Y49158D02*
X-31175Y49771D01*
X-32237Y49158D02*
X-32236Y49158D01*
X-37070Y48425D02*
X-35046Y48425D01*
X-37070Y48425D02*
X-37070D01*
X51468Y8499D02*
Y9355D01*
X31071Y58166D02*
X31073Y58166D01*
X-50787Y30315D02*
Y30941D01*
X-51817Y28094D02*
X-50787Y30315D01*
X-51817Y28094D02*
X-51817Y28094D01*
X-51817Y28094D02*
X-51817Y28094D01*
X-51817Y28094D02*
X-51817Y28094D01*
X-60703Y-14018D02*
X-60698Y-14016D01*
X-51575Y-38059D02*
Y-36162D01*
X35299Y-48590D02*
X35305Y-48589D01*
X33540Y-48869D02*
Y-48869D01*
X-51889Y-4976D02*
Y-4976D01*
Y-7598D02*
Y-4976D01*
X-58747Y25636D02*
X-57104Y26584D01*
X58122Y-31154D02*
Y-31153D01*
Y-31553D02*
Y-31154D01*
X61417Y8629D02*
Y8634D01*
X59964Y12827D02*
X60873Y13071D01*
X58943Y2734D02*
X58943Y2734D01*
X50787Y-31102D02*
Y-30726D01*
X20165Y47870D02*
X20165Y47870D01*
X19720Y48142D02*
X20165Y47870D01*
X20165Y47870D01*
X16535Y51507D02*
Y53345D01*
X17169Y49773D02*
X17169Y49773D01*
X45309Y26550D02*
X45971Y25887D01*
X45971Y25887D01*
X53603Y28346D02*
X53603D01*
X52758Y28346D02*
X53603Y28346D01*
X18742Y56392D02*
X18914Y56322D01*
X18081Y58297D02*
X18146Y58538D01*
X17995Y57654D02*
X18048Y58126D01*
X17460Y49522D02*
X19720Y48142D01*
X-60741Y-14034D02*
X-60703Y-14018D01*
X54466Y28704D02*
X55039Y29276D01*
X49249Y25864D02*
X49413Y26028D01*
X18146Y58538D02*
X18217Y59620D01*
X-6549Y63335D02*
X-5530Y62746D01*
X-42524Y45586D02*
X-41534Y46576D01*
X59964Y12827D02*
X60741Y14034D01*
X61417Y11131D02*
X61417Y8634D01*
D40*
X6396Y-57278D02*
D03*
D41*
X6283Y-56909D02*
G03*
X5096Y-56056I-1149J-347D01*
G01*
X3412Y-56107D02*
G03*
X3448Y-56107I0J1200D01*
G01*
X-553Y-52397D02*
G03*
X-1519Y-52702I-155J-1190D01*
G01*
X-553Y-52397D02*
G03*
X438Y-52409I553J4452D01*
G01*
X-1581Y-52762D02*
G03*
X-2165Y-54182I1432J-1420D01*
G01*
X-1519Y-52702D02*
G03*
X-1581Y-52762I1369J-1480D01*
G01*
X1843Y52716D02*
G03*
X2307Y54188I-1544J1296D01*
G01*
X-41515Y43142D02*
G03*
X-41886Y44706I-3446J7D01*
G01*
X56822Y8603D02*
G03*
X55807Y6153I2450J-2450D01*
G01*
X22047Y49606D02*
G03*
X22514Y49413I467J467D01*
G01*
X36220Y-44882D02*
G03*
X40253Y-43212I0J5703D01*
G01*
X35490Y-44882D02*
G03*
X29779Y-47248I0J-8077D01*
G01*
X50793Y-38009D02*
G03*
X51603Y-38331I819J878D01*
G01*
X45103Y-26207D02*
G03*
X44901Y-27742I1751J-1011D01*
G01*
X47308Y-30950D02*
G03*
X50793Y-38009I11264J1171D01*
G01*
X15394Y63535D02*
G03*
X14454Y62311I1008J-1746D01*
G01*
X-19422Y-52155D02*
G03*
X-21289Y-47639I-6373J9D01*
G01*
X-19422Y-52164D02*
G03*
X-16570Y-53345I2852J2852D01*
G01*
X-50735Y-30333D02*
G03*
X-53292Y-29276I-2550J-2550D01*
G01*
X46821Y-46385D02*
G03*
X47362Y-44441I-1464J1455D01*
G01*
X46820Y-46385D02*
G03*
X46821Y-46385I-1463J1455D01*
G01*
X-44901Y27742D02*
G03*
X-45847Y28970I-1948J-522D01*
G01*
X-45105Y26204D02*
G03*
X-44901Y27742I-1749J1015D01*
G01*
X50787Y-31102D02*
G03*
X52712Y-33027I1925J0D01*
G01*
X-54466Y-12352D02*
G03*
X-53248Y-11134I0J1218D01*
G01*
X-52250Y16095D02*
G03*
X-52274Y16101I-334J-1153D01*
G01*
X470Y52002D02*
G03*
X1843Y52716I-176J2014D01*
G01*
X16928Y63737D02*
G03*
X15394Y63535I-523J-1953D01*
G01*
X62720Y18436D02*
G03*
X61190Y18638I-1008J-1746D01*
G01*
X63662Y17208D02*
G03*
X62720Y18436I-1953J-523D01*
G01*
X44901Y-27742D02*
G03*
X45840Y-28966I1948J522D01*
G01*
X51217Y24224D02*
G03*
X52671Y23622I1453J1453D01*
G01*
X-21063Y-55315D02*
G03*
X-20032Y-57805I3522J0D01*
G01*
X47362Y-44441D02*
G03*
X47012Y-43846I-1166J-285D01*
G01*
X-19237Y52502D02*
G03*
X-19918Y51958I357J-1146D01*
G01*
X2130Y-65911D02*
X2154Y-63467D01*
X6396Y-57278D02*
X6398Y-57284D01*
X3448Y-56107D02*
X5096Y-56056D01*
X6283Y-56909D02*
X6396Y-57278D01*
X3140Y-56107D02*
X3412D01*
X2165Y-55807D02*
X3140Y-56107D01*
X-553Y-52397D02*
Y-52397D01*
X443Y-52419D02*
X443Y-52419D01*
X438Y-52409D02*
X440Y-52419D01*
X-1519Y-52702D02*
X-1519Y-52702D01*
X440Y-52419D02*
X443Y-52419D01*
X-12096Y-53424D02*
X-10781Y-48087D01*
X9843Y-48272D02*
X9855Y-48285D01*
X-3009Y-58432D02*
Y-56650D01*
X-4940Y-60364D02*
X-3009Y-58432D01*
X-4940Y-64729D02*
Y-60364D01*
X-1946Y-65957D02*
X-1726Y-66177D01*
X-5550Y-65745D02*
Y-65339D01*
X2165Y55807D02*
X2307Y54188D01*
X-12043Y53284D02*
X-11413Y50749D01*
X-25454Y48335D02*
X-24183Y46054D01*
X-19106Y63116D02*
X-19106Y63116D01*
X-18482Y60660D01*
X-34837Y55992D02*
X-33565Y53802D01*
X-48041Y44979D02*
Y45175D01*
X-13693Y59567D02*
X-13096Y57433D01*
X-13096Y57433D01*
X-28686Y53970D02*
X-27575Y52055D01*
X-27575Y52055D01*
X-42524Y45586D02*
X-41886Y44706D01*
X56822Y8603D02*
X56822D01*
X55807Y2165D02*
Y6153D01*
X22514Y49413D02*
X26028D01*
X35490Y-44882D02*
X36220D01*
X47085Y14543D02*
X52321Y16210D01*
X10675Y48110D02*
X12079Y53428D01*
X36318Y-33310D02*
X40202Y-37149D01*
X14469Y-47091D02*
X14525D01*
X-40179Y37155D02*
X-36239Y33396D01*
X-52325Y-16195D02*
X-47112Y-14457D01*
X52123Y-2110D02*
X54734Y-2149D01*
X51603Y-38331D02*
X51612Y-38331D01*
X49804Y-15516D02*
X52314Y-16239D01*
X45384Y-25720D02*
X45384Y-25720D01*
X45103Y-26207D02*
X45384Y-25720D01*
X47308Y-30950D02*
X47313Y-30942D01*
X56015Y34800D02*
X56015D01*
X45107Y48105D02*
X45107Y48105D01*
X43292Y46335D02*
X45107Y48105D01*
X53887Y33599D02*
X56015Y34800D01*
X16928Y63737D02*
X17842Y63484D01*
X17842Y63483D01*
X14034Y60741D02*
X14454Y62311D01*
X31073Y58166D02*
Y58166D01*
X29811Y55969D02*
X31073Y58166D01*
X-56382Y17260D02*
X-56382Y17260D01*
X-58529Y17810D02*
X-56382Y17260D01*
X-58361Y-8833D02*
X-57407D01*
X-61179Y2027D02*
X-58964Y2032D01*
X-58964D01*
X-19422Y-52164D02*
X-19422Y-52155D01*
X-16570Y-53345D02*
X-16535D01*
X-40168Y-37326D02*
X-38288Y-35514D01*
X-29177Y-46467D02*
X-27837Y-44225D01*
X-14847Y-64252D02*
X-14034Y-60741D01*
X-31073Y-58166D02*
X-29811Y-55969D01*
X-31073Y-58166D02*
X-31073Y-58166D01*
X-14847Y-64252D02*
X-14847Y-64252D01*
X-45107Y-48105D02*
X-43292Y-46335D01*
X-45107Y-48105D02*
X-45107Y-48105D01*
X-53292Y-29276D02*
X-53292D01*
X-53673Y-29496D02*
X-53292Y-29276D01*
X-31338Y-50163D02*
X-31338Y-50163D01*
X-32441Y-52083D02*
X-31338Y-50163D01*
X-43235Y-40313D02*
X-43235Y-40313D01*
X-44784Y-41897D02*
X-43235Y-40313D01*
X24234Y-46194D02*
X25506Y-48476D01*
X11465Y-50890D02*
X12094Y-53424D01*
X-2165Y-55807D02*
Y-54182D01*
X46820Y-46385D02*
X46821Y-46385D01*
X45006Y-48199D02*
X46820Y-46385D01*
X33565Y-53802D02*
X34837Y-55992D01*
X18482Y-60660D02*
X19106Y-63116D01*
X27626Y-52195D02*
X27626Y-52195D01*
X28738Y-54111D01*
X-44901Y27742D02*
X-44901Y27742D01*
X-45110Y26195D02*
X-45105Y26204D01*
X-49758Y15377D02*
X-49753Y15376D01*
X-54683Y2009D02*
X-52071Y1969D01*
X-53248Y-11134D02*
Y-8957D01*
X-64214Y15011D02*
X-61774Y14324D01*
X-64214Y15011D02*
X-64214D01*
X-65909Y-2173D02*
X-63376Y-2168D01*
X-62977Y-19241D02*
X-59620Y-18217D01*
X-63067Y-19268D02*
X-62977Y-19241D01*
X-63067Y-19268D02*
X-63067Y-19268D01*
X65909Y2173D02*
X65909D01*
X63376Y2168D02*
X65909Y2173D01*
X61774Y-14324D02*
X64214Y-15011D01*
X64214D01*
X59015Y-2173D02*
X61230Y-2168D01*
X59015Y-2173D02*
X59015D01*
X56433Y-17401D02*
X58580Y-17951D01*
X56433Y-17401D02*
X56433D01*
X52712Y-33027D02*
X53970D01*
X27940Y43944D02*
X29279Y46186D01*
X38391Y35233D02*
X40271Y37045D01*
X38391Y35233D02*
X38391Y35233D01*
X31440Y49882D02*
Y49882D01*
X32544Y51802D01*
X31440Y49882D02*
X31440Y49882D01*
X43338Y40032D02*
X44887Y41616D01*
X43337Y40032D02*
X43338Y40032D01*
X43337Y40032D02*
Y40032D01*
X52671Y23622D02*
X56572D01*
X56572Y23622D02*
X59055D01*
X60630Y25197D01*
X56572Y23622D02*
X56572Y23622D01*
X60741Y-14034D02*
X61774Y-14324D01*
X-22758Y-51595D02*
X-22726Y-51627D01*
X-22762Y-51593D02*
X-22758Y-51595D01*
X-25216Y-49955D02*
X-22762Y-51593D01*
X-26028Y-49413D02*
X-25216Y-49955D01*
X-5550Y-65339D02*
X-4940Y-64729D01*
X-3009Y-56650D02*
X-2165Y-55807D01*
X-57407Y-8833D02*
X-57284Y-8957D01*
X14469Y-47091D02*
Y-30130D01*
X40253Y-43212D02*
X45129Y-38336D01*
Y-38141D01*
X45856Y-37414D01*
Y-37008D01*
X51612Y-38331D02*
X58598D01*
X58849Y-38583D01*
X56052Y-29868D02*
X57680Y-31496D01*
X58065D01*
X56041Y-29868D02*
X56052D01*
X57720Y-35428D02*
X57869D01*
X55067Y-34124D02*
X56416D01*
X57720Y-35428D01*
X-2165Y-62303D02*
X-1946Y-62523D01*
Y-65957D02*
Y-62523D01*
X-55039Y-29276D02*
X-53673Y-29496D01*
X47248Y-29779D02*
X47313Y-30942D01*
X-52250Y16095D02*
X-49758Y15377D01*
X-45384Y25720D02*
X-45110Y26195D01*
X-47248Y29779D02*
X-46318Y29242D01*
X-45847Y28970D01*
X-90Y51952D02*
X470Y52002D01*
X-4912Y53933D02*
X-4111Y54734D01*
X-5318Y53933D02*
X-4912D01*
X-5318Y54137D02*
X-5318Y54137D01*
Y53933D02*
Y54137D01*
X14034Y60741D02*
X14337Y61770D01*
X59620Y18217D02*
X61190Y18638D01*
X63662Y17208D02*
X63808Y16665D01*
X46332Y-29219D02*
X47248Y-29779D01*
X49413Y26028D02*
X51217Y24224D01*
X-20032Y-57805D02*
X-18217Y-59620D01*
X45587Y-42525D02*
X47012Y-43846D01*
X45586Y-42524D02*
X45587Y-42525D01*
X-46632Y35133D02*
Y36439D01*
X-46919Y34846D02*
X-46632Y35133D01*
Y36439D02*
X-42500Y40571D01*
X-42500D01*
X-41515Y41556D02*
Y42946D01*
X-42500Y40571D02*
X-41515Y41556D01*
X-41515Y42946D02*
Y43142D01*
X49874Y-25169D02*
X51181Y-22736D01*
X54689Y-11403D02*
X56299Y-9449D01*
X-4111Y54734D02*
X-3140D01*
X-2165Y55709D02*
Y55807D01*
X-3140Y54734D02*
X-2165Y55709D01*
X-48041Y44979D02*
X-45586Y42524D01*
X-19237Y52502D02*
X-17467Y53054D01*
X-21260Y49625D02*
X-19918Y51958D01*
X-17467Y53054D02*
X-16535Y53345D01*
X58038Y30479D02*
X58268Y30709D01*
X57338Y30479D02*
X58038D01*
X55039Y29276D02*
X56135D01*
X57338Y30479D01*
X53970Y-33027D02*
X55067Y-34124D01*
X-53345Y-16535D02*
X-52325Y-16195D01*
X-40993Y37931D02*
X-40215Y37190D01*
X-40179Y37155D01*
X12079Y53428D02*
X12352Y54466D01*
X52321Y16210D02*
X53345Y16535D01*
X40229Y-37176D02*
X40993Y-37931D01*
X40202Y-37149D02*
X40229Y-37176D01*
X-12352Y-54466D02*
X-12096Y-53424D01*
X17521Y-53204D02*
X20165Y-52408D01*
X-37220Y-41661D02*
X-35208Y-43553D01*
X-46683Y-30749D02*
X-45230Y-33097D01*
X-55726Y-3281D02*
X-55641Y-6041D01*
X-55270Y8574D02*
X-54638Y11263D01*
X-51130Y22596D02*
X-49823Y25029D01*
X-32905Y45140D02*
X-30557Y46594D01*
X35208Y43553D02*
X37220Y41661D01*
X45332Y32816D02*
X46786Y30468D01*
X25506Y-48476D02*
X26028Y-49413D01*
X12094Y-53424D02*
X12352Y-54466D01*
X28738Y-54111D02*
X29276Y-55039D01*
X2154Y-63467D02*
Y-63376D01*
X2165Y-62303D01*
X33027Y-52873D02*
X33565Y-53802D01*
X18217Y-59620D02*
X18482Y-60660D01*
D42*
X9855Y-48285D02*
G03*
X36318Y-33310I-9855J48285D01*
G01*
X9855Y-48285D02*
G03*
X9852Y-48285I269J-1351D01*
G01*
X1776Y-49895D02*
G03*
X1342Y-50059I263J-1353D01*
G01*
X487Y-50385D02*
G03*
X1342Y-50059I-539J2702D01*
G01*
X-1699Y-49763D02*
G03*
X487Y-50385I1699J1819D01*
G01*
X-10781Y-48087D02*
G03*
X-2491Y-49402I16328J76129D01*
G01*
X-1699Y-49763D02*
G03*
X-2491Y-49402I-938J-1009D01*
G01*
X-47112Y-14457D02*
G03*
X-10781Y-48087I47112J14457D01*
G01*
X47085Y14543D02*
G03*
X10675Y48110I-47085J-14543D01*
G01*
X49280Y0D02*
G03*
X47085Y14543I-49280J0D01*
G01*
X36318Y-33310D02*
G03*
X49280Y0I-36318J33310D01*
G01*
X10675Y48110D02*
G03*
X-36239Y33396I-10675J-48110D01*
G01*
D02*
G03*
X-47112Y-14457I36239J-33396D01*
G01*
X1342Y-50059D02*
X1342D01*
X1776Y-49895D02*
X9852Y-48285D01*
D43*
X33474Y-40009D02*
D03*
D44*
X-37930Y40993D02*
Y42120D01*
X-36795Y43255D02*
Y45407D01*
X-37930Y42120D02*
X-36795Y43255D01*
D45*
X13216Y-57557D02*
X13717Y-59507D01*
X-61902Y22734D02*
X-61902Y22734D01*
D46*
X0Y0D02*
D03*
D47*
X62992Y62992D02*
D03*
Y-62992D02*
D03*
X-62992D02*
D03*
Y62992D02*
D03*
D48*
X-3062Y-44882D02*
D03*
X0Y-47944D02*
D03*
X0Y-41820D02*
D03*
X3062Y-44882D02*
D03*
X64960Y49213D02*
D03*
X67913Y-51181D02*
D03*
X59055Y49213D02*
D03*
X62008Y43307D02*
D03*
X59055Y37402D02*
D03*
X62008Y31496D02*
D03*
Y-39370D02*
D03*
Y-51181D02*
D03*
X53149Y49213D02*
D03*
X56102Y43307D02*
D03*
Y-51181D02*
D03*
X50197Y66929D02*
D03*
X47244Y61023D02*
D03*
X50197Y55118D02*
D03*
Y-62992D02*
D03*
X41339Y61023D02*
D03*
X44291Y55118D02*
D03*
Y-62992D02*
D03*
X35433Y61023D02*
D03*
Y13779D02*
D03*
Y1968D02*
D03*
X32480Y31496D02*
D03*
Y19685D02*
D03*
X29527Y13779D02*
D03*
X32480Y7874D02*
D03*
X29527Y1968D02*
D03*
X32480Y-3937D02*
D03*
X29527Y-9843D02*
D03*
X23622Y25590D02*
D03*
X26575Y19685D02*
D03*
X20669Y31496D02*
D03*
X17716Y25590D02*
D03*
X14764Y66929D02*
D03*
Y31496D02*
D03*
X8858D02*
D03*
X2953Y66929D02*
D03*
X-2953D02*
D03*
X-14764D02*
D03*
X-29528Y-21654D02*
D03*
X-35433Y61023D02*
D03*
X-41339D02*
D03*
X-47244D02*
D03*
X-44291Y55118D02*
D03*
Y-62992D02*
D03*
X-50197Y66929D02*
D03*
Y55118D02*
D03*
X-53150Y49213D02*
D03*
Y-45276D02*
D03*
X-50197Y-51181D02*
D03*
Y-62992D02*
D03*
X-59055Y49213D02*
D03*
X-56103Y43307D02*
D03*
X-59055Y37402D02*
D03*
Y-45276D02*
D03*
X-56103Y-51181D02*
D03*
X-64961Y49213D02*
D03*
X-62008Y43307D02*
D03*
Y31496D02*
D03*
Y-27559D02*
D03*
Y-39370D02*
D03*
Y-51181D02*
D03*
X-67914D02*
D03*
X25253Y-39391D02*
D03*
X34151Y-25197D02*
D03*
X-18799Y-27987D02*
D03*
X-28543Y-26791D02*
D03*
X-18504Y-34010D02*
D03*
X-30603Y-24591D02*
D03*
X-25197Y-33858D02*
D03*
X-34941Y-31004D02*
D03*
X-9843Y-66929D02*
D03*
X-1969Y-30709D02*
D03*
X-11035Y-32526D02*
D03*
X-6209Y-33078D02*
D03*
X7087Y53937D02*
D03*
X19685Y-39370D02*
D03*
X16339Y-25591D02*
D03*
X23622Y-19685D02*
D03*
X27559Y-15748D02*
D03*
X33465D02*
D03*
X-1969Y40157D02*
D03*
X11811D02*
D03*
X-22441Y33465D02*
D03*
X-25591Y22047D02*
D03*
X-31496Y15354D02*
D03*
X-40157Y9055D02*
D03*
X-29528Y-11811D02*
D03*
X-33465Y-3937D02*
D03*
X33858Y-30315D02*
D03*
X39370Y3937D02*
D03*
X-9843Y42913D02*
D03*
X40062Y-21654D02*
D03*
X46457Y-5118D02*
D03*
X-35433Y-12598D02*
D03*
X35827Y-6693D02*
D03*
X42126Y13780D02*
D03*
X27559Y34252D02*
D03*
X23228Y36614D02*
D03*
X-14567Y40551D02*
D03*
X-394Y22835D02*
D03*
X-6060Y22019D02*
D03*
X-11346Y19820D02*
D03*
X-15918Y16376D02*
D03*
X-19491Y11903D02*
D03*
X-21839Y6682D02*
D03*
X-22814Y1041D02*
D03*
X-22356Y-4665D02*
D03*
X-20494Y-10079D02*
D03*
X-17344Y-14859D02*
D03*
X-13103Y-18705D02*
D03*
X-8040Y-21376D02*
D03*
X-2471Y-22704D02*
D03*
X3252Y-22605D02*
D03*
X8772Y-21086D02*
D03*
X13740Y-18242D02*
D03*
X17845Y-14252D02*
D03*
X20829Y-9366D02*
D03*
X22504Y-3892D02*
D03*
X22765Y1827D02*
D03*
X21595Y7431D02*
D03*
X19069Y12568D02*
D03*
X15344Y16915D02*
D03*
X10656Y20200D02*
D03*
X5297Y22215D02*
D03*
D49*
X20472Y-25984D02*
D03*
X-41220Y-1438D02*
D03*
X-40866Y14177D02*
D03*
X-44094Y14173D02*
D03*
X-25984Y16535D02*
D03*
X18504Y38189D02*
D03*
X-18504D02*
D03*
X22933Y-23819D02*
D03*
D50*
X6398Y-57284D02*
D03*
X2067Y-67129D02*
D03*
X10630Y-29968D02*
D03*
X5689Y-29914D02*
D03*
X-1726Y-66177D02*
D03*
X-5550Y-65745D02*
D03*
X60630Y25197D02*
D03*
X-22726Y-51627D02*
D03*
X-57284Y-8957D02*
D03*
X45856Y-37008D02*
D03*
X58849Y-38583D02*
D03*
X58122Y-31553D02*
D03*
X57869Y-35428D02*
D03*
X22047Y49606D02*
D03*
X-5318Y53933D02*
D03*
X-46919Y34846D02*
D03*
X1575Y-30020D02*
D03*
X14469Y-30130D02*
D03*
X-36795Y45407D02*
D03*
X51181Y-22736D02*
D03*
X56299Y-9449D02*
D03*
X-53248Y-8957D02*
D03*
X56822Y8603D02*
D03*
X-52615Y39754D02*
D03*
X-19422Y-52164D02*
D03*
X-21260Y49625D02*
D03*
X-62992Y-19193D02*
D03*
X-21063Y-55315D02*
D03*
X-14847Y-64252D02*
D03*
X58268Y30709D02*
D03*
X56015Y34800D02*
D03*
X20165Y-52408D02*
D03*
X-35208Y-43553D02*
D03*
X-45230Y-33097D02*
D03*
X-55641Y-6041D02*
D03*
X-55270Y8574D02*
D03*
X-51130Y22596D02*
D03*
X-32905Y45140D02*
D03*
X35208Y43553D02*
D03*
X45332Y32816D02*
D03*
D51*
X55767Y-66268D02*
D03*
X59118Y-69799D02*
D03*
X63905Y-70685D02*
D03*
X68590Y68298D02*
D03*
X64311Y70621D02*
D03*
X59485Y69986D02*
D03*
X55954Y66634D02*
D03*
X55067Y61848D02*
D03*
X57163Y57454D02*
D03*
X61441Y55131D02*
D03*
X66268Y55767D02*
D03*
X69799Y59118D02*
D03*
X70685Y63905D02*
D03*
X-63905Y70685D02*
D03*
X-59118Y69799D02*
D03*
X-55767Y66268D02*
D03*
X-55131Y61441D02*
D03*
X-57454Y57163D02*
D03*
X-61848Y55067D02*
D03*
X-66634Y55954D02*
D03*
X-69986Y59485D02*
D03*
X-70621Y64311D02*
D03*
X-68298Y68590D02*
D03*
X-68590Y-68298D02*
D03*
X-64311Y-70621D02*
D03*
X-59485Y-69986D02*
D03*
X-55954Y-66634D02*
D03*
X-55067Y-61848D02*
D03*
X-57163Y-57454D02*
D03*
X-61441Y-55131D02*
D03*
X-66268Y-55767D02*
D03*
X-69799Y-59118D02*
D03*
X-70685Y-63905D02*
D03*
X68298Y-68590D02*
D03*
X70621Y-64311D02*
D03*
X69986Y-59485D02*
D03*
X66634Y-55954D02*
D03*
X61848Y-55067D02*
D03*
X57454Y-57163D02*
D03*
X55131Y-61441D02*
D03*
M02*
