G04*
G04 #@! TF.GenerationSoftware,Altium Limited,Altium Designer,21.8.1 (53)*
G04*
G04 Layer_Color=16711935*
%FSLAX25Y25*%
%MOIN*%
G70*
G04*
G04 #@! TF.SameCoordinates,509546C8-056D-42BE-A314-9817B2043C00*
G04*
G04*
G04 #@! TF.FilePolarity,Negative*
G04*
G01*
G75*
%ADD37C,0.55918*%
%ADD38C,0.20485*%
%ADD74C,0.00100*%
G04:AMPARAMS|DCode=75|XSize=67.06mil|YSize=56.42mil|CornerRadius=16.11mil|HoleSize=0mil|Usage=FLASHONLY|Rotation=225.000|XOffset=0mil|YOffset=0mil|HoleType=Round|Shape=RoundedRectangle|*
%AMROUNDEDRECTD75*
21,1,0.06706,0.02421,0,0,225.0*
21,1,0.03484,0.05642,0,0,225.0*
1,1,0.03221,-0.02088,-0.00376*
1,1,0.03221,0.00376,0.02088*
1,1,0.03221,0.02088,0.00376*
1,1,0.03221,-0.00376,-0.02088*
%
%ADD75ROUNDEDRECTD75*%
%ADD76O,0.04737X0.02769*%
%ADD77R,0.07800X0.05400*%
%ADD78C,0.02769*%
G04:AMPARAMS|DCode=79|XSize=32.5mil|YSize=34mil|CornerRadius=10.13mil|HoleSize=0mil|Usage=FLASHONLY|Rotation=180.000|XOffset=0mil|YOffset=0mil|HoleType=Round|Shape=RoundedRectangle|*
%AMROUNDEDRECTD79*
21,1,0.03250,0.01375,0,0,180.0*
21,1,0.01225,0.03400,0,0,180.0*
1,1,0.02025,-0.00613,0.00688*
1,1,0.02025,0.00613,0.00688*
1,1,0.02025,0.00613,-0.00688*
1,1,0.02025,-0.00613,-0.00688*
%
%ADD79ROUNDEDRECTD79*%
G04:AMPARAMS|DCode=80|XSize=31.62mil|YSize=29.65mil|CornerRadius=9.41mil|HoleSize=0mil|Usage=FLASHONLY|Rotation=270.000|XOffset=0mil|YOffset=0mil|HoleType=Round|Shape=RoundedRectangle|*
%AMROUNDEDRECTD80*
21,1,0.03162,0.01083,0,0,270.0*
21,1,0.01280,0.02965,0,0,270.0*
1,1,0.01883,-0.00541,-0.00640*
1,1,0.01883,-0.00541,0.00640*
1,1,0.01883,0.00541,0.00640*
1,1,0.01883,0.00541,-0.00640*
%
%ADD80ROUNDEDRECTD80*%
G04:AMPARAMS|DCode=81|XSize=16.66mil|YSize=33.2mil|CornerRadius=0mil|HoleSize=0mil|Usage=FLASHONLY|Rotation=45.000|XOffset=0mil|YOffset=0mil|HoleType=Round|Shape=Round|*
%AMOVALD81*
21,1,0.01654,0.01666,0.00000,0.00000,135.0*
1,1,0.01666,0.00585,-0.00585*
1,1,0.01666,-0.00585,0.00585*
%
%ADD81OVALD81*%

G04:AMPARAMS|DCode=82|XSize=16.66mil|YSize=33.2mil|CornerRadius=0mil|HoleSize=0mil|Usage=FLASHONLY|Rotation=135.000|XOffset=0mil|YOffset=0mil|HoleType=Round|Shape=Round|*
%AMOVALD82*
21,1,0.01654,0.01666,0.00000,0.00000,225.0*
1,1,0.01666,0.00585,0.00585*
1,1,0.01666,-0.00585,-0.00585*
%
%ADD82OVALD82*%

%ADD83P,0.16721X4X180.0*%
G04:AMPARAMS|DCode=84|XSize=39.5mil|YSize=70.99mil|CornerRadius=11.87mil|HoleSize=0mil|Usage=FLASHONLY|Rotation=26.000|XOffset=0mil|YOffset=0mil|HoleType=Round|Shape=RoundedRectangle|*
%AMROUNDEDRECTD84*
21,1,0.03950,0.04724,0,0,26.0*
21,1,0.01575,0.07099,0,0,26.0*
1,1,0.02375,0.01743,-0.01778*
1,1,0.02375,0.00328,-0.02468*
1,1,0.02375,-0.01743,0.01778*
1,1,0.02375,-0.00328,0.02468*
%
%ADD84ROUNDEDRECTD84*%
G04:AMPARAMS|DCode=85|XSize=90.68mil|YSize=126.11mil|CornerRadius=24.67mil|HoleSize=0mil|Usage=FLASHONLY|Rotation=26.000|XOffset=0mil|YOffset=0mil|HoleType=Round|Shape=RoundedRectangle|*
%AMROUNDEDRECTD85*
21,1,0.09068,0.07677,0,0,26.0*
21,1,0.04134,0.12611,0,0,26.0*
1,1,0.04934,0.03541,-0.02544*
1,1,0.04934,-0.00175,-0.04356*
1,1,0.04934,-0.03541,0.02544*
1,1,0.04934,0.00175,0.04356*
%
%ADD85ROUNDEDRECTD85*%
G04:AMPARAMS|DCode=86|XSize=44mil|YSize=59mil|CornerRadius=13mil|HoleSize=0mil|Usage=FLASHONLY|Rotation=180.000|XOffset=0mil|YOffset=0mil|HoleType=Round|Shape=RoundedRectangle|*
%AMROUNDEDRECTD86*
21,1,0.04400,0.03300,0,0,180.0*
21,1,0.01800,0.05900,0,0,180.0*
1,1,0.02600,-0.00900,0.01650*
1,1,0.02600,0.00900,0.01650*
1,1,0.02600,0.00900,-0.01650*
1,1,0.02600,-0.00900,-0.01650*
%
%ADD86ROUNDEDRECTD86*%
G04:AMPARAMS|DCode=87|XSize=32.5mil|YSize=34mil|CornerRadius=10.13mil|HoleSize=0mil|Usage=FLASHONLY|Rotation=270.000|XOffset=0mil|YOffset=0mil|HoleType=Round|Shape=RoundedRectangle|*
%AMROUNDEDRECTD87*
21,1,0.03250,0.01375,0,0,270.0*
21,1,0.01225,0.03400,0,0,270.0*
1,1,0.02025,-0.00688,-0.00613*
1,1,0.02025,-0.00688,0.00613*
1,1,0.02025,0.00688,0.00613*
1,1,0.02025,0.00688,-0.00613*
%
%ADD87ROUNDEDRECTD87*%
G04:AMPARAMS|DCode=88|XSize=32.5mil|YSize=34mil|CornerRadius=10.13mil|HoleSize=0mil|Usage=FLASHONLY|Rotation=315.000|XOffset=0mil|YOffset=0mil|HoleType=Round|Shape=RoundedRectangle|*
%AMROUNDEDRECTD88*
21,1,0.03250,0.01375,0,0,315.0*
21,1,0.01225,0.03400,0,0,315.0*
1,1,0.02025,-0.00053,-0.00919*
1,1,0.02025,-0.00919,-0.00053*
1,1,0.02025,0.00053,0.00919*
1,1,0.02025,0.00919,0.00053*
%
%ADD88ROUNDEDRECTD88*%
G04:AMPARAMS|DCode=89|XSize=90.68mil|YSize=126.11mil|CornerRadius=24.67mil|HoleSize=0mil|Usage=FLASHONLY|Rotation=154.000|XOffset=0mil|YOffset=0mil|HoleType=Round|Shape=RoundedRectangle|*
%AMROUNDEDRECTD89*
21,1,0.09068,0.07677,0,0,154.0*
21,1,0.04134,0.12611,0,0,154.0*
1,1,0.04934,-0.00175,0.04356*
1,1,0.04934,0.03541,0.02544*
1,1,0.04934,0.00175,-0.04356*
1,1,0.04934,-0.03541,-0.02544*
%
%ADD89ROUNDEDRECTD89*%
G04:AMPARAMS|DCode=90|XSize=39.5mil|YSize=70.99mil|CornerRadius=11.87mil|HoleSize=0mil|Usage=FLASHONLY|Rotation=334.000|XOffset=0mil|YOffset=0mil|HoleType=Round|Shape=RoundedRectangle|*
%AMROUNDEDRECTD90*
21,1,0.03950,0.04724,0,0,334.0*
21,1,0.01575,0.07099,0,0,334.0*
1,1,0.02375,-0.00328,-0.02468*
1,1,0.02375,-0.01743,-0.01778*
1,1,0.02375,0.00328,0.02468*
1,1,0.02375,0.01743,0.01778*
%
%ADD90ROUNDEDRECTD90*%
G04:AMPARAMS|DCode=91|XSize=32.5mil|YSize=34mil|CornerRadius=10.13mil|HoleSize=0mil|Usage=FLASHONLY|Rotation=270.000|XOffset=0mil|YOffset=0mil|HoleType=Round|Shape=RoundedRectangle|*
%AMROUNDEDRECTD91*
21,1,0.03250,0.01375,0,0,270.0*
21,1,0.01225,0.03400,0,0,270.0*
1,1,0.02025,-0.00688,-0.00613*
1,1,0.02025,-0.00688,0.00613*
1,1,0.02025,0.00688,0.00613*
1,1,0.02025,0.00688,-0.00613*
%
%ADD91ROUNDEDRECTD91*%
G04:AMPARAMS|DCode=92|XSize=32.5mil|YSize=34mil|CornerRadius=10.13mil|HoleSize=0mil|Usage=FLASHONLY|Rotation=270.000|XOffset=0mil|YOffset=0mil|HoleType=Round|Shape=RoundedRectangle|*
%AMROUNDEDRECTD92*
21,1,0.03250,0.01375,0,0,270.0*
21,1,0.01225,0.03400,0,0,270.0*
1,1,0.02025,-0.00688,-0.00613*
1,1,0.02025,-0.00688,0.00613*
1,1,0.02025,0.00688,0.00613*
1,1,0.02025,0.00688,-0.00613*
%
%ADD92ROUNDEDRECTD92*%
G04:AMPARAMS|DCode=93|XSize=31.62mil|YSize=29.65mil|CornerRadius=9.41mil|HoleSize=0mil|Usage=FLASHONLY|Rotation=0.000|XOffset=0mil|YOffset=0mil|HoleType=Round|Shape=RoundedRectangle|*
%AMROUNDEDRECTD93*
21,1,0.03162,0.01083,0,0,0.0*
21,1,0.01280,0.02965,0,0,0.0*
1,1,0.01883,0.00640,-0.00541*
1,1,0.01883,-0.00640,-0.00541*
1,1,0.01883,-0.00640,0.00541*
1,1,0.01883,0.00640,0.00541*
%
%ADD93ROUNDEDRECTD93*%
G04:AMPARAMS|DCode=94|XSize=31.62mil|YSize=29.65mil|CornerRadius=9.41mil|HoleSize=0mil|Usage=FLASHONLY|Rotation=45.000|XOffset=0mil|YOffset=0mil|HoleType=Round|Shape=RoundedRectangle|*
%AMROUNDEDRECTD94*
21,1,0.03162,0.01083,0,0,45.0*
21,1,0.01280,0.02965,0,0,45.0*
1,1,0.01883,0.00835,0.00070*
1,1,0.01883,-0.00070,-0.00835*
1,1,0.01883,-0.00835,-0.00070*
1,1,0.01883,0.00070,0.00835*
%
%ADD94ROUNDEDRECTD94*%
G36*
X42976Y29225D02*
X42998Y29225D01*
X43002Y29224D01*
X43006Y29224D01*
X43028Y29220D01*
X43050Y29216D01*
X43054Y29215D01*
X43058Y29214D01*
X43079Y29207D01*
X43100Y29201D01*
X43104Y29199D01*
X43108Y29198D01*
X43128Y29188D01*
X43148Y29179D01*
X43151Y29177D01*
X43155Y29175D01*
X43174Y29163D01*
X43192Y29151D01*
X43195Y29149D01*
X43199Y29146D01*
X43216Y29132D01*
X43233Y29118D01*
X43236Y29115D01*
X43239Y29112D01*
X43253Y29096D01*
X43269Y29079D01*
X43271Y29076D01*
X43274Y29073D01*
X43286Y29055D01*
X43299Y29037D01*
X46986Y23087D01*
X47009Y23043D01*
X47011Y23040D01*
D01*
X47011Y23040D01*
X47023Y23008D01*
X47029Y22991D01*
Y22991D01*
X47029Y22991D01*
X47041Y22940D01*
X47045Y22903D01*
X47046Y22888D01*
Y22888D01*
Y22888D01*
X47045Y22836D01*
X47036Y22784D01*
X47022Y22738D01*
X47021Y22734D01*
Y22734D01*
X47021Y22734D01*
X47015Y22722D01*
X46999Y22686D01*
X46986Y22665D01*
X46971Y22641D01*
X46944Y22609D01*
X46938Y22601D01*
X46938Y22601D01*
Y22601D01*
X46932Y22596D01*
X46900Y22565D01*
X46857Y22535D01*
X46857Y22535D01*
X46857Y22535D01*
X46857Y22535D01*
X46564Y22353D01*
X46552Y22347D01*
X46541Y22340D01*
X46529Y22335D01*
X46518Y22329D01*
X46505Y22324D01*
X46493Y22319D01*
X45848Y22077D01*
X45835Y22073D01*
X45823Y22068D01*
X45810Y22065D01*
X45797Y22061D01*
X45785Y22059D01*
X45772Y22056D01*
X45091Y21945D01*
X45078Y21944D01*
X45065Y21942D01*
X45052Y21941D01*
X45039Y21940D01*
X45026Y21940D01*
X45013Y21940D01*
X44324Y21964D01*
X44311Y21965D01*
X44298Y21966D01*
X44285Y21968D01*
X44272Y21969D01*
X44259Y21972D01*
X44246Y21974D01*
X43575Y22132D01*
X43562Y22136D01*
X43549Y22139D01*
X43537Y22143D01*
X43525Y22147D01*
X43513Y22152D01*
X43500Y22157D01*
X42873Y22443D01*
X42861Y22449D01*
X42849Y22454D01*
X42838Y22461D01*
X42827Y22467D01*
X42816Y22475D01*
X42805Y22482D01*
X42245Y22884D01*
X42235Y22893D01*
X42224Y22900D01*
X42215Y22909D01*
X42204Y22918D01*
X42195Y22927D01*
X42186Y22936D01*
X41715Y23440D01*
X41707Y23450D01*
X41698Y23460D01*
X41691Y23471D01*
X41682Y23481D01*
X41675Y23492D01*
X41668Y23503D01*
X41486Y23796D01*
X41486Y23796D01*
X41305Y24089D01*
X41298Y24100D01*
X41291Y24112D01*
X41286Y24124D01*
X41280Y24135D01*
X41275Y24147D01*
X41270Y24159D01*
X41028Y24805D01*
X41024Y24817D01*
X41020Y24830D01*
X41017Y24843D01*
X41013Y24855D01*
X41011Y24868D01*
X41008Y24881D01*
X40897Y25561D01*
X40895Y25574D01*
X40893Y25587D01*
X40893Y25600D01*
X40892Y25613D01*
X40892Y25627D01*
X40892Y25640D01*
X40915Y26329D01*
X40916Y26342D01*
X40917Y26355D01*
X40919Y26368D01*
X40920Y26381D01*
X40923Y26394D01*
X40925Y26407D01*
X41083Y27078D01*
X41087Y27090D01*
X41090Y27103D01*
X41095Y27115D01*
X41098Y27128D01*
X41104Y27140D01*
X41109Y27152D01*
X41394Y27780D01*
X41400Y27791D01*
X41406Y27803D01*
X41412Y27814D01*
X41419Y27826D01*
X41427Y27837D01*
X41433Y27848D01*
X41836Y28407D01*
X41844Y28418D01*
X41852Y28428D01*
X41861Y28438D01*
X41869Y28448D01*
X41879Y28457D01*
X41888Y28466D01*
X42392Y28937D01*
X42402Y28945D01*
X42411Y28954D01*
X42422Y28962D01*
X42432Y28970D01*
X42443Y28977D01*
X42454Y28985D01*
X42747Y29166D01*
X42747Y29166D01*
X42751Y29168D01*
X42754Y29171D01*
X42774Y29180D01*
X42793Y29191D01*
X42797Y29193D01*
X42801Y29194D01*
X42822Y29202D01*
X42843Y29209D01*
X42847Y29210D01*
X42850Y29212D01*
X42872Y29216D01*
X42894Y29221D01*
X42898Y29222D01*
X42902Y29223D01*
X42924Y29224D01*
X42946Y29226D01*
X42950Y29226D01*
X42954Y29226D01*
X42976Y29225D01*
D02*
G37*
G36*
X45327Y30225D02*
X45340Y30225D01*
X46029Y30202D01*
X46042Y30200D01*
X46055Y30200D01*
X46068Y30198D01*
X46081Y30196D01*
X46094Y30193D01*
X46107Y30191D01*
X46778Y30034D01*
X46791Y30030D01*
X46804Y30027D01*
X46816Y30022D01*
X46828Y30018D01*
X46840Y30013D01*
X46853Y30008D01*
X47480Y29723D01*
X47492Y29717D01*
X47504Y29711D01*
X47515Y29704D01*
X47526Y29698D01*
X47537Y29690D01*
X47548Y29683D01*
X48108Y29281D01*
X48118Y29272D01*
X48129Y29265D01*
X48138Y29256D01*
X48148Y29247D01*
X48157Y29238D01*
X48167Y29229D01*
X48637Y28725D01*
X48646Y28715D01*
X48655Y28705D01*
X48662Y28694D01*
X48671Y28684D01*
X48678Y28673D01*
X48685Y28662D01*
X48867Y28370D01*
X48867Y28369D01*
X49048Y28076D01*
X49054Y28065D01*
X49061Y28054D01*
X49067Y28042D01*
X49073Y28030D01*
X49077Y28018D01*
X49083Y28006D01*
X49325Y27360D01*
X49329Y27348D01*
X49333Y27336D01*
X49336Y27323D01*
X49340Y27310D01*
X49342Y27297D01*
X49345Y27284D01*
X49456Y26604D01*
X49457Y26591D01*
X49460Y26578D01*
X49460Y26565D01*
X49461Y26552D01*
X49461Y26539D01*
X49461Y26526D01*
X49438Y25837D01*
X49436Y25824D01*
X49436Y25810D01*
X49434Y25798D01*
X49433Y25784D01*
X49430Y25772D01*
X49427Y25759D01*
X49270Y25087D01*
X49266Y25075D01*
X49263Y25062D01*
X49258Y25050D01*
X49254Y25037D01*
X49249Y25025D01*
X49244Y25013D01*
X48959Y24386D01*
X48953Y24374D01*
X48947Y24362D01*
X48940Y24351D01*
X48934Y24339D01*
X48926Y24329D01*
X48919Y24318D01*
X48517Y23758D01*
X48509Y23748D01*
X48501Y23737D01*
X48492Y23727D01*
X48484Y23717D01*
X48474Y23708D01*
X48465Y23699D01*
X47961Y23228D01*
X47951Y23220D01*
X47941Y23211D01*
X47931Y23203D01*
X47921Y23195D01*
X47909Y23188D01*
X47899Y23180D01*
X47606Y22999D01*
X47606Y22999D01*
X47600Y22996D01*
X47595Y22993D01*
X47577Y22984D01*
X47559Y22974D01*
X47554Y22972D01*
X47548Y22969D01*
X47529Y22963D01*
X47510Y22956D01*
X47504Y22954D01*
X47498Y22952D01*
X47479Y22949D01*
X47459Y22944D01*
X47453Y22943D01*
X47447Y22942D01*
X47427Y22941D01*
X47407Y22939D01*
X47401Y22939D01*
X47395Y22939D01*
X47375Y22940D01*
X47355Y22941D01*
X47348Y22942D01*
X47342Y22942D01*
X47323Y22946D01*
X47303Y22949D01*
X47297Y22951D01*
X47291Y22952D01*
X47272Y22959D01*
X47253Y22965D01*
X47247Y22967D01*
X47241Y22969D01*
X47223Y22978D01*
X47205Y22986D01*
X47200Y22990D01*
X47194Y22993D01*
X47178Y23004D01*
X47161Y23014D01*
X47156Y23018D01*
X47150Y23022D01*
X47135Y23035D01*
X47120Y23047D01*
X47116Y23052D01*
X47111Y23056D01*
X47098Y23071D01*
X47084Y23086D01*
X47081Y23091D01*
X47076Y23096D01*
X47065Y23112D01*
X47054Y23129D01*
X43367Y29079D01*
X43343Y29122D01*
X43342Y29125D01*
D01*
X43342Y29125D01*
X43330Y29158D01*
X43323Y29174D01*
Y29174D01*
X43323Y29174D01*
X43312Y29225D01*
X43308Y29262D01*
X43307Y29277D01*
Y29277D01*
Y29277D01*
X43308Y29330D01*
X43317Y29381D01*
X43328Y29416D01*
X43332Y29432D01*
X43354Y29479D01*
X43367Y29500D01*
X43382Y29524D01*
X43409Y29556D01*
X43415Y29564D01*
X43415Y29564D01*
Y29564D01*
X43420Y29569D01*
X43453Y29600D01*
X43462Y29606D01*
X43496Y29631D01*
X43496Y29631D01*
X43789Y29812D01*
X43801Y29818D01*
X43812Y29825D01*
X43824Y29831D01*
X43835Y29837D01*
X43848Y29841D01*
X43860Y29847D01*
X44505Y30089D01*
X44518Y30092D01*
X44530Y30097D01*
X44543Y30100D01*
X44556Y30104D01*
X44568Y30106D01*
X44581Y30109D01*
X45262Y30220D01*
X45275Y30221D01*
X45288Y30224D01*
X45301Y30224D01*
X45314Y30225D01*
X45327Y30225D01*
D02*
G37*
G36*
X49867Y20181D02*
X49880Y20181D01*
X50568Y20146D01*
X50582Y20145D01*
X50595Y20144D01*
X50608Y20142D01*
X50621Y20140D01*
X50633Y20137D01*
X50646Y20135D01*
X51315Y19966D01*
X51327Y19962D01*
X51340Y19959D01*
X51352Y19954D01*
X51365Y19950D01*
X51377Y19944D01*
X51389Y19940D01*
X52012Y19644D01*
X52023Y19637D01*
X52035Y19632D01*
X52046Y19625D01*
X52057Y19618D01*
X52068Y19611D01*
X52079Y19603D01*
X52632Y19192D01*
X52642Y19183D01*
X52653Y19176D01*
X52662Y19166D01*
X52672Y19158D01*
X52681Y19148D01*
X52690Y19139D01*
X53153Y18628D01*
X53161Y18617D01*
X53169Y18608D01*
X53177Y18597D01*
X53185Y18586D01*
X53192Y18575D01*
X53199Y18564D01*
X53553Y17972D01*
X53559Y17961D01*
X53566Y17950D01*
X53571Y17937D01*
X53577Y17926D01*
X53581Y17913D01*
X53586Y17901D01*
X53702Y17577D01*
X53702Y17577D01*
X53818Y17252D01*
X53821Y17239D01*
X53826Y17227D01*
X53828Y17214D01*
X53832Y17201D01*
X53834Y17188D01*
X53837Y17176D01*
X53937Y16493D01*
X53938Y16480D01*
X53940Y16467D01*
X53940Y16454D01*
X53941Y16441D01*
X53940Y16428D01*
X53940Y16415D01*
X53906Y15726D01*
X53904Y15713D01*
X53904Y15700D01*
X53901Y15687D01*
X53900Y15674D01*
X53896Y15662D01*
X53894Y15649D01*
X53726Y14980D01*
X53722Y14968D01*
X53718Y14955D01*
X53713Y14943D01*
X53710Y14930D01*
X53704Y14919D01*
X53699Y14906D01*
X53403Y14283D01*
X53397Y14272D01*
X53391Y14260D01*
X53384Y14249D01*
X53378Y14238D01*
X53370Y14227D01*
X53363Y14216D01*
X52951Y13663D01*
X52943Y13653D01*
X52935Y13642D01*
X52926Y13633D01*
X52917Y13623D01*
X52908Y13614D01*
X52899Y13605D01*
X52387Y13142D01*
X52377Y13134D01*
X52367Y13126D01*
X52356Y13118D01*
X52346Y13110D01*
X52335Y13103D01*
X52324Y13096D01*
X51732Y12742D01*
X51720Y12736D01*
X51709Y12729D01*
X51697Y12724D01*
X51685Y12718D01*
X51673Y12714D01*
X51661Y12709D01*
X51336Y12593D01*
X51333Y12592D01*
X51331Y12591D01*
X51309Y12585D01*
X51286Y12579D01*
X51283Y12578D01*
X51280Y12578D01*
X51257Y12574D01*
X51234Y12571D01*
X51231Y12571D01*
X51228Y12571D01*
X51205Y12571D01*
X51181Y12570D01*
X51178Y12571D01*
X51176D01*
X51152Y12574D01*
X51129Y12576D01*
X51127Y12577D01*
X51124Y12577D01*
X51101Y12584D01*
X51078Y12589D01*
X51076Y12590D01*
X51073Y12591D01*
X51051Y12600D01*
X51030Y12608D01*
X51027Y12610D01*
X51025Y12611D01*
X51004Y12623D01*
X50989Y12631D01*
X50984Y12634D01*
X50982Y12636D01*
X50979Y12637D01*
X50979Y12637D01*
X50960Y12652D01*
X50942Y12665D01*
X50940Y12667D01*
X50938Y12669D01*
X50921Y12686D01*
X50904Y12702D01*
X50902Y12704D01*
X50900Y12706D01*
X50886Y12725D01*
X50872Y12743D01*
X50870Y12745D01*
X50868Y12748D01*
X50857Y12768D01*
X50845Y12788D01*
X50844Y12791D01*
X50842Y12793D01*
X50833Y12815D01*
X50824Y12836D01*
X48475Y19430D01*
Y19430D01*
Y19430D01*
X48475Y19430D01*
X48461Y19481D01*
X48453Y19533D01*
X48452Y19583D01*
X48452Y19585D01*
D01*
Y19585D01*
X48458Y19637D01*
X48468Y19676D01*
X48471Y19688D01*
X48471Y19688D01*
Y19688D01*
X48474Y19695D01*
X48491Y19737D01*
X48513Y19777D01*
X48516Y19783D01*
X48531Y19803D01*
X48548Y19825D01*
X48584Y19862D01*
D01*
X48584Y19862D01*
X48594Y19870D01*
X48625Y19895D01*
X48647Y19908D01*
X48670Y19922D01*
X48708Y19938D01*
X48718Y19942D01*
X49043Y20058D01*
X49056Y20062D01*
X49068Y20066D01*
X49081Y20069D01*
X49093Y20073D01*
X49106Y20074D01*
X49119Y20077D01*
X49801Y20177D01*
X49815Y20178D01*
X49828Y20180D01*
X49841Y20180D01*
X49854Y20182D01*
X49867Y20181D01*
D02*
G37*
G36*
X48030Y19669D02*
X48043Y19670D01*
X48056Y19668D01*
X48068Y19668D01*
X48082Y19665D01*
X48095Y19663D01*
X48107Y19660D01*
X48120Y19658D01*
X48133Y19654D01*
X48146Y19651D01*
X48158Y19646D01*
X48170Y19642D01*
X48182Y19636D01*
X48195Y19631D01*
X48206Y19625D01*
X48217Y19620D01*
X48229Y19612D01*
X48241Y19606D01*
X48251Y19598D01*
X48261Y19591D01*
X48272Y19583D01*
X48283Y19575D01*
X48292Y19566D01*
X48302Y19557D01*
X48311Y19547D01*
X48320Y19538D01*
X48328Y19528D01*
X48337Y19519D01*
X48344Y19508D01*
X48353Y19497D01*
X48353Y19497D01*
D01*
X48359Y19486D01*
X48367Y19476D01*
X48367Y19476D01*
X48373Y19463D01*
X48380Y19452D01*
X48385Y19440D01*
X48391Y19429D01*
X48395Y19416D01*
X48401Y19404D01*
X50749Y12810D01*
Y12810D01*
Y12810D01*
X50749Y12810D01*
X50752Y12799D01*
X50763Y12759D01*
X50771Y12707D01*
X50772Y12655D01*
D01*
Y12655D01*
X50770Y12641D01*
X50766Y12603D01*
X50753Y12552D01*
X50753Y12552D01*
Y12552D01*
X50750Y12545D01*
X50734Y12503D01*
X50711Y12463D01*
X50708Y12457D01*
X50693Y12437D01*
X50677Y12415D01*
X50640Y12378D01*
D01*
X50640Y12378D01*
X50631Y12370D01*
X50599Y12345D01*
X50554Y12318D01*
X50554Y12318D01*
X50554D01*
X50539Y12312D01*
X50506Y12297D01*
X50181Y12182D01*
X50169Y12178D01*
X50156Y12174D01*
X50144Y12171D01*
X50131Y12167D01*
X50118Y12166D01*
X50105Y12163D01*
X49423Y12063D01*
X49410Y12061D01*
X49397Y12060D01*
X49384Y12059D01*
X49371Y12058D01*
X49358Y12059D01*
X49345Y12059D01*
X48656Y12094D01*
X48643Y12095D01*
X48630Y12096D01*
X48617Y12098D01*
X48604Y12100D01*
X48591Y12103D01*
X48578Y12105D01*
X47910Y12274D01*
X47897Y12278D01*
X47884Y12281D01*
X47872Y12286D01*
X47860Y12290D01*
X47848Y12296D01*
X47836Y12300D01*
X47213Y12596D01*
X47201Y12602D01*
X47190Y12608D01*
X47179Y12615D01*
X47167Y12621D01*
X47157Y12629D01*
X47146Y12637D01*
X46592Y13048D01*
X46582Y13057D01*
X46572Y13064D01*
X46562Y13073D01*
X46552Y13082D01*
X46544Y13092D01*
X46534Y13101D01*
X46072Y13612D01*
X46064Y13623D01*
X46055Y13632D01*
X46047Y13643D01*
X46039Y13654D01*
X46033Y13665D01*
X46025Y13676D01*
X45672Y14267D01*
X45666Y14279D01*
X45659Y14290D01*
X45654Y14303D01*
X45648Y14314D01*
X45643Y14326D01*
X45638Y14339D01*
X45523Y14663D01*
X45522Y14663D01*
X45407Y14988D01*
X45403Y15001D01*
X45399Y15013D01*
X45396Y15026D01*
X45393Y15039D01*
X45391Y15052D01*
X45388Y15064D01*
X45288Y15746D01*
X45287Y15759D01*
X45285Y15773D01*
X45285Y15786D01*
X45283Y15799D01*
X45284Y15812D01*
X45284Y15825D01*
X45319Y16513D01*
X45320Y16526D01*
X45321Y16540D01*
X45323Y16553D01*
X45325Y16566D01*
X45328Y16578D01*
X45330Y16591D01*
X45499Y17260D01*
X45503Y17272D01*
X45506Y17285D01*
X45511Y17297D01*
X45515Y17310D01*
X45521Y17321D01*
X45526Y17334D01*
X45821Y17956D01*
X45828Y17968D01*
X45833Y17980D01*
X45840Y17991D01*
X45847Y18002D01*
X45854Y18013D01*
X45862Y18024D01*
X46273Y18577D01*
X46282Y18587D01*
X46290Y18598D01*
X46299Y18607D01*
X46307Y18617D01*
X46317Y18626D01*
X46326Y18635D01*
X46837Y19097D01*
X46848Y19106D01*
X46858Y19114D01*
X46868Y19122D01*
X46879Y19130D01*
X46890Y19137D01*
X46901Y19144D01*
X47493Y19498D01*
X47504Y19504D01*
X47515Y19510D01*
X47528Y19516D01*
X47539Y19522D01*
X47552Y19526D01*
X47564Y19531D01*
X47888Y19647D01*
X47901Y19650D01*
X47913Y19655D01*
X47926Y19658D01*
X47939Y19661D01*
X47951Y19663D01*
X47964Y19666D01*
X47977Y19667D01*
X47991Y19669D01*
X48003Y19669D01*
X48016Y19670D01*
X48030Y19669D01*
D02*
G37*
G36*
X52225Y9424D02*
X52238Y9424D01*
X52926Y9377D01*
X52939Y9376D01*
X52952Y9375D01*
X52965Y9372D01*
X52978Y9370D01*
X52990Y9367D01*
X53003Y9364D01*
X53669Y9184D01*
X53681Y9180D01*
X53694Y9177D01*
X53706Y9172D01*
X53718Y9167D01*
X53730Y9161D01*
X53742Y9156D01*
X54360Y8850D01*
X54371Y8843D01*
X54383Y8838D01*
X54394Y8830D01*
X54405Y8824D01*
X54415Y8816D01*
X54426Y8808D01*
X54972Y8387D01*
X54982Y8378D01*
X54993Y8370D01*
X55002Y8361D01*
X55012Y8352D01*
X55020Y8343D01*
X55029Y8333D01*
X55483Y7814D01*
X55491Y7803D01*
X55499Y7793D01*
X55506Y7783D01*
X55515Y7772D01*
X55521Y7761D01*
X55528Y7750D01*
X55871Y7152D01*
X55877Y7140D01*
X55884Y7129D01*
X55889Y7116D01*
X55895Y7105D01*
X55899Y7092D01*
X55904Y7080D01*
X56124Y6427D01*
X56127Y6414D01*
X56131Y6401D01*
X56134Y6389D01*
X56137Y6376D01*
X56139Y6363D01*
X56141Y6350D01*
X56185Y6008D01*
X56185Y6007D01*
X56229Y5666D01*
X56230Y5653D01*
X56232Y5640D01*
X56232Y5627D01*
X56233Y5614D01*
X56232Y5601D01*
X56232Y5588D01*
X56185Y4900D01*
X56183Y4887D01*
X56182Y4874D01*
X56180Y4861D01*
X56178Y4848D01*
X56174Y4835D01*
X56172Y4822D01*
X55992Y4157D01*
X55987Y4144D01*
X55984Y4132D01*
X55979Y4120D01*
X55975Y4107D01*
X55969Y4095D01*
X55964Y4083D01*
X55657Y3466D01*
X55651Y3454D01*
X55645Y3443D01*
X55638Y3432D01*
X55631Y3420D01*
X55623Y3410D01*
X55616Y3399D01*
X55194Y2853D01*
X55186Y2843D01*
X55178Y2833D01*
X55168Y2824D01*
X55160Y2814D01*
X55150Y2805D01*
X55141Y2796D01*
X54621Y2343D01*
X54611Y2335D01*
X54601Y2326D01*
X54590Y2319D01*
X54579Y2311D01*
X54568Y2305D01*
X54557Y2297D01*
X53959Y1954D01*
X53947Y1948D01*
X53936Y1942D01*
X53924Y1937D01*
X53912Y1931D01*
X53900Y1927D01*
X53887Y1922D01*
X53234Y1702D01*
X53221Y1699D01*
X53209Y1694D01*
X53196Y1692D01*
X53183Y1688D01*
X53170Y1687D01*
X53157Y1684D01*
X52816Y1640D01*
X52789Y1639D01*
X52764Y1637D01*
X52764Y1637D01*
X52763Y1637D01*
X52738Y1639D01*
X52712Y1640D01*
X52711Y1640D01*
X52711Y1640D01*
X52686Y1646D01*
X52661Y1651D01*
X52660Y1651D01*
X52659Y1651D01*
X52636Y1659D01*
X52611Y1667D01*
X52610Y1668D01*
X52610Y1668D01*
X52588Y1679D01*
X52564Y1691D01*
X52563Y1691D01*
X52563Y1691D01*
X52541Y1706D01*
X52520Y1720D01*
X52520Y1720D01*
X52519Y1720D01*
X52500Y1737D01*
X52481Y1754D01*
X52480Y1755D01*
X52480Y1755D01*
X52464Y1773D01*
X52446Y1794D01*
X52446Y1794D01*
X52446Y1795D01*
X52432Y1815D01*
X52417Y1837D01*
X52417Y1838D01*
X52416Y1838D01*
X52406Y1860D01*
X52394Y1884D01*
X52394Y1885D01*
X52394Y1885D01*
X52386Y1907D01*
X52377Y1934D01*
X52377Y1935D01*
X52377Y1935D01*
X52372Y1959D01*
X52367Y1985D01*
X52367Y1986D01*
X52367Y1987D01*
X52367Y1987D01*
X51471Y8929D01*
X51468Y8972D01*
X51468Y8981D01*
Y8981D01*
Y8981D01*
X51471Y9034D01*
X51476Y9054D01*
X51482Y9085D01*
X51499Y9135D01*
X51522Y9182D01*
D01*
X51522Y9182D01*
X51551Y9225D01*
X51578Y9255D01*
X51586Y9264D01*
X51586Y9264D01*
X51586Y9264D01*
X51626Y9299D01*
X51669Y9328D01*
X51716Y9351D01*
X51766Y9368D01*
X51817Y9378D01*
X51818Y9378D01*
X52159Y9422D01*
X52172Y9423D01*
X52185Y9425D01*
X52198Y9425D01*
X52212Y9425D01*
X52225Y9424D01*
D02*
G37*
G36*
X51010Y9268D02*
X51023Y9268D01*
X51036Y9266D01*
X51048Y9265D01*
X51062Y9262D01*
X51075Y9260D01*
X51087Y9257D01*
X51100Y9255D01*
X51113Y9250D01*
X51126Y9246D01*
X51137Y9242D01*
X51149Y9238D01*
X51161Y9232D01*
X51174Y9226D01*
X51185Y9220D01*
X51196Y9214D01*
X51208Y9207D01*
X51219Y9200D01*
X51229Y9192D01*
X51240Y9185D01*
X51250Y9176D01*
X51261Y9168D01*
X51270Y9159D01*
X51279Y9150D01*
X51288Y9140D01*
X51298Y9130D01*
X51305Y9120D01*
X51314Y9111D01*
X51321Y9099D01*
X51329Y9088D01*
X51336Y9078D01*
X51343Y9067D01*
X51349Y9055D01*
X51355Y9043D01*
X51360Y9031D01*
X51366Y9020D01*
X51370Y9007D01*
X51375Y8994D01*
X51378Y8982D01*
X51382Y8970D01*
X51385Y8957D01*
X51389Y8944D01*
X51390Y8931D01*
X51393Y8919D01*
X52288Y1976D01*
X52291Y1933D01*
X52291Y1924D01*
Y1924D01*
Y1924D01*
X52288Y1872D01*
X52284Y1851D01*
X52277Y1820D01*
X52260Y1771D01*
X52237Y1724D01*
D01*
X52237Y1724D01*
X52227Y1709D01*
X52208Y1680D01*
X52173Y1641D01*
X52173Y1641D01*
X52173Y1641D01*
X52134Y1606D01*
X52104Y1587D01*
X52090Y1577D01*
X52090Y1577D01*
D01*
X52043Y1554D01*
X52031Y1550D01*
X51993Y1538D01*
X51968Y1533D01*
X51942Y1527D01*
X51942Y1527D01*
X51600Y1483D01*
X51587Y1483D01*
X51574Y1481D01*
X51561Y1481D01*
X51547Y1480D01*
X51534Y1481D01*
X51521Y1481D01*
X50833Y1528D01*
X50820Y1530D01*
X50807Y1531D01*
X50795Y1533D01*
X50782Y1535D01*
X50769Y1538D01*
X50756Y1541D01*
X50090Y1721D01*
X50078Y1725D01*
X50065Y1729D01*
X50053Y1734D01*
X50041Y1738D01*
X50029Y1744D01*
X50017Y1749D01*
X49399Y2056D01*
X49388Y2062D01*
X49376Y2068D01*
X49365Y2075D01*
X49354Y2082D01*
X49344Y2090D01*
X49333Y2097D01*
X48787Y2518D01*
X48777Y2527D01*
X48767Y2535D01*
X48757Y2544D01*
X48748Y2553D01*
X48739Y2563D01*
X48730Y2572D01*
X48276Y3092D01*
X48268Y3102D01*
X48260Y3112D01*
X48253Y3123D01*
X48245Y3133D01*
X48238Y3145D01*
X48231Y3156D01*
X47888Y3754D01*
X47882Y3765D01*
X47875Y3777D01*
X47870Y3789D01*
X47865Y3801D01*
X47860Y3813D01*
X47855Y3825D01*
X47636Y4479D01*
X47632Y4492D01*
X47628Y4504D01*
X47625Y4517D01*
X47622Y4530D01*
X47620Y4543D01*
X47618Y4555D01*
X47574Y4897D01*
X47574Y4897D01*
X47530Y5239D01*
X47529Y5252D01*
X47527Y5265D01*
X47527Y5279D01*
X47526Y5291D01*
X47527Y5305D01*
X47527Y5318D01*
X47574Y6006D01*
X47576Y6019D01*
X47577Y6032D01*
X47580Y6045D01*
X47581Y6058D01*
X47585Y6070D01*
X47587Y6083D01*
X47767Y6749D01*
X47772Y6761D01*
X47775Y6774D01*
X47780Y6786D01*
X47784Y6798D01*
X47790Y6810D01*
X47795Y6822D01*
X48102Y7440D01*
X48108Y7451D01*
X48114Y7463D01*
X48122Y7474D01*
X48128Y7485D01*
X48136Y7495D01*
X48144Y7506D01*
X48565Y8052D01*
X48573Y8062D01*
X48581Y8072D01*
X48591Y8082D01*
X48599Y8091D01*
X48609Y8100D01*
X48619Y8109D01*
X49138Y8563D01*
X49148Y8570D01*
X49158Y8579D01*
X49169Y8586D01*
X49180Y8594D01*
X49191Y8601D01*
X49202Y8608D01*
X49800Y8951D01*
X49812Y8957D01*
X49823Y8964D01*
X49835Y8969D01*
X49847Y8974D01*
X49859Y8979D01*
X49872Y8984D01*
X50525Y9203D01*
X50538Y9207D01*
X50550Y9211D01*
X50563Y9213D01*
X50576Y9217D01*
X50589Y9219D01*
X50602Y9221D01*
X50943Y9265D01*
X50944Y9265D01*
X50957Y9266D01*
X50971Y9268D01*
X50983Y9268D01*
X50996Y9268D01*
X51010Y9268D01*
D02*
G37*
G36*
X51422Y-1498D02*
X51435Y-1499D01*
X51778Y-1528D01*
X51778D01*
X51789Y-1530D01*
X51800Y-1531D01*
X51800Y-1531D01*
X51815Y-1534D01*
X51830Y-1536D01*
X51841Y-1539D01*
X51852Y-1542D01*
X51866Y-1547D01*
X51880Y-1551D01*
X51890Y-1555D01*
X51901Y-1559D01*
X51915Y-1566D01*
X51928Y-1572D01*
X51938Y-1578D01*
X51948Y-1583D01*
X51960Y-1591D01*
X51973Y-1599D01*
X51982Y-1606D01*
X51991Y-1612D01*
X52002Y-1623D01*
X52014Y-1632D01*
X52022Y-1640D01*
X52030Y-1647D01*
X52040Y-1659D01*
X52051Y-1670D01*
X52057Y-1679D01*
X52064Y-1687D01*
X52073Y-1700D01*
X52082Y-1712D01*
X52087Y-1722D01*
X52093Y-1731D01*
X52100Y-1745D01*
X52107Y-1758D01*
X52111Y-1768D01*
X52116Y-1778D01*
X52120Y-1793D01*
X52126Y-1807D01*
X52128Y-1818D01*
X52132Y-1828D01*
X52135Y-1843D01*
X52138Y-1858D01*
X52140Y-1869D01*
X52142Y-1880D01*
X52142Y-1895D01*
X52144Y-1910D01*
X52144Y-1921D01*
X52144Y-1932D01*
X52143Y-1947D01*
X52143Y-1963D01*
X52143Y-1963D01*
X51537Y-8936D01*
X51535Y-8952D01*
X51529Y-8988D01*
X51515Y-9038D01*
X51494Y-9086D01*
Y-9086D01*
X51494Y-9086D01*
X51484Y-9102D01*
X51466Y-9131D01*
X51434Y-9172D01*
X51396Y-9208D01*
X51369Y-9228D01*
X51353Y-9240D01*
X51316Y-9260D01*
X51307Y-9265D01*
X51307D01*
X51307Y-9265D01*
X51297Y-9269D01*
X51259Y-9284D01*
X51208Y-9296D01*
X51156Y-9302D01*
X51103Y-9301D01*
X50760Y-9271D01*
X50747Y-9269D01*
X50734Y-9268D01*
X50721Y-9265D01*
X50708Y-9263D01*
X50695Y-9260D01*
X50682Y-9257D01*
X50020Y-9064D01*
X50008Y-9060D01*
X49995Y-9056D01*
X49984Y-9051D01*
X49971Y-9046D01*
X49959Y-9040D01*
X49948Y-9035D01*
X49336Y-8717D01*
X49325Y-8710D01*
X49313Y-8704D01*
X49302Y-8697D01*
X49291Y-8690D01*
X49281Y-8682D01*
X49270Y-8674D01*
X48732Y-8243D01*
X48722Y-8234D01*
X48712Y-8226D01*
X48703Y-8216D01*
X48693Y-8207D01*
X48685Y-8197D01*
X48676Y-8188D01*
X48232Y-7660D01*
X48224Y-7649D01*
X48216Y-7639D01*
X48209Y-7628D01*
X48201Y-7618D01*
X48195Y-7606D01*
X48188Y-7595D01*
X47856Y-6991D01*
X47850Y-6979D01*
X47844Y-6968D01*
X47839Y-6955D01*
X47834Y-6943D01*
X47830Y-6931D01*
X47825Y-6919D01*
X47617Y-6261D01*
X47614Y-6248D01*
X47610Y-6236D01*
X47608Y-6223D01*
X47605Y-6210D01*
X47603Y-6197D01*
X47601Y-6184D01*
X47526Y-5499D01*
X47525Y-5486D01*
X47523Y-5473D01*
X47524Y-5460D01*
X47523Y-5447D01*
X47524Y-5434D01*
X47525Y-5421D01*
X47554Y-5077D01*
X47555Y-5076D01*
X47584Y-4734D01*
X47586Y-4721D01*
X47587Y-4708D01*
X47590Y-4695D01*
X47592Y-4682D01*
X47596Y-4669D01*
X47599Y-4656D01*
X47791Y-3994D01*
X47796Y-3982D01*
X47799Y-3969D01*
X47805Y-3957D01*
X47809Y-3945D01*
X47815Y-3933D01*
X47820Y-3921D01*
X48138Y-3310D01*
X48145Y-3299D01*
X48151Y-3287D01*
X48159Y-3276D01*
X48166Y-3265D01*
X48174Y-3255D01*
X48181Y-3244D01*
X48613Y-2706D01*
X48621Y-2696D01*
X48630Y-2686D01*
X48639Y-2677D01*
X48648Y-2667D01*
X48658Y-2659D01*
X48667Y-2650D01*
X49195Y-2206D01*
X49206Y-2198D01*
X49216Y-2190D01*
X49227Y-2183D01*
X49238Y-2175D01*
X49249Y-2169D01*
X49260Y-2162D01*
X49864Y-1830D01*
X49876Y-1824D01*
X49888Y-1818D01*
X49900Y-1813D01*
X49912Y-1808D01*
X49924Y-1804D01*
X49937Y-1799D01*
X50594Y-1591D01*
X50607Y-1588D01*
X50619Y-1584D01*
X50632Y-1582D01*
X50645Y-1579D01*
X50658Y-1577D01*
X50671Y-1575D01*
X51356Y-1500D01*
X51369Y-1499D01*
X51382Y-1498D01*
X51396Y-1498D01*
X51409Y-1497D01*
X51422Y-1498D01*
D02*
G37*
G36*
X52656Y-1605D02*
X52656D01*
X52999Y-1634D01*
X53013Y-1636D01*
X53026Y-1638D01*
X53038Y-1640D01*
X53051Y-1642D01*
X53064Y-1646D01*
X53077Y-1649D01*
X53739Y-1841D01*
X53751Y-1846D01*
X53764Y-1850D01*
X53776Y-1855D01*
X53788Y-1859D01*
X53800Y-1865D01*
X53812Y-1871D01*
X54423Y-2189D01*
X54435Y-2195D01*
X54446Y-2201D01*
X54457Y-2209D01*
X54468Y-2216D01*
X54478Y-2224D01*
X54489Y-2231D01*
X55027Y-2663D01*
X55037Y-2672D01*
X55047Y-2680D01*
X55056Y-2689D01*
X55066Y-2698D01*
X55074Y-2708D01*
X55083Y-2718D01*
X55527Y-3246D01*
X55535Y-3256D01*
X55543Y-3266D01*
X55550Y-3277D01*
X55558Y-3288D01*
X55564Y-3299D01*
X55571Y-3310D01*
X55903Y-3915D01*
X55909Y-3926D01*
X55915Y-3938D01*
X55920Y-3950D01*
X55926Y-3962D01*
X55929Y-3975D01*
X55934Y-3987D01*
X56142Y-4644D01*
X56145Y-4657D01*
X56149Y-4670D01*
X56151Y-4682D01*
X56154Y-4695D01*
X56156Y-4708D01*
X56158Y-4721D01*
X56234Y-5406D01*
X56234Y-5420D01*
X56236Y-5433D01*
X56235Y-5446D01*
X56236Y-5459D01*
X56235Y-5472D01*
X56235Y-5485D01*
X56205Y-5829D01*
X56205Y-5829D01*
X56175Y-6172D01*
X56173Y-6185D01*
X56172Y-6198D01*
X56169Y-6211D01*
X56167Y-6224D01*
X56163Y-6236D01*
X56160Y-6249D01*
X55968Y-6911D01*
X55963Y-6924D01*
X55960Y-6936D01*
X55954Y-6948D01*
X55950Y-6960D01*
X55944Y-6972D01*
X55939Y-6984D01*
X55621Y-7596D01*
X55614Y-7607D01*
X55608Y-7619D01*
X55600Y-7629D01*
X55594Y-7641D01*
X55585Y-7651D01*
X55578Y-7662D01*
X55147Y-8200D01*
X55138Y-8209D01*
X55129Y-8219D01*
X55120Y-8229D01*
X55111Y-8238D01*
X55101Y-8247D01*
X55092Y-8256D01*
X54564Y-8699D01*
X54553Y-8707D01*
X54543Y-8715D01*
X54532Y-8723D01*
X54522Y-8730D01*
X54510Y-8737D01*
X54499Y-8744D01*
X53895Y-9076D01*
X53883Y-9081D01*
X53871Y-9088D01*
X53859Y-9092D01*
X53847Y-9098D01*
X53835Y-9102D01*
X53822Y-9107D01*
X53165Y-9314D01*
X53152Y-9318D01*
X53140Y-9321D01*
X53127Y-9324D01*
X53114Y-9327D01*
X53101Y-9328D01*
X53088Y-9331D01*
X52403Y-9406D01*
X52390Y-9407D01*
X52377Y-9408D01*
X52364Y-9408D01*
X52350Y-9408D01*
X52337Y-9407D01*
X52324Y-9407D01*
X51981Y-9377D01*
X51959Y-9374D01*
X51937Y-9371D01*
X51933Y-9370D01*
X51929Y-9369D01*
X51908Y-9363D01*
X51886Y-9357D01*
X51883Y-9356D01*
X51879Y-9355D01*
X51858Y-9346D01*
X51838Y-9337D01*
X51834Y-9335D01*
X51831Y-9334D01*
X51812Y-9322D01*
X51793Y-9311D01*
X51789Y-9308D01*
X51786Y-9306D01*
X51769Y-9292D01*
X51751Y-9279D01*
X51748Y-9276D01*
X51745Y-9273D01*
X51730Y-9258D01*
X51714Y-9242D01*
X51711Y-9239D01*
X51709Y-9236D01*
X51696Y-9218D01*
X51682Y-9200D01*
X51680Y-9197D01*
X51678Y-9193D01*
X51667Y-9174D01*
X51656Y-9155D01*
X51654Y-9151D01*
X51652Y-9147D01*
X51644Y-9127D01*
X51636Y-9106D01*
X51635Y-9102D01*
X51633Y-9099D01*
X51628Y-9077D01*
X51622Y-9055D01*
X51622Y-9052D01*
X51621Y-9048D01*
X51618Y-9026D01*
X51616Y-9003D01*
Y-8999D01*
X51615Y-8996D01*
X51616Y-8974D01*
X51616Y-8951D01*
X51616Y-8947D01*
X51616Y-8943D01*
X51616Y-8942D01*
X52222Y-1969D01*
X52224Y-1953D01*
X52230Y-1918D01*
X52245Y-1867D01*
X52266Y-1819D01*
Y-1819D01*
X52266Y-1819D01*
X52275Y-1803D01*
X52293Y-1774D01*
X52326Y-1733D01*
X52363Y-1697D01*
X52390Y-1677D01*
X52406Y-1666D01*
X52443Y-1645D01*
X52452Y-1641D01*
X52452D01*
X52452Y-1641D01*
X52462Y-1637D01*
X52500Y-1622D01*
X52551Y-1609D01*
X52604Y-1603D01*
X52604D01*
D01*
X52656Y-1605D01*
D02*
G37*
G36*
X-39801Y-5203D02*
X-39788Y-5203D01*
X-39775Y-5204D01*
X-39762Y-5205D01*
X-39749Y-5208D01*
X-39736Y-5209D01*
X-39058Y-5341D01*
X-39045Y-5344D01*
X-39032Y-5347D01*
X-39020Y-5351D01*
X-39007Y-5354D01*
X-38995Y-5359D01*
X-38982Y-5364D01*
X-38343Y-5626D01*
X-38331Y-5632D01*
X-38319Y-5637D01*
X-38308Y-5643D01*
X-38296Y-5649D01*
X-38285Y-5656D01*
X-38273Y-5663D01*
X-37698Y-6046D01*
X-37688Y-6054D01*
X-37677Y-6061D01*
X-37667Y-6070D01*
X-37657Y-6078D01*
X-37647Y-6087D01*
X-37637Y-6096D01*
X-37149Y-6584D01*
X-37140Y-6594D01*
X-37130Y-6604D01*
X-37123Y-6614D01*
X-37114Y-6624D01*
X-37107Y-6635D01*
X-37099Y-6646D01*
X-36716Y-7220D01*
X-36709Y-7232D01*
X-36702Y-7243D01*
X-36696Y-7255D01*
X-36690Y-7266D01*
X-36685Y-7278D01*
X-36679Y-7290D01*
X-36416Y-7929D01*
X-36412Y-7942D01*
X-36407Y-7954D01*
X-36404Y-7967D01*
X-36400Y-7979D01*
X-36397Y-7992D01*
X-36394Y-8005D01*
X-36262Y-8683D01*
X-36260Y-8696D01*
X-36258Y-8709D01*
X-36257Y-8722D01*
X-36255Y-8735D01*
X-36256Y-8748D01*
X-36255Y-8762D01*
X-36257Y-9107D01*
X-36257Y-9111D01*
X-36257Y-9115D01*
X-36259Y-9137D01*
X-36259Y-9138D01*
X-36260Y-9157D01*
X-36261Y-9158D01*
X-36261Y-9159D01*
X-36261Y-9163D01*
X-36262Y-9167D01*
X-36267Y-9189D01*
X-36268Y-9194D01*
X-36271Y-9208D01*
X-36271Y-9209D01*
X-36271Y-9211D01*
X-36272Y-9215D01*
X-36273Y-9218D01*
X-36281Y-9239D01*
X-36284Y-9247D01*
X-36288Y-9258D01*
X-36288Y-9258D01*
X-36288Y-9260D01*
X-36290Y-9264D01*
X-36292Y-9268D01*
X-36302Y-9287D01*
X-36307Y-9297D01*
X-36311Y-9305D01*
X-36311Y-9305D01*
X-36312Y-9307D01*
X-36314Y-9311D01*
X-36316Y-9314D01*
X-36329Y-9332D01*
X-36337Y-9344D01*
X-36340Y-9348D01*
X-36340Y-9349D01*
X-36341Y-9351D01*
X-36344Y-9354D01*
X-36346Y-9357D01*
X-36361Y-9373D01*
X-36373Y-9386D01*
X-36374Y-9388D01*
X-36374Y-9388D01*
X-36376Y-9390D01*
X-36379Y-9392D01*
X-36382Y-9395D01*
X-36399Y-9410D01*
X-36416Y-9424D01*
X-36419Y-9426D01*
X-36422Y-9429D01*
X-36441Y-9441D01*
X-36459Y-9453D01*
X-36463Y-9455D01*
X-36467Y-9457D01*
X-36487Y-9466D01*
X-36507Y-9476D01*
X-36511Y-9477D01*
X-36514Y-9479D01*
X-36535Y-9485D01*
X-36556Y-9493D01*
X-36560Y-9493D01*
X-36564Y-9494D01*
X-36586Y-9498D01*
X-36608Y-9502D01*
X-36612Y-9503D01*
X-36616Y-9503D01*
X-36638Y-9504D01*
X-36660Y-9505D01*
X-36663Y-9505D01*
X-36667D01*
X-36668Y-9505D01*
X-36669Y-9505D01*
X-43657Y-9506D01*
X-43682Y-9504D01*
X-43707Y-9503D01*
X-43708Y-9502D01*
X-43709Y-9502D01*
X-43733Y-9498D01*
X-43758Y-9493D01*
X-43760Y-9492D01*
X-43761Y-9492D01*
X-43784Y-9484D01*
X-43808Y-9476D01*
X-43809Y-9476D01*
X-43810Y-9475D01*
X-43833Y-9464D01*
X-43855Y-9453D01*
X-43856Y-9453D01*
X-43857Y-9452D01*
X-43878Y-9438D01*
X-43899Y-9424D01*
X-43900Y-9424D01*
X-43901Y-9423D01*
X-43919Y-9407D01*
X-43939Y-9390D01*
X-43940Y-9389D01*
X-43940Y-9388D01*
X-43957Y-9370D01*
X-43974Y-9351D01*
X-43974Y-9350D01*
X-43975Y-9349D01*
X-43989Y-9328D01*
X-44003Y-9307D01*
X-44003Y-9306D01*
X-44004Y-9305D01*
X-44015Y-9283D01*
X-44026Y-9261D01*
X-44027Y-9259D01*
X-44027Y-9258D01*
X-44036Y-9234D01*
X-44044Y-9211D01*
X-44044Y-9210D01*
X-44044Y-9209D01*
X-44049Y-9183D01*
X-44054Y-9160D01*
X-44054Y-9158D01*
X-44054Y-9157D01*
X-44056Y-9132D01*
X-44058Y-9107D01*
X-44060Y-8762D01*
X-44059Y-8749D01*
X-44059Y-8735D01*
X-44058Y-8722D01*
X-44057Y-8710D01*
X-44054Y-8697D01*
X-44053Y-8683D01*
X-43921Y-8005D01*
X-43918Y-7992D01*
X-43915Y-7979D01*
X-43911Y-7967D01*
X-43908Y-7954D01*
X-43903Y-7942D01*
X-43898Y-7929D01*
X-43636Y-7290D01*
X-43630Y-7278D01*
X-43625Y-7266D01*
X-43619Y-7255D01*
X-43613Y-7243D01*
X-43606Y-7232D01*
X-43599Y-7220D01*
X-43216Y-6646D01*
X-43208Y-6635D01*
X-43201Y-6624D01*
X-43192Y-6614D01*
X-43184Y-6604D01*
X-43175Y-6594D01*
X-43166Y-6584D01*
X-42678Y-6096D01*
X-42668Y-6087D01*
X-42658Y-6078D01*
X-42648Y-6070D01*
X-42638Y-6061D01*
X-42627Y-6054D01*
X-42617Y-6046D01*
X-42042Y-5663D01*
X-42030Y-5656D01*
X-42019Y-5649D01*
X-42007Y-5643D01*
X-41996Y-5637D01*
X-41984Y-5632D01*
X-41972Y-5626D01*
X-41333Y-5364D01*
X-41320Y-5359D01*
X-41308Y-5354D01*
X-41295Y-5351D01*
X-41283Y-5347D01*
X-41270Y-5344D01*
X-41257Y-5341D01*
X-40579Y-5209D01*
X-40566Y-5208D01*
X-40552Y-5205D01*
X-40540Y-5204D01*
X-40527Y-5203D01*
X-40514Y-5203D01*
X-40500Y-5202D01*
X-40161Y-5204D01*
X-40160Y-5204D01*
X-39815Y-5202D01*
X-39801Y-5203D01*
D02*
G37*
G36*
X51143Y-12515D02*
X51168Y-12521D01*
X51194Y-12527D01*
X51523Y-12630D01*
X51535Y-12635D01*
X51548Y-12639D01*
X51560Y-12644D01*
X51572Y-12649D01*
X51584Y-12655D01*
X51596Y-12661D01*
X52201Y-12990D01*
X52212Y-12997D01*
X52224Y-13003D01*
X52235Y-13011D01*
X52246Y-13018D01*
X52256Y-13027D01*
X52266Y-13034D01*
X52796Y-13476D01*
X52805Y-13485D01*
X52815Y-13493D01*
X52824Y-13503D01*
X52834Y-13512D01*
X52842Y-13522D01*
X52851Y-13532D01*
X53284Y-14068D01*
X53292Y-14079D01*
X53300Y-14089D01*
X53307Y-14100D01*
X53314Y-14111D01*
X53320Y-14123D01*
X53327Y-14134D01*
X53648Y-14744D01*
X53653Y-14757D01*
X53659Y-14768D01*
X53663Y-14781D01*
X53669Y-14793D01*
X53672Y-14805D01*
X53677Y-14817D01*
X53872Y-15479D01*
X53875Y-15492D01*
X53878Y-15504D01*
X53881Y-15517D01*
X53883Y-15530D01*
X53885Y-15543D01*
X53887Y-15556D01*
X53949Y-16242D01*
X53949Y-16256D01*
X53950Y-16269D01*
X53950Y-16282D01*
X53950Y-16295D01*
X53949Y-16308D01*
X53948Y-16321D01*
X53875Y-17007D01*
X53873Y-17020D01*
X53872Y-17033D01*
X53869Y-17045D01*
X53866Y-17058D01*
X53862Y-17071D01*
X53859Y-17084D01*
X53757Y-17412D01*
X53757Y-17413D01*
X53654Y-17742D01*
X53649Y-17754D01*
X53645Y-17767D01*
X53640Y-17779D01*
X53635Y-17791D01*
X53629Y-17802D01*
X53623Y-17814D01*
X53294Y-18420D01*
X53287Y-18431D01*
X53280Y-18442D01*
X53273Y-18453D01*
X53266Y-18464D01*
X53257Y-18474D01*
X53250Y-18485D01*
X52808Y-19014D01*
X52799Y-19024D01*
X52790Y-19034D01*
X52781Y-19043D01*
X52772Y-19052D01*
X52762Y-19060D01*
X52752Y-19069D01*
X52216Y-19502D01*
X52205Y-19510D01*
X52195Y-19518D01*
X52184Y-19525D01*
X52173Y-19533D01*
X52161Y-19539D01*
X52150Y-19546D01*
X51539Y-19866D01*
X51527Y-19871D01*
X51516Y-19877D01*
X51503Y-19882D01*
X51491Y-19887D01*
X51479Y-19891D01*
X51467Y-19895D01*
X50805Y-20090D01*
X50792Y-20093D01*
X50780Y-20097D01*
X50767Y-20099D01*
X50754Y-20102D01*
X50741Y-20103D01*
X50728Y-20105D01*
X50041Y-20167D01*
X50028Y-20168D01*
X50015Y-20169D01*
X50002Y-20168D01*
X49989Y-20168D01*
X49976Y-20167D01*
X49963Y-20167D01*
X49277Y-20094D01*
X49264Y-20091D01*
X49251Y-20090D01*
X49238Y-20087D01*
X49226Y-20085D01*
X49213Y-20081D01*
X49200Y-20078D01*
X48872Y-19975D01*
X48871Y-19975D01*
X48854Y-19969D01*
X48837Y-19963D01*
X48830Y-19959D01*
X48822Y-19956D01*
X48806Y-19948D01*
X48790Y-19940D01*
X48783Y-19935D01*
X48776Y-19931D01*
X48762Y-19920D01*
X48746Y-19910D01*
X48740Y-19905D01*
X48734Y-19900D01*
X48721Y-19888D01*
X48707Y-19876D01*
X48702Y-19870D01*
X48696Y-19864D01*
X48684Y-19850D01*
X48673Y-19836D01*
X48668Y-19830D01*
X48663Y-19823D01*
X48653Y-19808D01*
X48643Y-19793D01*
X48640Y-19785D01*
X48636Y-19779D01*
X48628Y-19762D01*
X48620Y-19746D01*
X48618Y-19738D01*
X48614Y-19731D01*
X48609Y-19713D01*
X48603Y-19696D01*
X48602Y-19688D01*
X48599Y-19680D01*
X48597Y-19663D01*
X48593Y-19645D01*
X48593Y-19637D01*
X48591Y-19629D01*
X48591Y-19610D01*
X48590Y-19592D01*
X48590Y-19584D01*
X48590Y-19576D01*
X48592Y-19558D01*
X48593Y-19540D01*
X48595Y-19532D01*
X48596Y-19524D01*
X48600Y-19506D01*
X48603Y-19489D01*
X48606Y-19481D01*
X48608Y-19473D01*
X50692Y-12791D01*
X50707Y-12753D01*
X50711Y-12742D01*
X50711Y-12742D01*
Y-12742D01*
X50736Y-12696D01*
X50750Y-12676D01*
X50767Y-12653D01*
X50803Y-12615D01*
D01*
X50803Y-12615D01*
X50819Y-12603D01*
X50844Y-12582D01*
X50889Y-12555D01*
X50889Y-12555D01*
X50889D01*
X50937Y-12534D01*
X50964Y-12526D01*
X50987Y-12519D01*
X51039Y-12511D01*
X51091Y-12509D01*
D01*
X51091D01*
X51143Y-12515D01*
D02*
G37*
G36*
X-36633Y-14905D02*
X-36608Y-14907D01*
X-36607Y-14907D01*
X-36606Y-14907D01*
X-36582Y-14912D01*
X-36557Y-14917D01*
X-36555Y-14917D01*
X-36554Y-14917D01*
X-36531Y-14925D01*
X-36507Y-14933D01*
X-36506Y-14934D01*
X-36505Y-14934D01*
X-36482Y-14945D01*
X-36460Y-14956D01*
X-36459Y-14957D01*
X-36457Y-14957D01*
X-36437Y-14971D01*
X-36416Y-14985D01*
X-36415Y-14986D01*
X-36414Y-14987D01*
X-36395Y-15003D01*
X-36376Y-15019D01*
X-36375Y-15020D01*
X-36375Y-15021D01*
X-36358Y-15040D01*
X-36341Y-15059D01*
X-36341Y-15060D01*
X-36340Y-15061D01*
X-36326Y-15081D01*
X-36312Y-15102D01*
X-36312Y-15103D01*
X-36311Y-15104D01*
X-36300Y-15127D01*
X-36288Y-15149D01*
X-36288Y-15150D01*
X-36288Y-15151D01*
X-36279Y-15176D01*
X-36271Y-15199D01*
X-36271Y-15200D01*
X-36271Y-15201D01*
X-36266Y-15227D01*
X-36261Y-15250D01*
X-36261Y-15251D01*
X-36261Y-15252D01*
X-36259Y-15278D01*
X-36257Y-15302D01*
X-36255Y-15647D01*
X-36256Y-15661D01*
X-36256Y-15674D01*
X-36257Y-15687D01*
X-36258Y-15700D01*
X-36261Y-15713D01*
X-36262Y-15726D01*
X-36394Y-16404D01*
X-36397Y-16417D01*
X-36400Y-16431D01*
X-36404Y-16443D01*
X-36407Y-16455D01*
X-36412Y-16467D01*
X-36417Y-16480D01*
X-36679Y-17119D01*
X-36685Y-17131D01*
X-36690Y-17143D01*
X-36696Y-17155D01*
X-36702Y-17166D01*
X-36709Y-17177D01*
X-36716Y-17189D01*
X-37099Y-17764D01*
X-37107Y-17774D01*
X-37114Y-17786D01*
X-37123Y-17795D01*
X-37130Y-17805D01*
X-37140Y-17815D01*
X-37149Y-17825D01*
X-37637Y-18313D01*
X-37647Y-18322D01*
X-37657Y-18332D01*
X-37667Y-18339D01*
X-37677Y-18348D01*
X-37688Y-18356D01*
X-37699Y-18364D01*
X-38273Y-18746D01*
X-38285Y-18753D01*
X-38296Y-18760D01*
X-38308Y-18766D01*
X-38319Y-18772D01*
X-38331Y-18778D01*
X-38343Y-18784D01*
X-38982Y-19046D01*
X-38995Y-19050D01*
X-39007Y-19055D01*
X-39020Y-19059D01*
X-39032Y-19062D01*
X-39045Y-19065D01*
X-39058Y-19069D01*
X-39736Y-19200D01*
X-39749Y-19202D01*
X-39762Y-19204D01*
X-39775Y-19205D01*
X-39788Y-19207D01*
X-39801Y-19207D01*
X-39815Y-19207D01*
X-40154Y-19205D01*
X-40155Y-19205D01*
X-40500Y-19207D01*
X-40514Y-19207D01*
X-40527Y-19207D01*
X-40540Y-19205D01*
X-40553Y-19204D01*
X-40566Y-19202D01*
X-40579Y-19200D01*
X-41257Y-19069D01*
X-41270Y-19065D01*
X-41283Y-19063D01*
X-41295Y-19059D01*
X-41308Y-19055D01*
X-41320Y-19050D01*
X-41333Y-19046D01*
X-41972Y-18784D01*
X-41984Y-18778D01*
X-41996Y-18773D01*
X-42007Y-18766D01*
X-42019Y-18761D01*
X-42030Y-18753D01*
X-42042Y-18746D01*
X-42617Y-18364D01*
X-42627Y-18355D01*
X-42638Y-18348D01*
X-42648Y-18339D01*
X-42658Y-18332D01*
X-42668Y-18322D01*
X-42678Y-18313D01*
X-43166Y-17825D01*
X-43175Y-17815D01*
X-43185Y-17806D01*
X-43192Y-17795D01*
X-43201Y-17786D01*
X-43208Y-17774D01*
X-43216Y-17764D01*
X-43599Y-17189D01*
X-43606Y-17177D01*
X-43613Y-17166D01*
X-43619Y-17155D01*
X-43625Y-17144D01*
X-43630Y-17131D01*
X-43636Y-17119D01*
X-43899Y-16480D01*
X-43903Y-16467D01*
X-43908Y-16455D01*
X-43911Y-16443D01*
X-43915Y-16431D01*
X-43918Y-16417D01*
X-43921Y-16404D01*
X-44053Y-15726D01*
X-44054Y-15713D01*
X-44057Y-15700D01*
X-44058Y-15687D01*
X-44059Y-15674D01*
X-44059Y-15661D01*
X-44060Y-15648D01*
X-44058Y-15302D01*
X-44057Y-15284D01*
X-44056Y-15266D01*
X-44055Y-15259D01*
X-44055Y-15253D01*
X-44054Y-15252D01*
X-44054Y-15250D01*
X-44051Y-15232D01*
X-44048Y-15214D01*
X-44045Y-15207D01*
X-44044Y-15201D01*
X-44044Y-15201D01*
X-44044Y-15199D01*
X-44038Y-15181D01*
X-44033Y-15164D01*
X-44029Y-15157D01*
X-44028Y-15152D01*
X-44027Y-15151D01*
X-44027Y-15149D01*
X-44018Y-15133D01*
X-44011Y-15116D01*
X-44007Y-15110D01*
X-44004Y-15105D01*
X-44004Y-15104D01*
X-44003Y-15102D01*
X-43993Y-15087D01*
X-43983Y-15072D01*
X-43978Y-15066D01*
X-43978Y-15065D01*
X-43975Y-15061D01*
X-43975Y-15061D01*
X-43974Y-15059D01*
X-43962Y-15045D01*
X-43950Y-15031D01*
X-43944Y-15026D01*
X-43942Y-15023D01*
X-43941Y-15021D01*
X-43940Y-15021D01*
X-43939Y-15020D01*
X-43925Y-15008D01*
X-43912Y-14995D01*
X-43905Y-14991D01*
X-43899Y-14985D01*
X-43884Y-14975D01*
X-43869Y-14965D01*
X-43862Y-14961D01*
X-43856Y-14956D01*
X-43839Y-14949D01*
X-43823Y-14940D01*
X-43816Y-14937D01*
X-43808Y-14933D01*
X-43791Y-14928D01*
X-43774Y-14921D01*
X-43766Y-14920D01*
X-43758Y-14917D01*
X-43741Y-14913D01*
X-43723Y-14909D01*
X-43715Y-14909D01*
X-43707Y-14907D01*
X-43689Y-14906D01*
X-43671Y-14904D01*
X-43663Y-14904D01*
X-43655Y-14904D01*
X-43652Y-14904D01*
X-36658Y-14904D01*
X-36633Y-14905D01*
D02*
G37*
G36*
X49222Y-12072D02*
X49235Y-12071D01*
X49248Y-12073D01*
X49262Y-12073D01*
X49947Y-12146D01*
X49960Y-12149D01*
X49973Y-12150D01*
X49986Y-12153D01*
X49999Y-12155D01*
X50011Y-12159D01*
X50024Y-12162D01*
X50353Y-12265D01*
X50353D01*
X50353D01*
X50353Y-12265D01*
X50370Y-12271D01*
X50387Y-12277D01*
X50394Y-12281D01*
X50402Y-12284D01*
X50418Y-12292D01*
X50434Y-12301D01*
X50441Y-12305D01*
X50448Y-12309D01*
X50463Y-12320D01*
X50478Y-12330D01*
X50484Y-12335D01*
X50490Y-12340D01*
X50504Y-12352D01*
X50517Y-12364D01*
X50523Y-12370D01*
X50529Y-12376D01*
X50540Y-12390D01*
X50552Y-12404D01*
X50556Y-12410D01*
X50561Y-12417D01*
X50571Y-12432D01*
X50581Y-12447D01*
X50585Y-12454D01*
X50589Y-12461D01*
X50596Y-12478D01*
X50604Y-12494D01*
X50607Y-12502D01*
X50610Y-12509D01*
X50615Y-12527D01*
X50621Y-12544D01*
X50623Y-12552D01*
X50625Y-12560D01*
X50628Y-12578D01*
X50631Y-12595D01*
X50632Y-12603D01*
X50633Y-12611D01*
X50634Y-12630D01*
X50635Y-12648D01*
X50634Y-12656D01*
X50634Y-12664D01*
X50632Y-12682D01*
X50631Y-12700D01*
X50630Y-12708D01*
X50629Y-12716D01*
X50625Y-12734D01*
X50621Y-12751D01*
X50618Y-12759D01*
X50617Y-12767D01*
X50616Y-12767D01*
X48532Y-19449D01*
X48518Y-19487D01*
X48513Y-19498D01*
X48513Y-19498D01*
Y-19498D01*
X48488Y-19544D01*
X48474Y-19564D01*
X48457Y-19587D01*
X48421Y-19625D01*
D01*
X48421Y-19625D01*
X48380Y-19658D01*
X48346Y-19679D01*
X48336Y-19685D01*
X48336Y-19685D01*
X48336D01*
X48288Y-19706D01*
X48260Y-19714D01*
X48237Y-19721D01*
X48186Y-19729D01*
X48133Y-19731D01*
D01*
X48133D01*
X48081Y-19725D01*
X48030Y-19713D01*
X48030Y-19713D01*
X47701Y-19610D01*
X47689Y-19605D01*
X47676Y-19602D01*
X47664Y-19596D01*
X47652Y-19591D01*
X47641Y-19585D01*
X47629Y-19579D01*
X47023Y-19250D01*
X47012Y-19243D01*
X47001Y-19236D01*
X46990Y-19229D01*
X46979Y-19222D01*
X46969Y-19213D01*
X46958Y-19206D01*
X46429Y-18764D01*
X46419Y-18755D01*
X46409Y-18747D01*
X46400Y-18737D01*
X46391Y-18728D01*
X46382Y-18718D01*
X46374Y-18708D01*
X45940Y-18172D01*
X45933Y-18161D01*
X45924Y-18151D01*
X45918Y-18139D01*
X45910Y-18129D01*
X45904Y-18117D01*
X45897Y-18106D01*
X45577Y-17495D01*
X45572Y-17483D01*
X45566Y-17472D01*
X45561Y-17459D01*
X45556Y-17447D01*
X45552Y-17435D01*
X45547Y-17423D01*
X45352Y-16761D01*
X45349Y-16748D01*
X45346Y-16736D01*
X45344Y-16723D01*
X45341Y-16710D01*
X45340Y-16697D01*
X45338Y-16684D01*
X45276Y-15998D01*
X45275Y-15984D01*
X45274Y-15971D01*
X45274Y-15958D01*
X45274Y-15945D01*
X45276Y-15932D01*
X45276Y-15919D01*
X45349Y-15233D01*
X45351Y-15220D01*
X45353Y-15207D01*
X45356Y-15194D01*
X45358Y-15182D01*
X45362Y-15169D01*
X45365Y-15156D01*
X45468Y-14828D01*
X45468Y-14827D01*
X45570Y-14498D01*
X45575Y-14486D01*
X45579Y-14473D01*
X45584Y-14461D01*
X45589Y-14449D01*
X45595Y-14438D01*
X45601Y-14426D01*
X45931Y-13820D01*
X45938Y-13809D01*
X45944Y-13798D01*
X45952Y-13787D01*
X45959Y-13776D01*
X45967Y-13766D01*
X45975Y-13755D01*
X46416Y-13226D01*
X46426Y-13216D01*
X46434Y-13206D01*
X46444Y-13197D01*
X46453Y-13188D01*
X46463Y-13180D01*
X46472Y-13171D01*
X47009Y-12738D01*
X47019Y-12730D01*
X47030Y-12722D01*
X47041Y-12715D01*
X47052Y-12707D01*
X47063Y-12701D01*
X47074Y-12694D01*
X47685Y-12374D01*
X47697Y-12369D01*
X47709Y-12363D01*
X47721Y-12358D01*
X47733Y-12353D01*
X47745Y-12349D01*
X47758Y-12345D01*
X48419Y-12150D01*
X48432Y-12147D01*
X48445Y-12143D01*
X48458Y-12141D01*
X48470Y-12138D01*
X48483Y-12137D01*
X48496Y-12135D01*
X49183Y-12073D01*
X49196Y-12072D01*
X49209Y-12071D01*
X49222Y-12072D01*
D02*
G37*
G36*
X47344Y-22863D02*
X47396Y-22873D01*
X47429Y-22885D01*
X47445Y-22890D01*
X47493Y-22913D01*
X47792Y-23084D01*
X47803Y-23091D01*
X47814Y-23098D01*
X47825Y-23106D01*
X47836Y-23113D01*
X47846Y-23121D01*
X47856Y-23129D01*
X48377Y-23581D01*
X48386Y-23591D01*
X48396Y-23599D01*
X48405Y-23609D01*
X48414Y-23618D01*
X48422Y-23629D01*
X48431Y-23638D01*
X48853Y-24183D01*
X48860Y-24194D01*
X48869Y-24205D01*
X48875Y-24216D01*
X48882Y-24227D01*
X48888Y-24238D01*
X48895Y-24250D01*
X49203Y-24867D01*
X49208Y-24879D01*
X49214Y-24890D01*
X49218Y-24903D01*
X49223Y-24915D01*
X49227Y-24927D01*
X49231Y-24940D01*
X49413Y-25605D01*
X49415Y-25618D01*
X49419Y-25631D01*
X49421Y-25644D01*
X49423Y-25656D01*
X49424Y-25669D01*
X49426Y-25683D01*
X49475Y-26370D01*
X49475Y-26384D01*
X49476Y-26396D01*
X49475Y-26410D01*
X49475Y-26423D01*
X49473Y-26436D01*
X49472Y-26449D01*
X49386Y-27133D01*
X49383Y-27146D01*
X49382Y-27159D01*
X49378Y-27171D01*
X49376Y-27184D01*
X49372Y-27197D01*
X49368Y-27209D01*
X49150Y-27863D01*
X49145Y-27876D01*
X49141Y-27888D01*
X49135Y-27900D01*
X49130Y-27912D01*
X49124Y-27923D01*
X49118Y-27935D01*
X48947Y-28234D01*
X48947Y-28234D01*
X48776Y-28534D01*
X48769Y-28545D01*
X48762Y-28556D01*
X48755Y-28567D01*
X48747Y-28578D01*
X48739Y-28587D01*
X48731Y-28598D01*
X48279Y-29119D01*
X48270Y-29128D01*
X48261Y-29138D01*
X48251Y-29147D01*
X48242Y-29156D01*
X48232Y-29164D01*
X48222Y-29173D01*
X47677Y-29595D01*
X47666Y-29602D01*
X47656Y-29610D01*
X47644Y-29617D01*
X47633Y-29624D01*
X47622Y-29630D01*
X47610Y-29637D01*
X46993Y-29945D01*
X46981Y-29950D01*
X46970Y-29956D01*
X46957Y-29960D01*
X46945Y-29965D01*
X46933Y-29969D01*
X46920Y-29973D01*
X46255Y-30155D01*
X46242Y-30157D01*
X46229Y-30161D01*
X46216Y-30163D01*
X46204Y-30165D01*
X46191Y-30166D01*
X46178Y-30168D01*
X45490Y-30217D01*
X45477Y-30217D01*
X45464Y-30217D01*
X45451Y-30217D01*
X45437Y-30217D01*
X45424Y-30215D01*
X45411Y-30214D01*
X44727Y-30128D01*
X44714Y-30125D01*
X44701Y-30124D01*
X44689Y-30120D01*
X44676Y-30118D01*
X44663Y-30114D01*
X44651Y-30110D01*
X43997Y-29892D01*
X43985Y-29887D01*
X43972Y-29883D01*
X43960Y-29877D01*
X43948Y-29872D01*
X43937Y-29866D01*
X43925Y-29860D01*
X43626Y-29689D01*
X43615Y-29682D01*
X43603Y-29675D01*
X43593Y-29667D01*
X43582Y-29660D01*
X43572Y-29652D01*
X43562Y-29644D01*
X43552Y-29634D01*
X43542Y-29626D01*
X43534Y-29616D01*
X43524Y-29607D01*
X43516Y-29596D01*
X43508Y-29586D01*
X43500Y-29576D01*
X43492Y-29565D01*
X43486Y-29554D01*
X43478Y-29543D01*
X43472Y-29531D01*
X43466Y-29520D01*
X43461Y-29508D01*
X43455Y-29496D01*
X43450Y-29484D01*
X43445Y-29472D01*
X43442Y-29459D01*
X43438Y-29447D01*
X43435Y-29434D01*
X43432Y-29421D01*
X43430Y-29408D01*
X43427Y-29395D01*
X43426Y-29382D01*
X43424Y-29369D01*
X43424Y-29356D01*
X43424Y-29343D01*
X43424Y-29330D01*
X43424Y-29317D01*
X43426Y-29304D01*
X43427Y-29291D01*
X43429Y-29278D01*
X43431Y-29265D01*
X43434Y-29252D01*
X43437Y-29239D01*
X43441Y-29227D01*
X43444Y-29214D01*
X43449Y-29202D01*
X43453Y-29189D01*
X43459Y-29178D01*
X43464Y-29166D01*
X43470Y-29154D01*
X43476Y-29142D01*
X43476Y-29142D01*
X46946Y-23063D01*
X46975Y-23019D01*
X47004Y-22985D01*
X47009Y-22979D01*
X47009Y-22979D01*
D01*
X47048Y-22944D01*
X47092Y-22915D01*
X47139Y-22892D01*
X47188Y-22874D01*
X47218Y-22868D01*
X47240Y-22864D01*
X47292Y-22860D01*
X47292D01*
X47292D01*
X47344Y-22863D01*
D02*
G37*
G36*
X44902Y-21949D02*
X44915Y-21949D01*
X44929Y-21950D01*
X44942Y-21951D01*
X45625Y-22038D01*
X45638Y-22040D01*
X45651Y-22042D01*
X45664Y-22045D01*
X45677Y-22048D01*
X45689Y-22052D01*
X45702Y-22055D01*
X46356Y-22273D01*
X46368Y-22278D01*
X46381Y-22283D01*
X46393Y-22288D01*
X46405Y-22293D01*
X46416Y-22300D01*
X46428Y-22305D01*
X46727Y-22476D01*
X46727Y-22476D01*
X46728Y-22477D01*
X46729Y-22477D01*
X46749Y-22491D01*
X46771Y-22505D01*
X46772Y-22506D01*
X46773Y-22506D01*
X46792Y-22523D01*
X46811Y-22539D01*
X46811Y-22540D01*
X46811Y-22540D01*
X46811Y-22540D01*
X46812Y-22541D01*
X46812Y-22541D01*
X46829Y-22560D01*
X46845Y-22579D01*
X46845Y-22579D01*
X46845Y-22579D01*
X46846Y-22580D01*
X46847Y-22580D01*
X46861Y-22602D01*
X46875Y-22622D01*
X46875Y-22623D01*
X46876Y-22624D01*
X46888Y-22648D01*
X46898Y-22669D01*
X46898Y-22670D01*
X46899Y-22671D01*
X46907Y-22696D01*
X46915Y-22719D01*
X46915Y-22720D01*
X46916Y-22721D01*
X46921Y-22746D01*
X46926Y-22770D01*
X46926Y-22771D01*
X46926Y-22772D01*
X46928Y-22798D01*
X46929Y-22822D01*
X46929Y-22823D01*
X46929Y-22824D01*
X46928Y-22850D01*
X46926Y-22875D01*
X46926Y-22876D01*
X46926Y-22877D01*
X46921Y-22902D01*
X46916Y-22926D01*
X46916Y-22927D01*
X46916Y-22928D01*
X46907Y-22954D01*
X46900Y-22976D01*
X46899Y-22977D01*
X46899Y-22978D01*
X46887Y-23002D01*
X46877Y-23023D01*
X46876Y-23024D01*
X46876Y-23024D01*
X46876Y-23025D01*
X46876Y-23025D01*
X43407Y-29103D01*
X43407Y-29103D01*
X43378Y-29147D01*
X43344Y-29186D01*
X43344Y-29186D01*
D01*
X43305Y-29221D01*
X43261Y-29250D01*
X43214Y-29274D01*
X43191Y-29282D01*
X43165Y-29291D01*
X43113Y-29301D01*
X43061Y-29305D01*
X43061D01*
X43061D01*
X43009Y-29302D01*
X42989Y-29298D01*
X42957Y-29292D01*
X42908Y-29275D01*
X42860Y-29252D01*
X42561Y-29081D01*
X42550Y-29074D01*
X42539Y-29068D01*
X42528Y-29060D01*
X42517Y-29053D01*
X42507Y-29044D01*
X42497Y-29036D01*
X41976Y-28584D01*
X41967Y-28575D01*
X41957Y-28566D01*
X41948Y-28556D01*
X41939Y-28547D01*
X41931Y-28537D01*
X41922Y-28527D01*
X41500Y-27982D01*
X41492Y-27971D01*
X41484Y-27961D01*
X41478Y-27950D01*
X41470Y-27939D01*
X41464Y-27927D01*
X41458Y-27916D01*
X41150Y-27299D01*
X41145Y-27287D01*
X41139Y-27275D01*
X41135Y-27262D01*
X41129Y-27250D01*
X41126Y-27238D01*
X41122Y-27225D01*
X40940Y-26560D01*
X40937Y-26547D01*
X40934Y-26535D01*
X40932Y-26522D01*
X40929Y-26509D01*
X40929Y-26496D01*
X40927Y-26483D01*
X40878Y-25795D01*
X40878Y-25782D01*
X40877Y-25769D01*
X40878Y-25756D01*
X40878Y-25743D01*
X40880Y-25730D01*
X40880Y-25717D01*
X40967Y-25033D01*
X40969Y-25020D01*
X40971Y-25007D01*
X40975Y-24994D01*
X40977Y-24981D01*
X40981Y-24969D01*
X40984Y-24956D01*
X41203Y-24302D01*
X41208Y-24290D01*
X41212Y-24277D01*
X41218Y-24265D01*
X41223Y-24253D01*
X41229Y-24242D01*
X41235Y-24230D01*
X41406Y-23931D01*
X41406Y-23931D01*
X41577Y-23631D01*
X41584Y-23620D01*
X41590Y-23609D01*
X41598Y-23599D01*
X41606Y-23588D01*
X41614Y-23578D01*
X41622Y-23567D01*
X42074Y-23047D01*
X42083Y-23037D01*
X42092Y-23028D01*
X42102Y-23019D01*
X42111Y-23009D01*
X42121Y-23001D01*
X42131Y-22993D01*
X42676Y-22570D01*
X42687Y-22563D01*
X42697Y-22555D01*
X42709Y-22548D01*
X42720Y-22541D01*
X42731Y-22535D01*
X42743Y-22528D01*
X43359Y-22220D01*
X43371Y-22215D01*
X43383Y-22209D01*
X43396Y-22205D01*
X43408Y-22200D01*
X43420Y-22197D01*
X43433Y-22192D01*
X44098Y-22011D01*
X44111Y-22008D01*
X44123Y-22005D01*
X44136Y-22003D01*
X44149Y-22000D01*
X44162Y-21999D01*
X44175Y-21997D01*
X44863Y-21949D01*
X44876Y-21949D01*
X44889Y-21948D01*
X44902Y-21949D01*
D02*
G37*
G36*
X38658Y-30696D02*
X38671Y-30697D01*
X38684Y-30699D01*
X38697Y-30700D01*
X39378Y-30805D01*
X39391Y-30808D01*
X39404Y-30810D01*
X39417Y-30814D01*
X39430Y-30817D01*
X39442Y-30821D01*
X39454Y-30825D01*
X40102Y-31061D01*
X40114Y-31066D01*
X40126Y-31071D01*
X40138Y-31077D01*
X40150Y-31082D01*
X40161Y-31089D01*
X40173Y-31095D01*
X40762Y-31453D01*
X40773Y-31461D01*
X40784Y-31467D01*
X40794Y-31475D01*
X40805Y-31483D01*
X40815Y-31492D01*
X40825Y-31500D01*
X41079Y-31733D01*
X41087Y-31741D01*
X41094Y-31748D01*
X41105Y-31760D01*
X41115Y-31771D01*
X41122Y-31780D01*
X41129Y-31788D01*
X41137Y-31801D01*
X41146Y-31813D01*
X41151Y-31823D01*
X41157Y-31832D01*
X41164Y-31846D01*
X41171Y-31859D01*
X41175Y-31870D01*
X41180Y-31879D01*
X41185Y-31894D01*
X41190Y-31908D01*
X41193Y-31919D01*
X41196Y-31929D01*
X41199Y-31944D01*
X41203Y-31959D01*
X41204Y-31970D01*
X41206Y-31981D01*
X41207Y-31996D01*
X41208Y-32011D01*
X41208Y-32022D01*
X41209Y-32033D01*
X41208Y-32048D01*
X41207Y-32064D01*
X41206Y-32074D01*
X41205Y-32085D01*
X41202Y-32100D01*
X41199Y-32116D01*
X41196Y-32126D01*
X41194Y-32137D01*
X41189Y-32151D01*
X41185Y-32166D01*
X41180Y-32176D01*
X41177Y-32186D01*
X41170Y-32200D01*
X41163Y-32214D01*
X41158Y-32223D01*
X41153Y-32233D01*
X41144Y-32246D01*
X41136Y-32259D01*
X41129Y-32267D01*
X41123Y-32276D01*
X41113Y-32288D01*
X41103Y-32300D01*
X41103Y-32300D01*
X36371Y-37457D01*
X36371Y-37457D01*
X36371Y-37457D01*
X36371Y-37457D01*
X36333Y-37494D01*
X36310Y-37510D01*
X36291Y-37525D01*
X36245Y-37550D01*
X36245D01*
X36245Y-37550D01*
X36196Y-37569D01*
X36170Y-37575D01*
X36145Y-37581D01*
X36093Y-37587D01*
X36093D01*
D01*
X36040Y-37586D01*
X35988Y-37578D01*
X35974Y-37573D01*
X35938Y-37563D01*
X35890Y-37542D01*
X35845Y-37515D01*
X35804Y-37482D01*
X35550Y-37249D01*
X35541Y-37239D01*
X35532Y-37230D01*
X35523Y-37220D01*
X35514Y-37211D01*
X35506Y-37200D01*
X35498Y-37190D01*
X35091Y-36634D01*
X35084Y-36623D01*
X35076Y-36612D01*
X35070Y-36601D01*
X35063Y-36590D01*
X35057Y-36578D01*
X35051Y-36566D01*
X34760Y-35941D01*
X34755Y-35929D01*
X34749Y-35917D01*
X34745Y-35905D01*
X34741Y-35892D01*
X34738Y-35880D01*
X34734Y-35867D01*
X34570Y-35197D01*
X34568Y-35184D01*
X34565Y-35172D01*
X34563Y-35159D01*
X34561Y-35146D01*
X34561Y-35133D01*
X34559Y-35120D01*
X34530Y-34431D01*
X34530Y-34418D01*
X34529Y-34405D01*
X34530Y-34391D01*
X34531Y-34378D01*
X34533Y-34365D01*
X34534Y-34352D01*
X34639Y-33671D01*
X34642Y-33658D01*
X34644Y-33645D01*
X34648Y-33632D01*
X34651Y-33620D01*
X34655Y-33607D01*
X34659Y-33595D01*
X34895Y-32947D01*
X34900Y-32935D01*
X34905Y-32923D01*
X34911Y-32911D01*
X34916Y-32899D01*
X34923Y-32888D01*
X34929Y-32876D01*
X35287Y-32287D01*
X35295Y-32276D01*
X35302Y-32265D01*
X35310Y-32255D01*
X35317Y-32244D01*
X35326Y-32234D01*
X35334Y-32224D01*
X35567Y-31970D01*
X35568Y-31970D01*
X35800Y-31716D01*
X35810Y-31707D01*
X35819Y-31698D01*
X35829Y-31689D01*
X35838Y-31680D01*
X35849Y-31672D01*
X35859Y-31664D01*
X36415Y-31256D01*
X36426Y-31249D01*
X36437Y-31242D01*
X36448Y-31236D01*
X36459Y-31228D01*
X36472Y-31223D01*
X36483Y-31217D01*
X37108Y-30926D01*
X37120Y-30921D01*
X37132Y-30915D01*
X37145Y-30911D01*
X37157Y-30907D01*
X37170Y-30904D01*
X37182Y-30900D01*
X37852Y-30736D01*
X37865Y-30734D01*
X37878Y-30731D01*
X37891Y-30729D01*
X37903Y-30727D01*
X37917Y-30727D01*
X37930Y-30725D01*
X38618Y-30696D01*
X38632Y-30696D01*
X38645Y-30695D01*
X38658Y-30696D01*
D02*
G37*
G36*
X41492Y-32225D02*
X41544Y-32233D01*
X41578Y-32243D01*
X41594Y-32248D01*
X41642Y-32269D01*
X41687Y-32296D01*
X41728Y-32329D01*
X41982Y-32562D01*
X41991Y-32572D01*
X42001Y-32580D01*
X42009Y-32590D01*
X42018Y-32600D01*
X42026Y-32610D01*
X42035Y-32621D01*
X42442Y-33177D01*
X42449Y-33188D01*
X42457Y-33198D01*
X42463Y-33210D01*
X42470Y-33221D01*
X42476Y-33233D01*
X42482Y-33244D01*
X42773Y-33869D01*
X42778Y-33882D01*
X42783Y-33894D01*
X42787Y-33906D01*
X42792Y-33918D01*
X42795Y-33931D01*
X42799Y-33944D01*
X42962Y-34613D01*
X42965Y-34626D01*
X42968Y-34639D01*
X42969Y-34652D01*
X42971Y-34665D01*
X42972Y-34678D01*
X42973Y-34691D01*
X43003Y-35380D01*
X43003Y-35393D01*
X43003Y-35406D01*
X43002Y-35419D01*
X43002Y-35432D01*
X43000Y-35445D01*
X42999Y-35459D01*
X42893Y-36140D01*
X42891Y-36153D01*
X42889Y-36166D01*
X42885Y-36178D01*
X42882Y-36191D01*
X42878Y-36203D01*
X42874Y-36216D01*
X42638Y-36864D01*
X42632Y-36876D01*
X42628Y-36888D01*
X42622Y-36900D01*
X42616Y-36912D01*
X42610Y-36923D01*
X42603Y-36935D01*
X42246Y-37524D01*
X42238Y-37534D01*
X42231Y-37546D01*
X42223Y-37556D01*
X42215Y-37567D01*
X42206Y-37576D01*
X42198Y-37587D01*
X41965Y-37841D01*
X41965Y-37841D01*
X41732Y-38094D01*
X41723Y-38104D01*
X41714Y-38113D01*
X41704Y-38122D01*
X41694Y-38131D01*
X41684Y-38138D01*
X41674Y-38147D01*
X41117Y-38554D01*
X41106Y-38561D01*
X41096Y-38569D01*
X41084Y-38575D01*
X41073Y-38582D01*
X41061Y-38588D01*
X41050Y-38594D01*
X40425Y-38885D01*
X40412Y-38890D01*
X40400Y-38895D01*
X40388Y-38899D01*
X40376Y-38904D01*
X40363Y-38907D01*
X40350Y-38911D01*
X39681Y-39075D01*
X39668Y-39077D01*
X39655Y-39080D01*
X39642Y-39081D01*
X39629Y-39084D01*
X39616Y-39084D01*
X39603Y-39086D01*
X38914Y-39115D01*
X38901Y-39115D01*
X38888Y-39116D01*
X38875Y-39114D01*
X38862Y-39114D01*
X38849Y-39112D01*
X38836Y-39111D01*
X38154Y-39006D01*
X38141Y-39003D01*
X38129Y-39001D01*
X38116Y-38997D01*
X38103Y-38994D01*
X38091Y-38990D01*
X38078Y-38986D01*
X37431Y-38750D01*
X37418Y-38745D01*
X37406Y-38740D01*
X37395Y-38734D01*
X37383Y-38729D01*
X37371Y-38722D01*
X37360Y-38716D01*
X36770Y-38358D01*
X36760Y-38350D01*
X36748Y-38343D01*
X36738Y-38335D01*
X36727Y-38328D01*
X36718Y-38319D01*
X36708Y-38311D01*
X36454Y-38078D01*
X36448Y-38071D01*
X36441Y-38066D01*
X36430Y-38052D01*
X36417Y-38040D01*
X36412Y-38033D01*
X36407Y-38026D01*
X36397Y-38012D01*
X36386Y-37997D01*
X36382Y-37990D01*
X36378Y-37983D01*
X36370Y-37967D01*
X36361Y-37951D01*
X36358Y-37943D01*
X36354Y-37936D01*
X36349Y-37919D01*
X36342Y-37902D01*
X36340Y-37894D01*
X36338Y-37886D01*
X36334Y-37868D01*
X36330Y-37852D01*
X36329Y-37843D01*
X36327Y-37835D01*
X36326Y-37817D01*
X36324Y-37799D01*
X36324Y-37791D01*
X36324Y-37782D01*
X36325Y-37765D01*
X36325Y-37747D01*
X36327Y-37738D01*
X36327Y-37730D01*
X36331Y-37713D01*
X36333Y-37695D01*
X36336Y-37687D01*
X36338Y-37678D01*
X36343Y-37662D01*
X36348Y-37645D01*
X36351Y-37637D01*
X36354Y-37629D01*
X36362Y-37613D01*
X36369Y-37597D01*
X36374Y-37589D01*
X36378Y-37582D01*
X36387Y-37567D01*
X36396Y-37552D01*
X36402Y-37545D01*
X36407Y-37538D01*
X36418Y-37525D01*
X36429Y-37511D01*
X36430Y-37511D01*
X41162Y-32353D01*
X41162Y-32353D01*
X41162Y-32353D01*
X41162Y-32353D01*
X41200Y-32317D01*
X41222Y-32300D01*
X41242Y-32286D01*
X41288Y-32261D01*
X41288D01*
X41288Y-32261D01*
X41337Y-32242D01*
X41363Y-32236D01*
X41388Y-32230D01*
X41440Y-32224D01*
X41440D01*
X41440D01*
X41492Y-32225D01*
D02*
G37*
G36*
X33792Y-40130D02*
X33834Y-40134D01*
X33885Y-40146D01*
X33934Y-40164D01*
X33934Y-40164D01*
D01*
X33980Y-40189D01*
X34022Y-40220D01*
X34056Y-40252D01*
X34060Y-40256D01*
Y-40256D01*
X34061Y-40256D01*
X34094Y-40296D01*
X34094Y-40297D01*
X34294Y-40577D01*
X34301Y-40588D01*
X34308Y-40599D01*
X34315Y-40611D01*
X34321Y-40622D01*
X34327Y-40634D01*
X34333Y-40645D01*
X34616Y-41274D01*
X34621Y-41286D01*
X34626Y-41298D01*
X34630Y-41311D01*
X34635Y-41323D01*
X34637Y-41336D01*
X34641Y-41348D01*
X34796Y-42020D01*
X34798Y-42033D01*
X34801Y-42046D01*
X34803Y-42059D01*
X34805Y-42072D01*
X34805Y-42085D01*
X34806Y-42098D01*
X34827Y-42787D01*
X34827Y-42800D01*
X34827Y-42813D01*
X34826Y-42826D01*
X34826Y-42840D01*
X34823Y-42853D01*
X34822Y-42866D01*
X34708Y-43546D01*
X34705Y-43558D01*
X34703Y-43571D01*
X34699Y-43584D01*
X34696Y-43597D01*
X34692Y-43609D01*
X34688Y-43621D01*
X34443Y-44266D01*
X34438Y-44278D01*
X34433Y-44290D01*
X34427Y-44302D01*
X34422Y-44314D01*
X34415Y-44325D01*
X34408Y-44337D01*
X34043Y-44921D01*
X34035Y-44932D01*
X34028Y-44943D01*
X34020Y-44953D01*
X34012Y-44964D01*
X34003Y-44973D01*
X33995Y-44983D01*
X33522Y-45485D01*
X33513Y-45494D01*
X33504Y-45504D01*
X33494Y-45512D01*
X33484Y-45521D01*
X33474Y-45529D01*
X33463Y-45537D01*
X33184Y-45737D01*
X33183Y-45737D01*
X32902Y-45937D01*
X32891Y-45944D01*
X32880Y-45952D01*
X32869Y-45958D01*
X32857Y-45965D01*
X32845Y-45970D01*
X32834Y-45977D01*
X32205Y-46260D01*
X32193Y-46264D01*
X32181Y-46270D01*
X32168Y-46274D01*
X32156Y-46278D01*
X32144Y-46281D01*
X32131Y-46285D01*
X31459Y-46440D01*
X31446Y-46442D01*
X31433Y-46445D01*
X31420Y-46446D01*
X31407Y-46448D01*
X31394Y-46449D01*
X31381Y-46450D01*
X30692Y-46471D01*
X30679Y-46470D01*
X30666Y-46471D01*
X30653Y-46470D01*
X30640Y-46469D01*
X30627Y-46467D01*
X30614Y-46466D01*
X29934Y-46352D01*
X29921Y-46349D01*
X29908Y-46347D01*
X29895Y-46343D01*
X29883Y-46340D01*
X29870Y-46335D01*
X29858Y-46331D01*
X29213Y-46087D01*
X29201Y-46082D01*
X29189Y-46077D01*
X29177Y-46071D01*
X29165Y-46065D01*
X29154Y-46058D01*
X29143Y-46052D01*
X28558Y-45687D01*
X28547Y-45679D01*
X28536Y-45672D01*
X28526Y-45664D01*
X28515Y-45656D01*
X28506Y-45647D01*
X28496Y-45639D01*
X27994Y-45166D01*
X27985Y-45157D01*
X27975Y-45148D01*
X27967Y-45137D01*
X27958Y-45128D01*
X27950Y-45117D01*
X27942Y-45107D01*
X27742Y-44826D01*
X27738Y-44820D01*
X27734Y-44814D01*
X27724Y-44798D01*
X27714Y-44782D01*
X27711Y-44775D01*
X27708Y-44769D01*
X27700Y-44751D01*
X27694Y-44737D01*
X27693Y-44734D01*
X27691Y-44727D01*
X27688Y-44720D01*
X27688Y-44720D01*
X27683Y-44702D01*
X27678Y-44684D01*
X27676Y-44677D01*
X27675Y-44670D01*
X27672Y-44651D01*
X27669Y-44632D01*
X27669Y-44627D01*
X27669Y-44625D01*
X27668Y-44618D01*
X27668Y-44598D01*
X27668Y-44579D01*
X27668Y-44572D01*
X27668Y-44565D01*
X27671Y-44546D01*
X27673Y-44527D01*
X27674Y-44520D01*
X27676Y-44513D01*
X27681Y-44495D01*
X27685Y-44476D01*
X27687Y-44470D01*
X27689Y-44463D01*
X27697Y-44445D01*
X27703Y-44427D01*
X27707Y-44421D01*
X27710Y-44414D01*
X27719Y-44398D01*
X27728Y-44381D01*
X27733Y-44375D01*
X27736Y-44369D01*
X27748Y-44354D01*
X27759Y-44339D01*
X27764Y-44333D01*
X27768Y-44328D01*
X27782Y-44314D01*
X27795Y-44300D01*
X27801Y-44296D01*
X27806Y-44291D01*
X27821Y-44279D01*
X27835Y-44267D01*
X33535Y-40203D01*
X33569Y-40182D01*
X33579Y-40175D01*
X33579Y-40175D01*
X33579D01*
X33627Y-40154D01*
X33647Y-40148D01*
X33677Y-40139D01*
X33729Y-40130D01*
X33781Y-40129D01*
D01*
X33781D01*
X33792Y-40130D01*
D02*
G37*
G36*
X30645Y-37935D02*
X30658Y-37934D01*
X30671Y-37936D01*
X30685Y-37936D01*
X30697Y-37938D01*
X30711Y-37940D01*
X31391Y-38054D01*
X31403Y-38056D01*
X31416Y-38059D01*
X31429Y-38063D01*
X31442Y-38065D01*
X31454Y-38070D01*
X31466Y-38074D01*
X32111Y-38318D01*
X32123Y-38324D01*
X32135Y-38328D01*
X32147Y-38335D01*
X32159Y-38340D01*
X32170Y-38347D01*
X32181Y-38353D01*
X32766Y-38719D01*
X32777Y-38726D01*
X32788Y-38733D01*
X32798Y-38742D01*
X32809Y-38749D01*
X32818Y-38758D01*
X32828Y-38767D01*
X33330Y-39239D01*
X33339Y-39249D01*
X33349Y-39258D01*
X33357Y-39268D01*
X33366Y-39277D01*
X33374Y-39288D01*
X33382Y-39298D01*
X33582Y-39579D01*
X33587Y-39586D01*
X33592Y-39593D01*
X33600Y-39608D01*
X33610Y-39624D01*
X33613Y-39631D01*
X33617Y-39639D01*
X33624Y-39655D01*
X33631Y-39671D01*
X33634Y-39679D01*
X33637Y-39687D01*
X33641Y-39704D01*
X33647Y-39722D01*
X33648Y-39730D01*
X33650Y-39738D01*
X33652Y-39755D01*
X33655Y-39773D01*
X33655Y-39782D01*
X33656Y-39790D01*
X33656Y-39808D01*
X33656Y-39826D01*
X33656Y-39834D01*
X33656Y-39843D01*
X33653Y-39860D01*
X33651Y-39878D01*
X33649Y-39886D01*
X33648Y-39894D01*
X33643Y-39912D01*
X33639Y-39929D01*
X33636Y-39937D01*
X33634Y-39945D01*
X33627Y-39961D01*
X33621Y-39978D01*
X33617Y-39985D01*
X33613Y-39993D01*
X33604Y-40008D01*
X33596Y-40024D01*
X33591Y-40031D01*
X33587Y-40038D01*
X33576Y-40052D01*
X33565Y-40067D01*
X33559Y-40073D01*
X33554Y-40079D01*
X33542Y-40092D01*
X33529Y-40105D01*
X33523Y-40110D01*
X33517Y-40116D01*
X33517Y-40116D01*
X33502Y-40127D01*
X33489Y-40138D01*
X27789Y-44202D01*
X27789Y-44202D01*
X27789Y-44202D01*
X27789Y-44203D01*
X27745Y-44230D01*
X27709Y-44246D01*
X27697Y-44252D01*
X27697Y-44252D01*
X27697D01*
X27647Y-44267D01*
X27595Y-44275D01*
X27543Y-44277D01*
X27490Y-44271D01*
X27459Y-44264D01*
X27439Y-44259D01*
X27439Y-44259D01*
X27439D01*
X27390Y-44241D01*
X27344Y-44216D01*
X27302Y-44185D01*
X27263Y-44150D01*
X27230Y-44109D01*
X27230Y-44109D01*
X27030Y-43828D01*
X27023Y-43817D01*
X27016Y-43806D01*
X27009Y-43795D01*
X27003Y-43784D01*
X26997Y-43772D01*
X26991Y-43760D01*
X26708Y-43131D01*
X26703Y-43119D01*
X26698Y-43107D01*
X26694Y-43095D01*
X26689Y-43082D01*
X26686Y-43069D01*
X26683Y-43057D01*
X26528Y-42385D01*
X26526Y-42372D01*
X26523Y-42359D01*
X26521Y-42346D01*
X26519Y-42333D01*
X26519Y-42320D01*
X26518Y-42307D01*
X26497Y-41618D01*
X26497Y-41605D01*
X26497Y-41592D01*
X26498Y-41579D01*
X26498Y-41566D01*
X26501Y-41553D01*
X26502Y-41540D01*
X26616Y-40860D01*
X26619Y-40847D01*
X26621Y-40834D01*
X26625Y-40821D01*
X26628Y-40809D01*
X26632Y-40796D01*
X26636Y-40784D01*
X26881Y-40139D01*
X26886Y-40127D01*
X26891Y-40115D01*
X26897Y-40103D01*
X26902Y-40091D01*
X26909Y-40080D01*
X26916Y-40069D01*
X27281Y-39484D01*
X27289Y-39473D01*
X27296Y-39462D01*
X27304Y-39452D01*
X27312Y-39441D01*
X27321Y-39432D01*
X27329Y-39422D01*
X27801Y-38920D01*
X27811Y-38911D01*
X27820Y-38901D01*
X27830Y-38893D01*
X27840Y-38884D01*
X27850Y-38876D01*
X27861Y-38868D01*
X28141Y-38668D01*
X28141Y-38668D01*
X28422Y-38468D01*
X28433Y-38461D01*
X28444Y-38453D01*
X28455Y-38447D01*
X28467Y-38440D01*
X28479Y-38435D01*
X28490Y-38429D01*
X29119Y-38146D01*
X29131Y-38141D01*
X29143Y-38135D01*
X29156Y-38132D01*
X29168Y-38127D01*
X29181Y-38124D01*
X29193Y-38120D01*
X29865Y-37965D01*
X29878Y-37963D01*
X29891Y-37960D01*
X29904Y-37959D01*
X29917Y-37957D01*
X29930Y-37957D01*
X29943Y-37955D01*
X30632Y-37934D01*
X30645Y-37935D01*
D02*
G37*
D37*
X0Y0D02*
D03*
D38*
X62992Y62992D02*
D03*
Y-62992D02*
D03*
X-62992D02*
D03*
Y62992D02*
D03*
D74*
X-46542Y-54464D02*
X-18967Y-59326D01*
X-46756Y-54528D02*
X-18788Y-59459D01*
X-46970Y-54592D02*
X-18608Y-59592D01*
X-37041Y-56444D02*
X-18527Y-59708D01*
X-47086Y-54673D02*
X-46200Y-54829D01*
X-36960Y-56560D02*
X-18446Y-59824D01*
X-47202Y-54754D02*
X-46611Y-54858D01*
X-36978Y-56658D02*
X-18365Y-59940D01*
X-47318Y-54835D02*
X-46826Y-54922D01*
X-36995Y-56757D02*
X-18283Y-60056D01*
X-47434Y-54916D02*
X-46941Y-55003D01*
X-37012Y-56855D02*
X-18301Y-60154D01*
X-47451Y-55014D02*
X-47057Y-55084D01*
X-37030Y-56954D02*
X-18220Y-60270D01*
X-47567Y-55096D02*
X-47173Y-55165D01*
X-37047Y-57052D02*
X-18237Y-60369D01*
X-47584Y-55194D02*
X-47289Y-55246D01*
X-37064Y-57151D02*
X-18156Y-60485D01*
X-47700Y-55275D02*
X-47306Y-55345D01*
X-37082Y-57249D02*
X-18173Y-60583D01*
X-47718Y-55374D02*
X-47324Y-55443D01*
X-37099Y-57348D02*
X-18191Y-60681D01*
X-47735Y-55472D02*
X-47341Y-55542D01*
X-37116Y-57446D02*
X-18208Y-60780D01*
X-47752Y-55571D02*
X-47358Y-55640D01*
X-19309Y-60688D02*
X-18225Y-60879D01*
X-26695Y-59385D02*
X-21475Y-60306D01*
X-30437Y-58725D02*
X-29157Y-58951D01*
X-37134Y-57544D02*
X-32899Y-58291D01*
X-47770Y-55669D02*
X-47474Y-55721D01*
X-19326Y-60786D02*
X-18243Y-60977D01*
X-26712Y-59484D02*
X-21887Y-60334D01*
X-30454Y-58824D02*
X-29371Y-59015D01*
X-37151Y-57643D02*
X-33114Y-58355D01*
X-47787Y-55768D02*
X-47492Y-55820D01*
X-19343Y-60884D02*
X-18260Y-61075D01*
X-26730Y-59582D02*
X-22101Y-60398D01*
X-30472Y-58922D02*
X-29487Y-59096D01*
X-37168Y-57741D02*
X-33229Y-58436D01*
X-47804Y-55866D02*
X-47509Y-55918D01*
X-19361Y-60983D02*
X-18278Y-61174D01*
X-26747Y-59680D02*
X-22217Y-60479D01*
X-30489Y-59021D02*
X-29603Y-59177D01*
X-37186Y-57840D02*
X-33345Y-58517D01*
X-45655Y-56346D02*
X-45261Y-56416D01*
X-47822Y-55964D02*
X-47526Y-56017D01*
X-19378Y-61081D02*
X-18295Y-61272D01*
X-26764Y-59779D02*
X-22333Y-60561D01*
X-30507Y-59119D02*
X-29719Y-59258D01*
X-37203Y-57938D02*
X-33461Y-58598D01*
X-46066Y-56375D02*
X-45279Y-56514D01*
X-47839Y-56063D02*
X-47544Y-56115D01*
X-19396Y-61180D02*
X-18312Y-61371D01*
X-26782Y-59878D02*
X-22448Y-60641D01*
X-30524Y-59218D02*
X-29834Y-59339D01*
X-37221Y-58037D02*
X-33577Y-58679D01*
X-46084Y-56474D02*
X-45296Y-56613D01*
X-47857Y-56161D02*
X-47561Y-56214D01*
X-19413Y-61278D02*
X-18330Y-61469D01*
X-26799Y-59976D02*
X-22564Y-60723D01*
X-30541Y-59316D02*
X-29950Y-59420D01*
X-37238Y-58135D02*
X-33693Y-58760D01*
X-46101Y-56573D02*
X-45314Y-56712D01*
X-47874Y-56260D02*
X-47578Y-56312D01*
X-19430Y-61377D02*
X-18347Y-61568D01*
X-21104Y-61082D02*
X-20415Y-61203D01*
X-26816Y-60075D02*
X-22680Y-60804D01*
X-28688Y-59745D02*
X-27998Y-59866D01*
X-30559Y-59415D02*
X-29968Y-59519D01*
X-32430Y-59085D02*
X-31740Y-59206D01*
X-37255Y-58234D02*
X-33710Y-58859D01*
X-46119Y-56671D02*
X-45331Y-56810D01*
X-47891Y-56358D02*
X-47596Y-56410D01*
X-19448Y-61475D02*
X-18364Y-61666D01*
X-21516Y-61111D02*
X-20334Y-61319D01*
X-26834Y-60173D02*
X-22796Y-60885D01*
X-28902Y-59808D02*
X-27720Y-60017D01*
X-30576Y-59513D02*
X-30084Y-59600D01*
X-32644Y-59149D02*
X-31462Y-59357D01*
X-37273Y-58332D02*
X-33826Y-58940D01*
X-46136Y-56769D02*
X-45348Y-56908D01*
X-47909Y-56457D02*
X-47613Y-56509D01*
X-19465Y-61574D02*
X-18382Y-61765D01*
X-21730Y-61174D02*
X-20351Y-61418D01*
X-26851Y-60271D02*
X-22813Y-60983D01*
X-29018Y-59889D02*
X-27737Y-60115D01*
X-30593Y-59612D02*
X-30101Y-59698D01*
X-32760Y-59229D02*
X-31480Y-59455D01*
X-37290Y-58431D02*
X-33843Y-59039D01*
X-46153Y-56868D02*
X-45366Y-57007D01*
X-47926Y-56555D02*
X-47631Y-56607D01*
X-19482Y-61672D02*
X-18399Y-61863D01*
X-21846Y-61256D02*
X-20369Y-61516D01*
X-26869Y-60370D02*
X-22929Y-61064D01*
X-29133Y-59971D02*
X-27755Y-60214D01*
X-30611Y-59710D02*
X-30118Y-59797D01*
X-32876Y-59311D02*
X-31497Y-59554D01*
X-37307Y-58529D02*
X-33861Y-59137D01*
X-46171Y-56966D02*
X-45383Y-57105D01*
X-47943Y-56654D02*
X-47648Y-56706D01*
X-19500Y-61771D02*
X-18417Y-61962D01*
X-21962Y-61336D02*
X-20386Y-61615D01*
X-26886Y-60469D02*
X-22947Y-61163D01*
X-29249Y-60052D02*
X-27772Y-60312D01*
X-30628Y-59809D02*
X-30234Y-59878D01*
X-32992Y-59392D02*
X-31514Y-59652D01*
X-37325Y-58628D02*
X-33977Y-59218D01*
X-46188Y-57065D02*
X-45400Y-57204D01*
X-47961Y-56752D02*
X-47665Y-56804D01*
X-19517Y-61869D02*
X-18434Y-62060D01*
X-21979Y-61435D02*
X-20403Y-61713D01*
X-26903Y-60567D02*
X-22964Y-61261D01*
X-29267Y-60150D02*
X-27790Y-60411D01*
X-30645Y-59907D02*
X-30252Y-59977D01*
X-33009Y-59490D02*
X-31532Y-59751D01*
X-35077Y-59126D02*
X-33994Y-59317D01*
X-37342Y-58726D02*
X-36062Y-58952D01*
X-41281Y-58032D02*
X-40592Y-58153D01*
X-43940Y-57563D02*
X-43251Y-57684D01*
X-46206Y-57163D02*
X-45418Y-57302D01*
X-47978Y-56851D02*
X-47683Y-56903D01*
X-19535Y-61968D02*
X-18451Y-62159D01*
X-22095Y-61516D02*
X-20421Y-61811D01*
X-23671Y-61238D02*
X-23080Y-61342D01*
X-25542Y-60908D02*
X-24459Y-61099D01*
X-26921Y-60665D02*
X-26330Y-60769D01*
X-29284Y-60249D02*
X-27807Y-60509D01*
X-30663Y-60005D02*
X-30269Y-60075D01*
X-33026Y-59589D02*
X-31549Y-59849D01*
X-34898Y-59259D02*
X-34011Y-59415D01*
X-36572Y-58964D02*
X-36276Y-59016D01*
X-37359Y-58825D02*
X-37261Y-58842D01*
X-39920Y-58373D02*
X-39625Y-58425D01*
X-41496Y-58095D02*
X-40314Y-58304D01*
X-44253Y-57609D02*
X-42973Y-57835D01*
X-47011Y-57123D02*
X-45336Y-57418D01*
X-47995Y-56949D02*
X-47700Y-57001D01*
X-19552Y-62066D02*
X-18469Y-62257D01*
X-22211Y-61597D02*
X-20438Y-61910D01*
X-23688Y-61337D02*
X-23097Y-61441D01*
X-25461Y-61024D02*
X-24476Y-61198D01*
X-26938Y-60764D02*
X-26347Y-60868D01*
X-29400Y-60330D02*
X-27824Y-60608D01*
X-30680Y-60104D02*
X-30286Y-60173D01*
X-33142Y-59670D02*
X-31567Y-59948D01*
X-34816Y-59375D02*
X-34029Y-59513D01*
X-36491Y-59079D02*
X-36392Y-59097D01*
X-37377Y-58923D02*
X-37279Y-58941D01*
X-39937Y-58472D02*
X-39150Y-58611D01*
X-41612Y-58177D02*
X-40233Y-58420D01*
X-44369Y-57690D02*
X-42793Y-57968D01*
X-47028Y-57222D02*
X-45058Y-57569D01*
X-48013Y-57048D02*
X-47717Y-57100D01*
X-19569Y-62165D02*
X-18486Y-62356D01*
X-22228Y-61696D02*
X-20456Y-62008D01*
X-23607Y-61453D02*
X-23114Y-61540D01*
X-25478Y-61123D02*
X-24493Y-61296D01*
X-26955Y-60862D02*
X-26364Y-60967D01*
X-29417Y-60428D02*
X-27841Y-60706D01*
X-30698Y-60202D02*
X-30304Y-60272D01*
X-33160Y-59768D02*
X-31584Y-60046D01*
X-34637Y-59508D02*
X-34046Y-59612D01*
X-37394Y-59022D02*
X-37296Y-59039D01*
X-41728Y-58258D02*
X-39167Y-58709D01*
X-44485Y-57771D02*
X-42712Y-58084D01*
X-47045Y-57320D02*
X-45076Y-57667D01*
X-48030Y-57146D02*
X-47735Y-57198D01*
X-19587Y-62263D02*
X-18503Y-62454D01*
X-22246Y-61794D02*
X-20473Y-62107D01*
X-23624Y-61551D02*
X-23132Y-61638D01*
X-25495Y-61221D02*
X-24511Y-61395D01*
X-26973Y-60961D02*
X-26382Y-61065D01*
X-29435Y-60527D02*
X-27859Y-60804D01*
X-30715Y-60301D02*
X-30321Y-60370D01*
X-33177Y-59867D02*
X-31601Y-60145D01*
X-34654Y-59606D02*
X-34063Y-59711D01*
X-37412Y-59120D02*
X-37313Y-59138D01*
X-41745Y-58356D02*
X-39184Y-58808D01*
X-44601Y-57853D02*
X-42631Y-58200D01*
X-47063Y-57418D02*
X-45093Y-57766D01*
X-48048Y-57245D02*
X-47752Y-57297D01*
X-19604Y-62362D02*
X-18521Y-62553D01*
X-22263Y-61893D02*
X-20490Y-62205D01*
X-23642Y-61650D02*
X-23248Y-61719D01*
X-25513Y-61320D02*
X-24528Y-61493D01*
X-26990Y-61059D02*
X-26399Y-61164D01*
X-29452Y-60625D02*
X-27876Y-60903D01*
X-30732Y-60399D02*
X-30338Y-60469D01*
X-33194Y-59965D02*
X-31619Y-60243D01*
X-34573Y-59722D02*
X-34080Y-59809D01*
X-37429Y-59219D02*
X-37330Y-59236D01*
X-41861Y-58437D02*
X-39202Y-58906D01*
X-44717Y-57934D02*
X-42550Y-58316D01*
X-47080Y-57517D02*
X-45110Y-57864D01*
X-48065Y-57343D02*
X-47769Y-57395D01*
X-19621Y-62460D02*
X-18538Y-62651D01*
X-22379Y-61974D02*
X-20508Y-62304D01*
X-23659Y-61748D02*
X-23265Y-61818D01*
X-25530Y-61418D02*
X-24545Y-61592D01*
X-27007Y-61158D02*
X-26417Y-61262D01*
X-29371Y-60741D02*
X-27894Y-61001D01*
X-30750Y-60498D02*
X-30356Y-60567D01*
X-33113Y-60081D02*
X-31636Y-60342D01*
X-34492Y-59838D02*
X-34098Y-59908D01*
X-37446Y-59317D02*
X-37348Y-59334D01*
X-41878Y-58536D02*
X-39318Y-58987D01*
X-44832Y-58015D02*
X-42567Y-58414D01*
X-47098Y-57615D02*
X-45128Y-57963D01*
X-48082Y-57442D02*
X-47787Y-57494D01*
X-19639Y-62559D02*
X-18555Y-62750D01*
X-22396Y-62072D02*
X-20525Y-62402D01*
X-23676Y-61847D02*
X-23282Y-61916D01*
X-25548Y-61517D02*
X-24464Y-61708D01*
X-27025Y-61256D02*
X-26434Y-61361D01*
X-29388Y-60839D02*
X-27911Y-61100D01*
X-30767Y-60596D02*
X-30373Y-60666D01*
X-33131Y-60180D02*
X-31653Y-60440D01*
X-34509Y-59936D02*
X-34115Y-60006D01*
X-35986Y-59676D02*
X-35691Y-59728D01*
X-37464Y-59416D02*
X-37365Y-59433D01*
X-40517Y-58877D02*
X-39335Y-59086D01*
X-41895Y-58634D02*
X-40911Y-58808D01*
X-43471Y-58356D02*
X-42486Y-58530D01*
X-44850Y-58113D02*
X-43865Y-58287D01*
X-47115Y-57714D02*
X-45244Y-58044D01*
X-48100Y-57540D02*
X-47804Y-57592D01*
X-19656Y-62657D02*
X-18573Y-62848D01*
X-22414Y-62171D02*
X-20542Y-62501D01*
X-23694Y-61945D02*
X-23300Y-62015D01*
X-25565Y-61615D02*
X-24482Y-61806D01*
X-27042Y-61355D02*
X-26451Y-61459D01*
X-29307Y-60955D02*
X-27929Y-61199D01*
X-30784Y-60695D02*
X-30292Y-60782D01*
X-33049Y-60295D02*
X-31671Y-60539D01*
X-34428Y-60052D02*
X-34034Y-60122D01*
X-36201Y-59740D02*
X-35511Y-59861D01*
X-37481Y-59514D02*
X-37284Y-59549D01*
X-40436Y-58993D02*
X-39352Y-59184D01*
X-41913Y-58733D02*
X-41026Y-58889D01*
X-43390Y-58472D02*
X-42405Y-58646D01*
X-44966Y-58194D02*
X-43981Y-58368D01*
X-46344Y-57951D02*
X-45557Y-58090D01*
X-47132Y-57812D02*
X-46640Y-57899D01*
X-48117Y-57639D02*
X-47822Y-57691D01*
X-19673Y-62756D02*
X-18590Y-62946D01*
X-22431Y-62270D02*
X-20560Y-62599D01*
X-23711Y-62044D02*
X-23317Y-62113D01*
X-25582Y-61714D02*
X-24499Y-61905D01*
X-27060Y-61453D02*
X-26469Y-61557D01*
X-29324Y-61054D02*
X-27946Y-61297D01*
X-30802Y-60793D02*
X-30309Y-60880D01*
X-33067Y-60394D02*
X-31688Y-60637D01*
X-34446Y-60151D02*
X-34052Y-60220D01*
X-36317Y-59821D02*
X-35430Y-59977D01*
X-37498Y-59613D02*
X-37301Y-59647D01*
X-40256Y-59126D02*
X-39370Y-59283D01*
X-41930Y-58831D02*
X-41142Y-58970D01*
X-43210Y-58605D02*
X-42422Y-58744D01*
X-44983Y-58293D02*
X-44097Y-58449D01*
X-46362Y-58050D02*
X-45574Y-58189D01*
X-48134Y-57737D02*
X-47839Y-57789D01*
X-19691Y-62854D02*
X-18608Y-63045D01*
X-22448Y-62368D02*
X-20577Y-62698D01*
X-23728Y-62142D02*
X-23335Y-62212D01*
X-25600Y-61812D02*
X-24516Y-62003D01*
X-27077Y-61552D02*
X-26486Y-61656D01*
X-29243Y-61170D02*
X-27963Y-61395D01*
X-30819Y-60892D02*
X-30327Y-60979D01*
X-32986Y-60510D02*
X-31705Y-60735D01*
X-34463Y-60249D02*
X-34069Y-60319D01*
X-36433Y-59902D02*
X-35349Y-60093D01*
X-37516Y-59711D02*
X-37319Y-59746D01*
X-40175Y-59242D02*
X-39387Y-59381D01*
X-41947Y-58930D02*
X-41160Y-59069D01*
X-43228Y-58704D02*
X-42440Y-58843D01*
X-45000Y-58391D02*
X-44212Y-58530D01*
X-46281Y-58166D02*
X-45591Y-58287D01*
X-48152Y-57836D02*
X-47856Y-57888D01*
X-19708Y-62953D02*
X-18625Y-63143D01*
X-22367Y-62484D02*
X-20595Y-62796D01*
X-23647Y-62258D02*
X-23254Y-62327D01*
X-25617Y-61911D02*
X-24534Y-62102D01*
X-27094Y-61650D02*
X-26503Y-61754D01*
X-28965Y-61320D02*
X-28079Y-61476D01*
X-30836Y-60990D02*
X-30246Y-61094D01*
X-32708Y-60660D02*
X-31821Y-60817D01*
X-34382Y-60365D02*
X-33988Y-60435D01*
X-36450Y-60000D02*
X-35268Y-60209D01*
X-37533Y-59809D02*
X-37336Y-59844D01*
X-40192Y-59341D02*
X-39404Y-59480D01*
X-41965Y-59028D02*
X-41177Y-59167D01*
X-43147Y-58820D02*
X-42457Y-58941D01*
X-45018Y-58490D02*
X-44230Y-58629D01*
X-46298Y-58264D02*
X-45609Y-58386D01*
X-48169Y-57934D02*
X-47874Y-57986D01*
X-19726Y-63051D02*
X-18642Y-63242D01*
X-22385Y-62582D02*
X-20612Y-62895D01*
X-23665Y-62357D02*
X-23271Y-62426D01*
X-25634Y-62009D02*
X-24551Y-62200D01*
X-27112Y-61749D02*
X-26521Y-61853D01*
X-30854Y-61089D02*
X-30263Y-61193D01*
X-34399Y-60464D02*
X-34005Y-60533D01*
X-36566Y-60082D02*
X-35286Y-60307D01*
X-37551Y-59908D02*
X-37354Y-59943D01*
X-40210Y-59439D02*
X-39422Y-59578D01*
X-41982Y-59127D02*
X-41194Y-59266D01*
X-43164Y-58918D02*
X-42376Y-59057D01*
X-45035Y-58588D02*
X-43854Y-58797D01*
X-46315Y-58363D02*
X-45626Y-58484D01*
X-48186Y-58033D02*
X-47891Y-58085D01*
X-19743Y-63149D02*
X-18660Y-63341D01*
X-22402Y-62681D02*
X-20629Y-62993D01*
X-23682Y-62455D02*
X-23288Y-62524D01*
X-25652Y-62108D02*
X-24568Y-62299D01*
X-27129Y-61847D02*
X-26538Y-61951D01*
X-30871Y-61187D02*
X-30182Y-61309D01*
X-34416Y-60562D02*
X-33924Y-60649D01*
X-36583Y-60180D02*
X-35303Y-60406D01*
X-37568Y-60006D02*
X-37371Y-60041D01*
X-40227Y-59538D02*
X-39439Y-59677D01*
X-42000Y-59225D02*
X-41212Y-59364D01*
X-45052Y-58687D02*
X-42394Y-59156D01*
X-46333Y-58461D02*
X-45643Y-58583D01*
X-48204Y-58131D02*
X-47908Y-58183D01*
X-19760Y-63248D02*
X-18677Y-63439D01*
X-22321Y-62796D02*
X-20647Y-63092D01*
X-23699Y-62553D02*
X-23306Y-62623D01*
X-25669Y-62206D02*
X-24586Y-62397D01*
X-27146Y-61946D02*
X-26555Y-62050D01*
X-30889Y-61286D02*
X-30199Y-61407D01*
X-34434Y-60661D02*
X-33942Y-60747D01*
X-36601Y-60279D02*
X-35320Y-60504D01*
X-37585Y-60105D02*
X-37388Y-60140D01*
X-40244Y-59636D02*
X-39456Y-59775D01*
X-42017Y-59324D02*
X-41229Y-59462D01*
X-45070Y-58785D02*
X-42411Y-59254D01*
X-46350Y-58560D02*
X-45661Y-58681D01*
X-48221Y-58229D02*
X-47926Y-58282D01*
X-19778Y-63346D02*
X-18694Y-63537D01*
X-22338Y-62895D02*
X-20664Y-63190D01*
X-23717Y-62652D02*
X-23323Y-62721D01*
X-25686Y-62305D02*
X-24603Y-62495D01*
X-27164Y-62044D02*
X-26573Y-62148D01*
X-30906Y-61384D02*
X-30118Y-61523D01*
X-34451Y-60759D02*
X-33860Y-60863D01*
X-36618Y-60377D02*
X-35338Y-60603D01*
X-37603Y-60203D02*
X-37406Y-60238D01*
X-40262Y-59735D02*
X-39474Y-59874D01*
X-42034Y-59422D02*
X-41345Y-59544D01*
X-45087Y-58884D02*
X-42428Y-59352D01*
X-46367Y-58658D02*
X-45678Y-58780D01*
X-48239Y-58328D02*
X-47943Y-58380D01*
X-19795Y-63445D02*
X-18712Y-63636D01*
X-22257Y-63011D02*
X-20681Y-63289D01*
X-23833Y-62733D02*
X-23242Y-62837D01*
X-25704Y-62403D02*
X-24621Y-62594D01*
X-27181Y-62143D02*
X-26590Y-62247D01*
X-30923Y-61483D02*
X-29939Y-61656D01*
X-34469Y-60858D02*
X-33681Y-60997D01*
X-36635Y-60476D02*
X-35355Y-60701D01*
X-37620Y-60302D02*
X-37423Y-60337D01*
X-40279Y-59833D02*
X-39491Y-59972D01*
X-42052Y-59521D02*
X-41362Y-59642D01*
X-45006Y-59000D02*
X-42446Y-59451D01*
X-46385Y-58756D02*
X-45696Y-58878D01*
X-48256Y-58426D02*
X-47960Y-58479D01*
X-19812Y-63543D02*
X-18729Y-63734D01*
X-22274Y-63109D02*
X-20699Y-63387D01*
X-23850Y-62831D02*
X-23259Y-62936D01*
X-25721Y-62502D02*
X-24638Y-62693D01*
X-27198Y-62241D02*
X-26607Y-62345D01*
X-30941Y-61581D02*
X-29858Y-61772D01*
X-34486Y-60956D02*
X-33600Y-61112D01*
X-36652Y-60574D02*
X-35372Y-60800D01*
X-37637Y-60400D02*
X-37440Y-60435D01*
X-40296Y-59932D02*
X-39509Y-60071D01*
X-42069Y-59619D02*
X-41380Y-59741D01*
X-44531Y-59185D02*
X-42463Y-59549D01*
X-46402Y-58855D02*
X-45713Y-58977D01*
X-48273Y-58525D02*
X-47978Y-58577D01*
X-19830Y-63642D02*
X-18746Y-63833D01*
X-22193Y-63225D02*
X-20716Y-63486D01*
X-23867Y-62930D02*
X-23277Y-63034D01*
X-25640Y-62617D02*
X-24754Y-62774D01*
X-27216Y-62340D02*
X-26625Y-62444D01*
X-30958Y-61680D02*
X-29678Y-61905D01*
X-34503Y-61055D02*
X-33420Y-61246D01*
X-36571Y-60690D02*
X-35390Y-60898D01*
X-37655Y-60499D02*
X-37458Y-60534D01*
X-40314Y-60030D02*
X-39526Y-60169D01*
X-42086Y-59718D02*
X-41397Y-59839D01*
X-43564Y-59457D02*
X-42480Y-59648D01*
X-46420Y-58953D02*
X-45730Y-59075D01*
X-48291Y-58623D02*
X-47995Y-58676D01*
X-19847Y-63740D02*
X-18764Y-63931D01*
X-22112Y-63341D02*
X-20733Y-63584D01*
X-23885Y-63028D02*
X-23196Y-63150D01*
X-25559Y-62733D02*
X-24771Y-62872D01*
X-27233Y-62438D02*
X-26642Y-62542D01*
X-30975Y-61778D02*
X-28119Y-62282D01*
X-34619Y-61136D02*
X-31862Y-61622D01*
X-36589Y-60788D02*
X-35506Y-60979D01*
X-37672Y-60597D02*
X-37475Y-60632D01*
X-40331Y-60128D02*
X-39543Y-60267D01*
X-42104Y-59816D02*
X-41414Y-59938D01*
X-43384Y-59590D02*
X-42596Y-59729D01*
X-46437Y-59052D02*
X-45747Y-59174D01*
X-48308Y-58722D02*
X-48013Y-58774D01*
X-19864Y-63839D02*
X-18781Y-64030D01*
X-22031Y-63457D02*
X-20751Y-63683D01*
X-23902Y-63127D02*
X-23213Y-63248D01*
X-25478Y-62849D02*
X-24887Y-62953D01*
X-27250Y-62537D02*
X-26660Y-62641D01*
X-30993Y-61877D02*
X-28137Y-62380D01*
X-34637Y-61234D02*
X-31879Y-61721D01*
X-36508Y-60904D02*
X-35621Y-61061D01*
X-37690Y-60696D02*
X-37492Y-60731D01*
X-38773Y-60505D02*
X-38280Y-60592D01*
X-40349Y-60227D02*
X-39561Y-60366D01*
X-42121Y-59914D02*
X-41432Y-60036D01*
X-43401Y-59689D02*
X-42614Y-59828D01*
X-44977Y-59411D02*
X-44780Y-59446D01*
X-46553Y-59133D02*
X-45765Y-59272D01*
X-48325Y-58820D02*
X-48030Y-58872D01*
X-19882Y-63937D02*
X-18799Y-64128D01*
X-21654Y-63625D02*
X-20867Y-63764D01*
X-23920Y-63225D02*
X-23132Y-63364D01*
X-25298Y-62982D02*
X-25101Y-63017D01*
X-27268Y-62635D02*
X-26677Y-62739D01*
X-31010Y-61975D02*
X-28154Y-62479D01*
X-34654Y-61332D02*
X-31896Y-61819D01*
X-36427Y-61020D02*
X-35737Y-61142D01*
X-37707Y-60794D02*
X-37608Y-60812D01*
X-38888Y-60586D02*
X-38101Y-60725D01*
X-40366Y-60325D02*
X-39578Y-60464D01*
X-42138Y-60013D02*
X-41351Y-60152D01*
X-43616Y-59752D02*
X-42631Y-59926D01*
X-45093Y-59492D02*
X-44600Y-59579D01*
X-46570Y-59231D02*
X-45782Y-59370D01*
X-48343Y-58919D02*
X-48047Y-58971D01*
X-19899Y-64036D02*
X-18816Y-64227D01*
X-23937Y-63324D02*
X-23051Y-63480D01*
X-27285Y-62734D02*
X-26694Y-62838D01*
X-31027Y-62073D02*
X-28172Y-62577D01*
X-34770Y-61414D02*
X-31914Y-61917D01*
X-36247Y-61153D02*
X-35952Y-61205D01*
X-37724Y-60893D02*
X-37626Y-60910D01*
X-39004Y-60667D02*
X-38118Y-60823D01*
X-40383Y-60424D02*
X-39595Y-60563D01*
X-42156Y-60111D02*
X-41368Y-60250D01*
X-43732Y-59834D02*
X-42747Y-60007D01*
X-45110Y-59590D02*
X-44421Y-59712D01*
X-46686Y-59313D02*
X-45800Y-59469D01*
X-47375Y-59191D02*
X-47080Y-59243D01*
X-48360Y-59017D02*
X-48065Y-59069D01*
X-19917Y-64134D02*
X-18833Y-64325D01*
X-23954Y-63423D02*
X-22969Y-63596D01*
X-27303Y-62832D02*
X-26712Y-62936D01*
X-31045Y-62172D02*
X-28189Y-62676D01*
X-34787Y-61512D02*
X-31931Y-62016D01*
X-37742Y-60991D02*
X-37643Y-61009D01*
X-39022Y-60765D02*
X-38037Y-60939D01*
X-40400Y-60522D02*
X-39613Y-60661D01*
X-42173Y-60210D02*
X-41385Y-60349D01*
X-45226Y-59671D02*
X-42764Y-60106D01*
X-47393Y-59290D02*
X-45817Y-59567D01*
X-48377Y-59116D02*
X-48082Y-59168D01*
X-19934Y-64233D02*
X-18851Y-64424D01*
X-24070Y-63503D02*
X-22888Y-63712D01*
X-27320Y-62930D02*
X-26729Y-63035D01*
X-31062Y-62270D02*
X-28206Y-62774D01*
X-34903Y-61593D02*
X-31949Y-62114D01*
X-37759Y-61090D02*
X-37661Y-61107D01*
X-39039Y-60864D02*
X-38054Y-61038D01*
X-40418Y-60621D02*
X-39630Y-60760D01*
X-42190Y-60308D02*
X-41403Y-60447D01*
X-45243Y-59770D02*
X-42880Y-60187D01*
X-47410Y-59388D02*
X-45834Y-59666D01*
X-48395Y-59214D02*
X-48099Y-59267D01*
X-19951Y-64331D02*
X-18868Y-64522D01*
X-24088Y-63602D02*
X-22807Y-63828D01*
X-27337Y-63029D02*
X-26746Y-63133D01*
X-31080Y-62369D02*
X-28224Y-62873D01*
X-35019Y-61674D02*
X-31966Y-62213D01*
X-37776Y-61188D02*
X-37678Y-61206D01*
X-39057Y-60962D02*
X-38072Y-61136D01*
X-40435Y-60719D02*
X-39647Y-60858D01*
X-42208Y-60407D02*
X-41420Y-60546D01*
X-45261Y-59868D02*
X-42996Y-60268D01*
X-47427Y-59487D02*
X-45852Y-59764D01*
X-48412Y-59313D02*
X-48117Y-59365D01*
X-19969Y-64430D02*
X-18885Y-64621D01*
X-24203Y-63683D02*
X-22726Y-63943D01*
X-25877Y-63388D02*
X-25779Y-63405D01*
X-27355Y-63127D02*
X-26764Y-63232D01*
X-31097Y-62467D02*
X-28241Y-62971D01*
X-35036Y-61773D02*
X-31983Y-62311D01*
X-37794Y-61287D02*
X-37695Y-61304D01*
X-39074Y-61061D02*
X-38089Y-61234D01*
X-40453Y-60818D02*
X-39665Y-60957D01*
X-42225Y-60505D02*
X-41437Y-60644D01*
X-45180Y-59984D02*
X-43112Y-60349D01*
X-47445Y-59585D02*
X-45968Y-59845D01*
X-48430Y-59411D02*
X-48134Y-59463D01*
X-19986Y-64528D02*
X-18903Y-64719D01*
X-24319Y-63764D02*
X-22546Y-64077D01*
X-25895Y-63486D02*
X-25698Y-63521D01*
X-27372Y-63226D02*
X-26781Y-63330D01*
X-31114Y-62566D02*
X-28258Y-63070D01*
X-35251Y-61837D02*
X-32001Y-62410D01*
X-36925Y-61542D02*
X-36826Y-61559D01*
X-37811Y-61385D02*
X-37712Y-61403D01*
X-39091Y-61159D02*
X-38205Y-61316D01*
X-40470Y-60916D02*
X-39682Y-61055D01*
X-42243Y-60604D02*
X-41455Y-60743D01*
X-45000Y-60118D02*
X-43227Y-60430D01*
X-47462Y-59684D02*
X-45985Y-59944D01*
X-48447Y-59510D02*
X-48053Y-59579D01*
X-20003Y-64627D02*
X-18920Y-64818D01*
X-24533Y-63828D02*
X-22367Y-64210D01*
X-25912Y-63585D02*
X-25518Y-63654D01*
X-27389Y-63324D02*
X-26799Y-63429D01*
X-31132Y-62664D02*
X-28276Y-63168D01*
X-35366Y-61918D02*
X-32018Y-62508D01*
X-36942Y-61640D02*
X-36647Y-61692D01*
X-37828Y-61484D02*
X-37631Y-61518D01*
X-39010Y-61275D02*
X-38222Y-61414D01*
X-40487Y-61015D02*
X-39700Y-61154D01*
X-42260Y-60702D02*
X-41472Y-60841D01*
X-44919Y-60233D02*
X-43442Y-60494D01*
X-47479Y-59782D02*
X-46101Y-60025D01*
X-48464Y-59608D02*
X-48070Y-59678D01*
X-35581Y-61981D02*
X-18937Y-64916D01*
X-37846Y-61582D02*
X-36467Y-61825D01*
X-38831Y-61409D02*
X-38437Y-61478D01*
X-44542Y-60401D02*
X-43755Y-60540D01*
X-47201Y-59933D02*
X-46315Y-60089D01*
X-48482Y-59707D02*
X-48088Y-59776D01*
X-37863Y-61681D02*
X-18955Y-65015D01*
X-48499Y-59805D02*
X-48105Y-59875D01*
X-37880Y-61779D02*
X-19071Y-65096D01*
X-48418Y-59921D02*
X-48123Y-59973D01*
X-37898Y-61878D02*
X-19088Y-65194D01*
X-48435Y-60020D02*
X-48041Y-60089D01*
X-37915Y-61976D02*
X-19204Y-65275D01*
X-48354Y-60135D02*
X-47960Y-60205D01*
X-37933Y-62075D02*
X-19221Y-65374D01*
X-48372Y-60234D02*
X-47879Y-60321D01*
X-37950Y-62173D02*
X-19337Y-65455D01*
X-48291Y-60350D02*
X-47798Y-60436D01*
X-37967Y-62272D02*
X-19453Y-65536D01*
X-48209Y-60466D02*
X-47618Y-60570D01*
X-38083Y-62353D02*
X-19569Y-65617D01*
X-48128Y-60581D02*
X-47242Y-60738D01*
X-48047Y-60697D02*
X-19684Y-65698D01*
X-47867Y-60830D02*
X-19899Y-65762D01*
X-47688Y-60964D02*
X-20113Y-65826D01*
D75*
X30760Y-22389D02*
D03*
X24358Y-28792D02*
D03*
D76*
X-40157Y-6905D02*
D03*
X-40157Y-17505D02*
D03*
D77*
X-40157Y-12205D02*
D03*
D78*
X50448Y-3155D02*
D03*
X50073Y-7469D02*
D03*
X48986Y-5201D02*
D03*
X53311Y-7751D02*
D03*
X53686Y-3436D02*
D03*
X54773Y-5704D02*
D03*
X32348Y-44567D02*
D03*
X33368Y-42268D02*
D03*
X29842Y-44783D02*
D03*
X28976Y-39838D02*
D03*
X27956Y-42137D02*
D03*
X31482Y-39623D02*
D03*
X42655Y27067D02*
D03*
X44936Y23386D02*
D03*
X42708Y24553D02*
D03*
X47698Y25098D02*
D03*
X45417Y28779D02*
D03*
X47645Y27613D02*
D03*
X47355Y17615D02*
D03*
X48808Y13535D02*
D03*
X46876Y15146D02*
D03*
X51869Y14625D02*
D03*
X50416Y18705D02*
D03*
X52348Y17094D02*
D03*
X54760Y5824D02*
D03*
X53214Y7808D02*
D03*
X53768Y3513D02*
D03*
X48999Y5081D02*
D03*
X50545Y3097D02*
D03*
X49991Y7392D02*
D03*
X52385Y-16985D02*
D03*
X51808Y-14537D02*
D03*
X50519Y-18671D02*
D03*
X46840Y-15255D02*
D03*
X47416Y-17703D02*
D03*
X48706Y-13569D02*
D03*
X47699Y-27522D02*
D03*
X47661Y-25007D02*
D03*
X45514Y-28769D02*
D03*
X42654Y-24643D02*
D03*
X42692Y-27158D02*
D03*
X44839Y-23397D02*
D03*
X40906Y-36869D02*
D03*
X41427Y-34408D02*
D03*
X38500Y-37599D02*
D03*
X36626Y-32942D02*
D03*
X36105Y-35402D02*
D03*
X39033Y-32211D02*
D03*
D79*
X17391Y-42520D02*
D03*
X21191Y-42520D02*
D03*
X-27216Y-32180D02*
D03*
X-31016D02*
D03*
X-41270Y18110D02*
D03*
X-37470Y18110D02*
D03*
D80*
X53150Y34744D02*
D03*
Y31398D02*
D03*
X-55118Y21358D02*
D03*
Y18012D02*
D03*
X-59055Y17421D02*
D03*
Y14075D02*
D03*
X-62992Y21358D02*
D03*
Y18012D02*
D03*
X64961Y1673D02*
D03*
Y-1673D02*
D03*
X62992Y11516D02*
D03*
Y8169D02*
D03*
D81*
X9312Y-46399D02*
D03*
X8199Y-47513D02*
D03*
X3744Y-51967D02*
D03*
X2631Y-53080D02*
D03*
X1517Y-54194D02*
D03*
X-9312Y-43365D02*
D03*
X-8198Y-42251D02*
D03*
X-7085Y-41137D02*
D03*
X-5971Y-40024D02*
D03*
X-4858Y-38910D02*
D03*
X-3744Y-37797D02*
D03*
X-2631Y-36683D02*
D03*
X-1517Y-35570D02*
D03*
X7085Y-48626D02*
D03*
X5971Y-49740D02*
D03*
X4858Y-50853D02*
D03*
D82*
X-1517Y-54194D02*
D03*
X-2631Y-53080D02*
D03*
X-3744Y-51967D02*
D03*
X-4858Y-50853D02*
D03*
X-5971Y-49740D02*
D03*
X-7085Y-48626D02*
D03*
X-8199Y-47513D02*
D03*
X-9312Y-46399D02*
D03*
X1517Y-35570D02*
D03*
X2631Y-36683D02*
D03*
X3744Y-37797D02*
D03*
X4858Y-38910D02*
D03*
X5971Y-40024D02*
D03*
X7085Y-41138D02*
D03*
X8199Y-42251D02*
D03*
X9312Y-43365D02*
D03*
D83*
X0Y-44882D02*
D03*
D84*
X-29557Y38148D02*
D03*
X-25134Y40305D02*
D03*
X-20710Y42463D02*
D03*
X-16287Y44620D02*
D03*
X-11864Y46777D02*
D03*
D85*
X-43585Y44009D02*
D03*
X-7846Y61440D02*
D03*
D86*
X-43464Y25591D02*
D03*
X-36064Y25591D02*
D03*
D87*
X-36220Y5049D02*
D03*
X-36220Y1250D02*
D03*
X-41732Y1250D02*
D03*
X-41732Y5050D02*
D03*
X-15748Y-35266D02*
D03*
X-15748Y-31466D02*
D03*
X-33465Y-25916D02*
D03*
X-33465Y-22116D02*
D03*
X-38976Y-26703D02*
D03*
X-38976Y-22903D02*
D03*
X-36220Y9517D02*
D03*
Y13317D02*
D03*
D88*
X21029Y-34414D02*
D03*
X18341Y-31727D02*
D03*
X16698Y-37564D02*
D03*
X14011Y-34877D02*
D03*
D89*
X43585Y44009D02*
D03*
X7846Y61440D02*
D03*
D90*
X29557Y38148D02*
D03*
X25133Y40306D02*
D03*
X20710Y42463D02*
D03*
X16287Y44620D02*
D03*
X11864Y46777D02*
D03*
D91*
X-22047Y-31269D02*
D03*
X-22047Y-35069D02*
D03*
D92*
X-30708Y23947D02*
D03*
X-30709Y20147D02*
D03*
D93*
X-35240Y-46966D02*
D03*
X-31894D02*
D03*
X-40687Y-50259D02*
D03*
X-37341D02*
D03*
X-34308Y-53760D02*
D03*
X-30961D02*
D03*
X-16628Y-53614D02*
D03*
X-13282D02*
D03*
X-16634Y-57087D02*
D03*
X-13287D02*
D03*
X26940Y-59028D02*
D03*
X23594D02*
D03*
X34744Y-56299D02*
D03*
X31398D02*
D03*
D94*
X-12600Y-62207D02*
D03*
X-10234Y-59841D02*
D03*
X-3545Y-62207D02*
D03*
X-1179Y-59841D02*
D03*
X96Y-63782D02*
D03*
X2463Y-61415D02*
D03*
X5707Y-64569D02*
D03*
X8073Y-62203D02*
D03*
X45671Y-57478D02*
D03*
X43305Y-59845D02*
D03*
M02*
